<svg preserveAspectRatio="none" width="100%" height="100%" overflow="visible" style="display: block;" viewBox="0 0 24 24" fill="none" xmlns="http://www.w3.org/2000/svg">
<g id="Google Logo">
<path id="Shape" fill-rule="evenodd" clip-rule="evenodd" d="M24 12.2741C24 11.4232 23.9221 10.605 23.7774 9.81957H12.2449V14.4614H18.8349C18.551 15.9614 17.6883 17.2323 16.3915 18.0832V21.0941H20.3488C22.6642 19.005 24 15.9286 24 12.2741Z" fill="var(--fill-0, #4285F4)"/>
<path id="Shape_2" fill-rule="evenodd" clip-rule="evenodd" d="M12.2448 24C15.5509 24 18.3227 22.9255 20.3487 21.0927L16.3913 18.0818C15.2949 18.8018 13.8923 19.2273 12.2448 19.2273C9.05551 19.2273 6.35606 17.1164 5.39317 14.28H1.30225V17.3891C3.31709 21.3109 7.45811 24 12.2448 24Z" fill="var(--fill-0, #34A853)"/>
<path id="Shape_3" fill-rule="evenodd" clip-rule="evenodd" d="M5.39334 14.2793C5.14844 13.5593 5.00929 12.7902 5.00929 11.9993C5.00929 11.2084 5.14844 10.4393 5.39334 9.7193V6.61022H1.30242C0.4731 8.23022 0 10.0629 0 11.9993C0 13.9356 0.4731 15.7684 1.30242 17.3884L5.39334 14.2793Z" fill="var(--fill-0, #FBBC05)"/>
<path id="Shape_4" fill-rule="evenodd" clip-rule="evenodd" d="M12.2448 4.77271C14.0425 4.77271 15.6566 5.37816 16.9257 6.56724L20.4377 3.12544C18.3171 1.18909 15.5453 0 12.2448 0C7.45811 0 3.31709 2.68908 1.30225 6.61088L5.39317 9.71996C6.35606 6.88361 9.05551 4.77271 12.2448 4.77271Z" fill="var(--fill-0, #EA4335)"/>
</g>
</svg>
