<svg preserveAspectRatio="none" width="100%" height="100%" overflow="visible" style="display: block;" viewBox="0 0 20.72 17.46" fill="none" xmlns="http://www.w3.org/2000/svg">
<g id="Frame 489">
<path id="Vector" fill-rule="evenodd" clip-rule="evenodd" d="M5.1 4.41L4.36 3.68C2.49 4.83 0.97 6.5 0 8.5C1.86 12.35 5.8 15 10.36 15C11.9373 15 13.4348 14.6811 14.8029 14.1129C14.8053 14.112 14.8076 14.111 14.81 14.11L14.03 13.34C12.89 13.77 11.65 14 10.36 14C6.36 14 2.9 11.78 1.12 8.5C2.04947 6.79968 3.42564 5.38547 5.1 4.41ZM12.9004 12.2165C12.9036 12.2144 12.9068 12.2122 12.91 12.21L12.18 11.5C11.65 11.81 11.03 12 10.36 12C9.43174 12 8.5415 11.6313 7.88513 10.9749C7.22875 10.3185 6.86 9.42826 6.86 8.5C6.86 7.83 7.05 7.21 7.36 6.68L6.65 5.95C6.15 6.68 5.86 7.55 5.86 8.5C5.86 11 7.86 13 10.36 13C11.3059 13 12.1724 12.7125 12.9004 12.2165ZM10.36 3C14.36 3 17.82 5.22 19.6 8.5C18.73 10.1 17.46 11.44 15.93 12.4L16.65 13.13C18.4038 11.987 19.8113 10.3858 20.72 8.5C18.86 4.65 14.92 2 10.36 2C8.92 2 7.54 2.26 6.27 2.75L7.05 3.53C8.09 3.19 9.21 3 10.36 3ZM14.86 8.5C14.86 6 12.86 4 10.36 4C9.54 4 8.78 4.22 8.12 4.6L8.86 5.34C9.32 5.12 9.82 5 10.36 5C11.2883 5 12.1785 5.36875 12.8349 6.02513C13.4913 6.6815 13.86 7.57174 13.86 8.5C13.86 9.04 13.74 9.54 13.52 10L14.26 10.74C14.64 10.08 14.86 9.32 14.86 8.5Z" fill="var(--fill-0, #7E7E7E)"/>
</g>
</svg>
