<svg preserveAspectRatio="none" width="100%" height="100%" overflow="visible" style="display: block;" viewBox="0 0 374.204 74.9779" fill="none" xmlns="http://www.w3.org/2000/svg">
<g id="Answers">
<path d="M1.40619 74.9779C0.468729 74.9779 0 74.5092 0 73.5717V21.4303C0 20.9428 0.187492 20.3803 0.562475 19.7429L13.8931 0.843712C14.3056 0.281237 14.9056 0 15.6931 0H34.311C35.1359 0 35.7359 0.281237 36.1109 0.843712L49.4978 19.7429C49.8728 20.2678 50.0603 20.8303 50.0603 21.4303V73.5717C50.0603 74.5092 49.5915 74.9779 48.6541 74.9779H32.736C31.7986 74.9779 31.3299 74.5092 31.3299 73.5717V52.1664C31.3299 50.7858 30.2106 49.6665 28.83 49.6665H21.2866C19.9059 49.6665 18.7867 50.7858 18.7867 52.1664V73.5717C18.7867 74.5092 18.3179 74.9779 17.3805 74.9779H1.40619ZM25.0301 37.5733C28.48 37.5733 30.8049 36.8234 32.0048 35.3234C33.2423 33.786 33.861 30.8799 33.861 26.6051C33.861 22.3303 33.2423 19.4429 32.0048 17.9429C30.8049 16.4055 28.48 15.6368 25.0301 15.6368C21.6178 15.6368 19.2929 16.4055 18.0554 17.9429C16.8555 19.4429 16.2555 22.3303 16.2555 26.6051C16.2555 30.8799 16.8555 33.786 18.0554 35.3234C19.2929 36.8234 21.6178 37.5733 25.0301 37.5733Z" fill="var(--fill-0, #5C5C5C)"/>
<path d="M64.6389 74.9779C63.7015 74.9779 63.2327 74.5092 63.2327 73.5717V14.5119C63.2327 13.5744 63.7015 13.1057 64.6389 13.1057H94.7313C95.5938 13.1057 96.3438 13.4244 96.9812 14.0619L108.231 25.3114C108.868 25.9113 109.187 26.6613 109.187 27.5613V73.5717C109.187 74.5092 108.718 74.9779 107.781 74.9779H92.7627C91.8252 74.9779 91.3565 74.5092 91.3565 73.5717V29.8112C91.3565 28.0487 90.4753 27.1675 88.7128 27.1675H83.5631C82.1824 27.1675 81.0632 28.2868 81.0632 29.6674V73.5717C81.0632 74.5092 80.5945 74.9779 79.657 74.9779H64.6389Z" fill="var(--fill-0, #5C5C5C)"/>
<path d="M121.999 74.9779C121.062 74.9779 120.593 74.5092 120.593 73.5717V64.4596C120.593 63.5972 120.874 63.0347 121.437 62.7722L131.687 56.6926C132.446 56.2423 132.911 55.4251 132.911 54.5425V51.6087C132.911 50.6896 132.407 49.8445 131.598 49.4083L121.437 43.9293C120.874 43.5918 120.593 43.0106 120.593 42.1856V24.2427C120.593 23.8302 120.649 23.4927 120.762 23.2302C120.912 22.9677 121.118 22.7427 121.38 22.5552L133.361 13.7806C133.774 13.4806 134.111 13.2932 134.374 13.2182C134.636 13.1432 134.898 13.1057 135.161 13.1057H148.829C149.767 13.1057 150.235 13.5744 150.235 14.5119V23.3427C150.235 23.9802 150.179 24.4114 150.067 24.6364C149.992 24.8614 149.804 25.0489 149.504 25.1989L140.186 30.2277C139.377 30.6641 138.873 31.5089 138.873 32.4277V35.9089C138.873 36.8594 139.412 37.7277 140.264 38.1493L150.235 43.0856C150.873 43.3481 151.192 43.9105 151.192 44.773V62.041C151.192 62.9784 150.873 63.7284 150.235 64.2909L138.255 74.2467C137.655 74.7342 136.905 74.9779 136.005 74.9779H121.999Z" fill="var(--fill-0, #5C5C5C)"/>
<path d="M177.046 74.9779C176.184 74.9779 175.434 74.6592 174.796 74.0217L163.547 62.7722C162.909 62.1722 162.59 61.4223 162.59 60.5223V14.5119C162.59 13.5744 163.059 13.1057 163.997 13.1057H179.015C179.952 13.1057 180.421 13.5744 180.421 14.5119V58.4161C180.421 59.7968 181.54 60.916 182.921 60.916H187.314C188.695 60.916 189.814 59.7968 189.814 58.4161V14.5119C189.814 13.5744 190.283 13.1057 191.22 13.1057H206.182C207.12 13.1057 207.588 13.5744 207.588 14.5119V58.4161C207.588 59.7968 208.708 60.916 210.088 60.916H214.482C215.862 60.916 216.982 59.7968 216.982 58.4161V14.5119C216.982 13.5744 217.45 13.1057 218.388 13.1057H233.406C234.343 13.1057 234.812 13.5744 234.812 14.5119V60.5223C234.812 61.4223 234.493 62.1722 233.856 62.7722L222.606 74.0217C221.969 74.6592 221.219 74.9779 220.357 74.9779H207.532C206.632 74.9779 205.882 74.6592 205.282 74.0217L200.515 69.2546C199.546 68.285 197.976 68.2775 196.997 69.2378L192.12 74.0217C191.52 74.6592 190.77 74.9779 189.87 74.9779H177.046Z" fill="var(--fill-0, #5C5C5C)"/>
<path d="M273.104 74.9779C272.729 74.9779 272.316 74.9217 271.866 74.8092C271.454 74.6967 271.06 74.6029 270.685 74.5279L260.673 72.053L249.198 68.2282C248.073 67.8532 247.511 66.7658 247.511 64.9659V27.5613C247.511 26.6613 247.83 25.9113 248.467 25.3114L259.717 14.0619C260.354 13.4244 261.104 13.1057 261.967 13.1057H279.966C280.828 13.1057 281.578 13.4244 282.216 14.0619L293.465 25.3114C294.103 25.9113 294.421 26.6613 294.421 27.5613V48.1228C294.421 49.5035 293.302 50.6227 291.921 50.6227H266.588C265.259 50.6227 264.162 51.6635 264.092 52.9912L263.923 56.1985C263.864 57.3235 264.564 58.3491 265.634 58.7031L271.215 60.5505C271.61 60.6812 272.02 60.7621 272.434 60.7914L286.153 61.7597C286.79 61.8722 287.109 62.3035 287.109 63.0534V73.5717C287.109 74.5092 286.64 74.9779 285.703 74.9779H273.104ZM270.854 41.7919H271.922C273.76 41.7919 275.222 41.0982 276.31 39.7107C277.435 38.3233 277.997 36.4484 277.997 34.086V32.961C277.997 30.6361 277.435 28.78 276.31 27.3925C275.222 26.0051 273.76 25.3114 271.922 25.3114H270.797C268.998 25.3114 267.554 26.0051 266.466 27.3925C265.416 28.78 264.891 30.6361 264.891 32.961V34.086C264.891 36.4484 265.416 38.3233 266.466 39.7107C267.554 41.0982 269.016 41.7919 270.854 41.7919Z" fill="var(--fill-0, #5C5C5C)"/>
<path d="M307.536 74.9779C306.598 74.9779 306.13 74.5092 306.13 73.5717V14.5119C306.13 13.5744 306.598 13.1057 307.536 13.1057H316.085C316.798 13.1057 317.417 13.4244 317.942 14.0619L321.624 18.3079C322.6 19.4335 324.338 19.4607 325.349 18.3663L329.585 13.7806C329.997 13.3307 330.522 13.1057 331.16 13.1057H337.235C338.172 13.1057 338.641 13.5744 338.641 14.5119V26.6051C338.641 27.205 338.603 27.6175 338.528 27.8425C338.453 28.03 338.247 28.2362 337.909 28.4612L324.976 38.0051C324.337 38.4764 323.96 39.2229 323.96 40.0167V73.5717C323.96 74.5092 323.491 74.9779 322.554 74.9779H307.536Z" fill="var(--fill-0, #5C5C5C)"/>
<path d="M345.012 74.9779C344.074 74.9779 343.605 74.5092 343.605 73.5717V64.4596C343.605 63.5972 343.887 63.0347 344.449 62.7722L354.699 56.6926C355.458 56.2423 355.924 55.4251 355.924 54.5425V51.6087C355.924 50.6896 355.419 49.8445 354.61 49.4083L344.449 43.9293C343.887 43.5918 343.605 43.0106 343.605 42.1856V24.2427C343.605 23.8302 343.662 23.4927 343.774 23.2302C343.924 22.9677 344.13 22.7427 344.393 22.5552L356.374 13.7806C356.786 13.4806 357.124 13.2932 357.386 13.2182C357.649 13.1432 357.911 13.1057 358.174 13.1057H371.842C372.779 13.1057 373.248 13.5744 373.248 14.5119V23.3427C373.248 23.9802 373.192 24.4114 373.079 24.6364C373.004 24.8614 372.817 25.0489 372.517 25.1989L363.198 30.2277C362.39 30.6641 361.886 31.5089 361.886 32.4277V35.9089C361.886 36.8594 362.425 37.7277 363.277 38.1493L373.248 43.0856C373.885 43.3481 374.204 43.9105 374.204 44.773V62.041C374.204 62.9784 373.885 63.7284 373.248 64.2909L361.267 74.2467C360.667 74.7342 359.917 74.9779 359.017 74.9779H345.012Z" fill="var(--fill-0, #5C5C5C)"/>
</g>
</svg>
