<svg preserveAspectRatio="none" width="100%" height="100%" overflow="visible" style="display: block;" viewBox="0 0 149.682 29.9912" fill="none" xmlns="http://www.w3.org/2000/svg">
<g id="Answers">
<path d="M0.562475 29.9912C0.187492 29.9912 0 29.8037 0 29.4287V8.57212C0 8.37713 0.0749966 8.15214 0.22499 7.89715L5.55725 0.337485C5.72225 0.112495 5.96223 0 6.27722 0H13.7244C14.0544 0 14.2944 0.112495 14.4444 0.337485L19.7991 7.89715C19.9491 8.10714 20.0241 8.33213 20.0241 8.57212V29.4287C20.0241 29.8037 19.8366 29.9912 19.4616 29.9912H13.0944C12.7194 29.9912 12.5319 29.8037 12.5319 29.4287V20.8666C12.5319 20.3143 12.0842 19.8666 11.532 19.8666H8.51462C7.96236 19.8666 7.51467 20.3143 7.51467 20.8666V29.4287C7.51467 29.8037 7.32717 29.9912 6.95219 29.9912H0.562475ZM10.0121 15.0293C11.392 15.0293 12.322 14.7293 12.8019 14.1294C13.2969 13.5144 13.5444 12.3519 13.5444 10.642C13.5444 8.9321 13.2969 7.77715 12.8019 7.17718C12.322 6.56221 11.392 6.25472 10.0121 6.25472C8.64711 6.25472 7.71716 6.56221 7.22218 7.17718C6.7422 7.77715 6.50221 8.9321 6.50221 10.642C6.50221 12.3519 6.7422 13.5144 7.22218 14.1294C7.71716 14.7293 8.64711 15.0293 10.0121 15.0293Z" fill="var(--fill-0, #5C5C5C)"/>
<path d="M25.8556 29.9912C25.4806 29.9912 25.2931 29.8037 25.2931 29.4287V5.80474C25.2931 5.42976 25.4806 5.24227 25.8556 5.24227H37.8925C38.2375 5.24227 38.5375 5.36976 38.7925 5.62475L43.2923 10.1245C43.5473 10.3645 43.6748 10.6645 43.6748 11.0245V29.4287C43.6748 29.8037 43.4873 29.9912 43.1123 29.9912H37.1051C36.7301 29.9912 36.5426 29.8037 36.5426 29.4287V11.9245C36.5426 11.2195 36.1901 10.867 35.4851 10.867H33.4252C32.873 10.867 32.4253 11.3147 32.4253 11.867V29.4287C32.4253 29.8037 32.2378 29.9912 31.8628 29.9912H25.8556Z" fill="var(--fill-0, #5C5C5C)"/>
<path d="M48.7996 29.9912C48.4246 29.9912 48.2371 29.8037 48.2371 29.4287V25.7838C48.2371 25.4389 48.3496 25.2139 48.5746 25.1089L52.6746 22.677C52.9783 22.4969 53.1644 22.17 53.1644 21.817V20.6435C53.1644 20.2758 52.9627 19.9378 52.6391 19.7633L48.5746 17.5717C48.3496 17.4367 48.2371 17.2042 48.2371 16.8742V9.69707C48.2371 9.53207 48.2597 9.39708 48.3046 9.29208C48.3646 9.18709 48.4471 9.09709 48.5521 9.0221L53.3444 5.51225C53.5094 5.39226 53.6444 5.31726 53.7494 5.28726C53.8544 5.25727 53.9594 5.24227 54.0644 5.24227H59.5316C59.9066 5.24227 60.0941 5.42976 60.0941 5.80474V9.33708C60.0941 9.59207 60.0716 9.76456 60.0266 9.85456C59.9966 9.94456 59.9216 10.0196 59.8016 10.0795L56.0744 12.0911C55.7509 12.2656 55.5493 12.6035 55.5493 12.9711V14.3636C55.5493 14.7438 55.7649 15.0911 56.1056 15.2597L60.0941 17.2342C60.3491 17.3392 60.4766 17.5642 60.4766 17.9092V24.8164C60.4766 25.1914 60.3491 25.4914 60.0941 25.7164L55.3018 29.6987C55.0618 29.8937 54.7619 29.9912 54.4019 29.9912H48.7996Z" fill="var(--fill-0, #5C5C5C)"/>
<path d="M70.8184 29.9912C70.4734 29.9912 70.1734 29.8637 69.9184 29.6087L65.4186 25.1089C65.1637 24.8689 65.0362 24.5689 65.0362 24.2089V5.80474C65.0362 5.42976 65.2237 5.24227 65.5986 5.24227H71.6059C71.9809 5.24227 72.1683 5.42976 72.1683 5.80474V23.3665C72.1683 23.9187 72.616 24.3664 73.1683 24.3664H74.9257C75.478 24.3664 75.9257 23.9187 75.9257 23.3665V5.80474C75.9257 5.42976 76.1132 5.24227 76.4882 5.24227H82.4729C82.8479 5.24227 83.0354 5.42976 83.0354 5.80474V23.3665C83.0354 23.9187 83.4831 24.3664 84.0353 24.3664H85.7927C86.345 24.3664 86.7927 23.9187 86.7927 23.3665V5.80474C86.7927 5.42976 86.9802 5.24227 87.3552 5.24227H93.3624C93.7374 5.24227 93.9249 5.42976 93.9249 5.80474V24.2089C93.9249 24.5689 93.7974 24.8689 93.5424 25.1089L89.0426 29.6087C88.7876 29.8637 88.4876 29.9912 88.1426 29.9912H83.0129C82.6529 29.9912 82.3529 29.8637 82.1129 29.6087L80.2061 27.7019C79.8182 27.314 79.1903 27.311 78.7987 27.6951L76.8481 29.6087C76.6081 29.8637 76.3082 29.9912 75.9482 29.9912H70.8184Z" fill="var(--fill-0, #5C5C5C)"/>
<path d="M109.241 29.9912C109.091 29.9912 108.926 29.9687 108.746 29.9237C108.581 29.8787 108.424 29.8412 108.274 29.8112L104.269 28.8212L99.6794 27.2913C99.2294 27.1413 99.0044 26.7063 99.0044 25.9863V11.0245C99.0044 10.6645 99.1319 10.3645 99.3869 10.1245L103.887 5.62475C104.142 5.36976 104.442 5.24227 104.787 5.24227H111.986C112.331 5.24227 112.631 5.36976 112.886 5.62475L117.386 10.1245C117.641 10.3645 117.769 10.6645 117.769 11.0245V19.2491C117.769 19.8014 117.321 20.2491 116.769 20.2491H106.635C106.103 20.2491 105.665 20.6654 105.637 21.1965L105.569 22.4794C105.546 22.9294 105.826 23.3397 106.254 23.4813L108.486 24.2202C108.644 24.2725 108.808 24.3048 108.974 24.3165L114.461 24.7039C114.716 24.7489 114.844 24.9214 114.844 25.2214V29.4287C114.844 29.8037 114.656 29.9912 114.281 29.9912H109.241ZM108.341 16.7168H108.769C109.504 16.7168 110.089 16.4393 110.524 15.8843C110.974 15.3293 111.199 14.5793 111.199 13.6344V13.1844C111.199 12.2545 110.974 11.512 110.524 10.957C110.089 10.402 109.504 10.1245 108.769 10.1245H108.319C107.599 10.1245 107.022 10.402 106.587 10.957C106.167 11.512 105.957 12.2545 105.957 13.1844V13.6344C105.957 14.5793 106.167 15.3293 106.587 15.8843C107.022 16.4393 107.606 16.7168 108.341 16.7168Z" fill="var(--fill-0, #5C5C5C)"/>
<path d="M123.014 29.9912C122.639 29.9912 122.452 29.8037 122.452 29.4287V5.80474C122.452 5.42976 122.639 5.24227 123.014 5.24227H126.434C126.719 5.24227 126.967 5.36976 127.177 5.62475L128.65 7.32316C129.04 7.77339 129.735 7.78429 130.14 7.34652L131.834 5.51225C131.999 5.33226 132.209 5.24227 132.464 5.24227H134.894C135.269 5.24227 135.456 5.42976 135.456 5.80474V10.642C135.456 10.882 135.441 11.047 135.411 11.137C135.381 11.212 135.299 11.2945 135.164 11.3845L129.99 15.202C129.735 15.3906 129.584 15.6892 129.584 16.0067V29.4287C129.584 29.8037 129.397 29.9912 129.022 29.9912H123.014Z" fill="var(--fill-0, #5C5C5C)"/>
<path d="M138.005 29.9912C137.63 29.9912 137.442 29.8037 137.442 29.4287V25.7838C137.442 25.4389 137.555 25.2139 137.78 25.1089L141.88 22.677C142.183 22.4969 142.369 22.17 142.369 21.817V20.6435C142.369 20.2758 142.168 19.9378 141.844 19.7633L137.78 17.5717C137.555 17.4367 137.442 17.2042 137.442 16.8742V9.69707C137.442 9.53207 137.465 9.39708 137.51 9.29208C137.57 9.18709 137.652 9.09709 137.757 9.0221L142.549 5.51225C142.714 5.39226 142.849 5.31726 142.954 5.28726C143.059 5.25727 143.164 5.24227 143.269 5.24227H148.737C149.112 5.24227 149.299 5.42976 149.299 5.80474V9.33708C149.299 9.59207 149.277 9.76456 149.232 9.85456C149.202 9.94456 149.127 10.0196 149.007 10.0795L145.279 12.0911C144.956 12.2656 144.754 12.6035 144.754 12.9711V14.3636C144.754 14.7438 144.97 15.0911 145.311 15.2597L149.299 17.2342C149.554 17.3392 149.682 17.5642 149.682 17.9092V24.8164C149.682 25.1914 149.554 25.4914 149.299 25.7164L144.507 29.6987C144.267 29.8937 143.967 29.9912 143.607 29.9912H138.005Z" fill="var(--fill-0, #5C5C5C)"/>
</g>
</svg>
