<svg preserveAspectRatio="none" width="100%" height="100%" overflow="visible" style="display: block;" viewBox="0 0 75 75" fill="none" xmlns="http://www.w3.org/2000/svg">
<g id="Vector (1) 1" clip-path="url(#clip0_0_5)">
<path id="Vector" d="M74.9986 62.8469C74.9986 72.6569 65.0298 75 52.7329 75H15.2329C6.81925 75 -0.00144196 69.5588 -0.00144196 62.8469L4.68606 49.9126C4.68606 48.758 3.39164 49.9126 4.68606 49.9126C5.98048 49.9126 4.68606 48.758 4.68606 49.9126V59.3204C4.68606 65.6706 10.4574 70.8188 17.5767 70.8188H52.7329C62.4411 70.8188 70.3111 63.7988 70.3111 55.1392C70.3111 46.4796 62.4411 39.4596 52.7329 39.4596H16.4048C16.4048 40.6142 15.1104 39.4596 16.4048 39.4596C16.4048 38.3049 15.1104 39.4596 16.4048 39.4596L34.1396 35.2783H52.7329C65.0298 35.2783 74.9986 53.0373 74.9986 62.8469Z" fill="var(--fill-0, white)"/>
<path id="Vector_2" d="M-0.00144196 62.8502C-0.00144196 72.6602 9.96725 75.0033 22.2642 75.0033H59.7642C68.1779 75.0033 74.9986 69.5621 74.9986 62.8502L70.3111 49.8504C71.6054 49.8504 70.3111 48.6928 70.3111 49.8504C70.3111 48.6928 69.0167 49.8504 70.3111 49.8504V59.2828C70.3111 65.6496 64.5398 70.8114 57.4204 70.8114H22.2642C12.5561 70.8114 4.68606 63.7727 4.68606 55.0906C4.68606 46.4084 12.5561 39.37 22.2642 39.37H58.5923C59.8868 39.37 58.5923 40.5277 58.5923 39.37C59.8868 39.37 58.5923 38.2124 58.5923 39.37L49.6079 37.2739L40.6236 35.4346H22.2642C9.96725 35.4346 -0.00144196 53.0406 -0.00144196 62.8502Z" fill="var(--fill-0, white)"/>
<path id="Vector_3" d="M-0.00144196 11.9881C-0.00144196 2.31345 9.96725 0.00244141 22.2642 0.00244141H59.7642C68.1779 0.00244141 74.9986 5.3686 74.9986 11.9881L70.3111 25.0127C71.6054 25.0127 70.3111 26.1638 70.3111 25.0127C70.3111 26.1638 69.0167 25.0127 70.3111 25.0127V15.6339C70.3111 9.303 64.5398 4.17082 57.4204 4.17082H22.2642C12.5561 4.17082 4.68606 11.1693 4.68606 19.8023C4.68606 28.4353 12.5561 35.4337 22.2642 35.4337H58.5923C59.8868 35.4337 58.5923 34.2826 58.5923 35.4337C59.8868 35.4337 58.5923 36.5848 58.5923 35.4337L40.6236 39.1626L22.2642 39.3691C9.96725 39.3691 -0.00144196 21.6628 -0.00144196 11.9881Z" fill="var(--fill-0, white)"/>
<path id="Vector_4" d="M74.9986 11.9881C74.9986 2.31345 65.0298 0.00244141 52.7329 0.00244141H15.2329C6.81925 0.00244141 -0.00144196 5.3686 -0.00144196 11.9881L4.68606 24.8855C4.68606 26.0307 3.39164 24.8855 4.68606 24.8855C5.98048 24.8855 4.68606 26.0307 4.68606 24.8855V15.5544C4.68606 9.25569 10.4574 4.14962 17.5767 4.14962H52.7329C62.4411 4.14962 70.3111 11.1124 70.3111 19.7016C70.3111 28.2906 62.4411 35.2534 52.7329 35.2534H16.4048C16.4048 34.1083 15.1104 35.2534 16.4048 35.2534C16.4048 36.3987 15.1104 35.2534 16.4048 35.2534L34.4079 39.4006H52.7329C65.0298 39.4006 74.9986 21.6628 74.9986 11.9881Z" fill="var(--fill-0, white)"/>
</g>
<defs>
<clipPath id="clip0_0_5">
<rect width="75" height="75" fill="white"/>
</clipPath>
</defs>
</svg>
