<svg preserveAspectRatio="none" width="100%" height="100%" overflow="visible" style="display: block;" viewBox="0 0 30 30" fill="none" xmlns="http://www.w3.org/2000/svg">
<g id="Vector (1) 1" clip-path="url(#clip0_0_5)">
<path id="Vector" d="M30.0002 25.1384C30.0002 29.0624 26.0127 29.9996 21.094 29.9996H6.09396C2.72849 29.9996 0.000212097 27.8231 0.000212097 25.1384L1.87521 19.9647C1.87521 19.5028 1.35744 19.9647 1.87521 19.9647C2.39298 19.9647 1.87521 19.5028 1.87521 19.9647V23.7278C1.87521 26.2679 4.18374 28.3271 7.03146 28.3271H21.094C24.9772 28.3271 28.1252 25.5191 28.1252 22.0553C28.1252 18.5914 24.9772 15.7834 21.094 15.7834H6.56271C6.56271 16.2453 6.04494 15.7834 6.56271 15.7834C6.56271 15.3216 6.04494 15.7834 6.56271 15.7834L13.6566 14.1109H21.094C26.0127 14.1109 30.0002 21.2145 30.0002 25.1384Z" fill="var(--fill-0, white)"/>
<path id="Vector_2" d="M0.000212097 25.1397C0.000212097 29.0637 3.98769 30.0009 8.90646 30.0009H23.9065C27.272 30.0009 30.0002 27.8244 30.0002 25.1397L28.1252 19.9398C28.643 19.9398 28.1252 19.4767 28.1252 19.9398C28.1252 19.4767 27.6075 19.9398 28.1252 19.9398V23.7127C28.1252 26.2594 25.8167 28.3242 22.969 28.3242H8.90646C5.02321 28.3242 1.87521 25.5087 1.87521 22.0358C1.87521 18.563 5.02321 15.7476 8.90646 15.7476H23.4377C23.9555 15.7476 23.4377 16.2107 23.4377 15.7476C23.9555 15.7476 23.4377 15.2846 23.4377 15.7476L19.844 14.9092L16.2502 14.1734H8.90646C3.98769 14.1734 0.000212097 21.2159 0.000212097 25.1397Z" fill="var(--fill-0, white)"/>
<path id="Vector_3" d="M0.000212097 4.79506C0.000212097 0.925186 3.98769 0.00078125 8.90646 0.00078125H23.9065C27.272 0.00078125 30.0002 2.14725 30.0002 4.79506L28.1252 10.0049C28.643 10.0049 28.1252 10.4653 28.1252 10.0049C28.1252 10.4653 27.6075 10.0049 28.1252 10.0049V6.25336C28.1252 3.72101 25.8167 1.66813 22.969 1.66813H8.90646C5.02321 1.66813 1.87521 4.46751 1.87521 7.92071C1.87521 11.3739 5.02321 14.1733 8.90646 14.1733H23.4377C23.9555 14.1733 23.4377 13.7129 23.4377 14.1733C23.9555 14.1733 23.4377 14.6337 23.4377 14.1733L16.2502 15.6648L8.90646 15.7475C3.98769 15.7475 0.000212097 8.66491 0.000212097 4.79506Z" fill="var(--fill-0, white)"/>
<path id="Vector_4" d="M30.0002 4.79506C30.0002 0.925186 26.0127 0.00078125 21.094 0.00078125H6.09396C2.72849 0.00078125 0.000212097 2.14725 0.000212097 4.79506L1.87521 9.95401C1.87521 10.4121 1.35744 9.95401 1.87521 9.95401C2.39298 9.95401 1.87521 10.4121 1.87521 9.95401V6.22156C1.87521 3.70208 4.18374 1.65965 7.03146 1.65965H21.094C24.9772 1.65965 28.1252 4.44478 28.1252 7.88043C28.1252 11.3161 24.9772 14.1012 21.094 14.1012H6.56271C6.56271 13.6431 6.04494 14.1012 6.56271 14.1012C6.56271 14.5593 6.04494 14.1012 6.56271 14.1012L13.7639 15.7601H21.094C26.0127 15.7601 30.0002 8.66491 30.0002 4.79506Z" fill="var(--fill-0, white)"/>
</g>
<defs>
<clipPath id="clip0_0_5">
<rect width="30" height="30" fill="white"/>
</clipPath>
</defs>
</svg>
