<svg width="112" height="22" viewBox="0 0 112 22" fill="none" xmlns="http://www.w3.org/2000/svg">
<rect width="21.3328" height="21.3328" rx="5.3332" fill="#0C8CE9"/>
<g clip-path="url(#clip0_2470_7978)">
<path d="M18.6676 16.0726C18.6676 18.1653 16.5409 18.6652 13.9177 18.6652H5.91789C4.12301 18.6652 2.66797 17.5044 2.66797 16.0726L3.66794 13.3133C3.39181 13.3133 3.66794 13.067 3.66794 13.3133C3.66794 13.067 3.94408 13.3133 3.66794 13.3133V15.3202C3.66794 16.6749 4.89913 17.7732 6.41787 17.7732H13.9177C15.9887 17.7732 17.6676 16.2756 17.6676 14.4283C17.6676 12.5809 15.9887 11.0834 13.9177 11.0834H6.16788C5.89174 11.0834 6.16788 11.3297 6.16788 11.0834C5.89174 11.0834 6.16788 10.8371 6.16788 11.0834L9.9512 10.1914H13.9177C16.5409 10.1914 18.6676 13.9799 18.6676 16.0726Z" fill="white"/>
<path d="M2.66797 16.0731C2.66797 18.1659 4.79457 18.6657 7.41785 18.6657H15.4176C17.2125 18.6657 18.6676 17.505 18.6676 16.0731L17.6676 13.2999C17.6676 13.053 17.9437 13.2999 17.6676 13.2999C17.3915 13.2999 17.6676 13.053 17.6676 13.2999V15.3121C17.6676 16.6703 16.4364 17.7715 14.9177 17.7715H7.41785C5.34683 17.7715 3.66794 16.2699 3.66794 14.4178C3.66794 12.5656 5.34683 11.0641 7.41785 11.0641H15.1676C15.1676 11.3111 15.4438 11.0641 15.1676 11.0641C15.1676 10.8172 15.4438 11.0641 15.1676 11.0641L13.251 10.617L11.3344 10.2246H7.41785C4.79457 10.2246 2.66797 13.9805 2.66797 16.0731Z" fill="white"/>
<path d="M2.66797 5.22387C2.66797 3.16 4.79457 2.66699 7.41785 2.66699H15.4176C17.2125 2.66699 18.6676 3.81174 18.6676 5.22387L17.6676 8.00238C17.6676 8.24794 17.9437 8.00238 17.6676 8.00238C17.3915 8.00238 17.6676 8.24794 17.6676 8.00238V6.00161C17.6676 4.65106 16.4364 3.55622 14.9177 3.55622H7.41785C5.34683 3.55622 3.66794 5.04918 3.66794 6.89084C3.66794 8.7325 5.34683 10.2255 7.41785 10.2255H15.1676C15.1676 9.97991 15.4438 10.2255 15.1676 10.2255C15.1676 10.471 15.4438 10.2255 15.1676 10.2255L11.3344 11.0209L7.41785 11.065C4.79457 11.065 2.66797 7.28774 2.66797 5.22387Z" fill="white"/>
<path d="M18.6676 5.22387C18.6676 3.16 16.5409 2.66699 13.9177 2.66699H5.91789C4.12301 2.66699 2.66797 3.81174 2.66797 5.22387L3.66794 7.97524C3.39181 7.97524 3.66794 8.21954 3.66794 7.97524C3.66794 8.21954 3.94408 7.97524 3.66794 7.97524V5.98465C3.66794 4.64097 4.89913 3.5517 6.41787 3.5517H13.9177C15.9887 3.5517 17.6676 5.03707 17.6676 6.86937C17.6676 8.70165 15.9887 10.187 13.9177 10.187H6.16788C5.89174 10.187 6.16788 9.94271 6.16788 10.187C5.89174 10.187 6.16788 10.4313 6.16788 10.187L10.0084 11.0717H13.9177C16.5409 11.0717 18.6676 7.28774 18.6676 5.22387Z" fill="white"/>
</g>
<path d="M29.6396 18.8667C29.4346 18.8667 29.332 18.7642 29.332 18.5591V7.15355C29.332 7.04692 29.373 6.92388 29.4551 6.78444L32.3711 2.65038C32.4613 2.52734 32.5925 2.46582 32.7648 2.46582H36.8373C37.0178 2.46582 37.149 2.52734 37.231 2.65038L40.1593 6.78444C40.2414 6.89928 40.2824 7.02231 40.2824 7.15355V18.5591C40.2824 18.7642 40.1798 18.8667 39.9748 18.8667H36.4928C36.2878 18.8667 36.1852 18.7642 36.1852 18.5591V13.33H33.4415V18.5591C33.4415 18.7642 33.339 18.8667 33.1339 18.8667H29.6396ZM34.8072 10.6847C35.5618 10.6847 36.0704 10.5207 36.3329 10.1926C36.6036 9.85628 36.7389 9.22059 36.7389 8.2855C36.7389 7.35042 36.6036 6.71882 36.3329 6.39072C36.0704 6.05442 35.5618 5.88627 34.8072 5.88627C34.0608 5.88627 33.5522 6.05442 33.2815 6.39072C33.0191 6.71882 32.8878 7.35042 32.8878 8.2855C32.8878 9.22059 33.0191 9.85628 33.2815 10.1926C33.5522 10.5207 34.0608 10.6847 34.8072 10.6847Z" fill="#5C5C5C"/>
<path d="M43.4714 18.8667C43.2663 18.8667 43.1638 18.7642 43.1638 18.5591V5.64019C43.1638 5.43513 43.2663 5.3326 43.4714 5.3326H50.0539C50.2425 5.3326 50.4066 5.40232 50.546 5.54176L53.0068 8.00251C53.1462 8.13375 53.2159 8.2978 53.2159 8.49467V18.5591C53.2159 18.7642 53.1134 18.8667 52.9084 18.8667H49.6232C49.4182 18.8667 49.3157 18.7642 49.3157 18.5591V8.98682C49.3157 8.6013 49.1229 8.40854 48.7374 8.40854H47.0641V18.5591C47.0641 18.7642 46.9615 18.8667 46.7565 18.8667H43.4714Z" fill="#5C5C5C"/>
<path d="M56.0185 18.8667C55.8134 18.8667 55.7109 18.7642 55.7109 18.5591V16.5659C55.7109 16.3773 55.7724 16.2542 55.8955 16.1968L58.4054 14.7081V13.4285L55.8955 12.0751C55.7724 12.0012 55.7109 11.8741 55.7109 11.6936V7.76874C55.7109 7.67852 55.7232 7.60469 55.7478 7.54728C55.7806 7.48986 55.8258 7.44064 55.8832 7.39963L58.5039 5.48024C58.5941 5.41462 58.6679 5.37361 58.7253 5.35721C58.7828 5.3408 58.8402 5.3326 58.8976 5.3326H61.8874C62.0925 5.3326 62.195 5.43513 62.195 5.64019V7.57188C62.195 7.71133 62.1827 7.80565 62.1581 7.85487C62.1417 7.90408 62.1007 7.9451 62.0351 7.97791L59.7096 9.23289V10.6601L62.195 11.8905C62.3344 11.9479 62.4042 12.071 62.4042 12.2596V16.0369C62.4042 16.2419 62.3344 16.406 62.195 16.529L59.5743 18.7068C59.4431 18.8134 59.279 18.8667 59.0821 18.8667H56.0185Z" fill="#5C5C5C"/>
<path d="M68.0597 18.8667C67.871 18.8667 67.707 18.797 67.5675 18.6576L65.1068 16.1968C64.9673 16.0656 64.8976 15.9015 64.8976 15.7047V5.64019C64.8976 5.43513 65.0001 5.3326 65.2052 5.3326H68.4903C68.6954 5.3326 68.7979 5.43513 68.7979 5.64019V15.7908H70.8526V5.64019C70.8526 5.43513 70.9552 5.3326 71.1602 5.3326H74.433C74.6381 5.3326 74.7406 5.43513 74.7406 5.64019V15.7908H76.7953V5.64019C76.7953 5.43513 76.8979 5.3326 77.1029 5.3326H80.388C80.5931 5.3326 80.6956 5.43513 80.6956 5.64019V15.7047C80.6956 15.9015 80.6259 16.0656 80.4865 16.1968L78.0257 18.6576C77.8863 18.797 77.7222 18.8667 77.5336 18.8667H74.7283C74.5314 18.8667 74.3674 18.797 74.2362 18.6576L72.5751 16.9966H73.0181L71.3571 18.6576C71.2258 18.797 71.0618 18.8667 70.8649 18.8667H68.0597Z" fill="#5C5C5C"/>
<path d="M89.0716 18.8667C88.9896 18.8667 88.8994 18.8544 88.8009 18.8298C88.7107 18.8052 88.6246 18.7847 88.5426 18.7683L86.3525 18.2269L83.8425 17.3903C83.5964 17.3083 83.4734 17.0704 83.4734 16.6767V8.49467C83.4734 8.2978 83.5431 8.13375 83.6826 8.00251L86.1433 5.54176C86.2828 5.40232 86.4468 5.3326 86.6355 5.3326H90.5727C90.7613 5.3326 90.9254 5.40232 91.0648 5.54176L93.5256 8.00251C93.665 8.13375 93.7347 8.2978 93.7347 8.49467V13.5392H87.1276L87.0415 15.1756L88.7886 15.7539L91.9261 15.9754C92.0655 16 92.1353 16.0943 92.1353 16.2583V18.5591C92.1353 18.7642 92.0327 18.8667 91.8277 18.8667H89.0716ZM88.5795 11.6075H88.8132C89.2152 11.6075 89.5351 11.4558 89.7729 11.1523C90.019 10.8488 90.142 10.4387 90.142 9.9219V9.67583C90.142 9.16727 90.019 8.76125 89.7729 8.45775C89.5351 8.15426 89.2152 8.00251 88.8132 8.00251H88.5672C88.1734 8.00251 87.8576 8.15426 87.6198 8.45775C87.3901 8.76125 87.2753 9.16727 87.2753 9.67583V9.9219C87.2753 10.4387 87.3901 10.8488 87.6198 11.1523C87.8576 11.4558 88.1775 11.6075 88.5795 11.6075Z" fill="#5C5C5C"/>
<path d="M96.6034 18.8667C96.3984 18.8667 96.2958 18.7642 96.2958 18.5591V5.64019C96.2958 5.43513 96.3984 5.3326 96.6034 5.3326H98.4736C98.6295 5.3326 98.7648 5.40232 98.8796 5.54176L100.085 6.93209L101.427 5.48024C101.517 5.38181 101.632 5.3326 101.771 5.3326H103.1C103.305 5.3326 103.407 5.43513 103.407 5.64019V8.2855C103.407 8.41674 103.399 8.50697 103.383 8.55618C103.366 8.5972 103.321 8.64231 103.247 8.69153L100.196 10.9431V18.5591C100.196 18.7642 100.094 18.8667 99.8885 18.8667H96.6034Z" fill="#5C5C5C"/>
<path d="M104.801 18.8667C104.596 18.8667 104.493 18.7642 104.493 18.5591V16.5659C104.493 16.3773 104.555 16.2542 104.678 16.1968L107.188 14.7081V13.4285L104.678 12.0751C104.555 12.0012 104.493 11.8741 104.493 11.6936V7.76874C104.493 7.67852 104.506 7.60469 104.53 7.54728C104.563 7.48986 104.608 7.44064 104.666 7.39963L107.286 5.48024C107.377 5.41462 107.45 5.37361 107.508 5.35721C107.565 5.3408 107.623 5.3326 107.68 5.3326H110.67C110.875 5.3326 110.978 5.43513 110.978 5.64019V7.57188C110.978 7.71133 110.965 7.80565 110.941 7.85487C110.924 7.90408 110.883 7.9451 110.818 7.97791L108.492 9.23289V10.6601L110.978 11.8905C111.117 11.9479 111.187 12.071 111.187 12.2596V16.0369C111.187 16.2419 111.117 16.406 110.978 16.529L108.357 18.7068C108.226 18.8134 108.062 18.8667 107.865 18.8667H104.801Z" fill="#5C5C5C"/>
<defs>
<clipPath id="clip0_2470_7978">
<rect width="15.9996" height="15.9996" fill="white" transform="translate(2.66797 2.66699)"/>
</clipPath>
</defs>
</svg>
