<svg width="16" height="16" viewBox="0 0 16 16" fill="none" xmlns="http://www.w3.org/2000/svg">
<path d="M14.8571 8C14.8571 4.2129 11.7871 1.14286 8 1.14286C4.2129 1.14286 1.14286 4.2129 1.14286 8C1.14286 11.7871 4.2129 14.8571 8 14.8571V16L7.58817 15.99C3.49767 15.7825 0.21746 12.5023 0.0100446 8.41183L0 8C0 3.58172 3.58172 0 8 0L8.41183 0.0100446C12.6387 0.224376 16 3.71984 16 8L15.99 8.41183C15.7756 12.6387 12.2802 16 8 16V14.8571C11.7871 14.8571 14.8571 11.7871 14.8571 8Z" fill="black" fill-opacity="0.8"/>
<path d="M8.85714 8C8.85714 7.52661 8.47339 7.14286 8 7.14286C7.52661 7.14286 7.14286 7.52661 7.14286 8C7.14286 8.47339 7.52661 8.85714 8 8.85714V10C6.89543 10 6 9.10457 6 8C6 6.89543 6.89543 6 8 6C9.10457 6 10 6.89543 10 8C10 9.10457 9.10457 10 8 10V8.85714C8.47339 8.85714 8.85714 8.47339 8.85714 8Z" fill="black" fill-opacity="0.8"/>
<path d="M8.33259 10.7619C9.43996 10.7619 10.5122 11.1614 11.3103 11.8869C12.11 12.6141 12.5714 13.613 12.5714 14.667H11.4286C11.4286 13.9531 11.1166 13.256 10.5413 12.7329C9.96409 12.2082 9.17015 11.9048 8.33259 11.9048C7.49517 11.9049 6.70212 12.2082 6.125 12.7329C5.54961 13.256 5.23772 13.9531 5.23772 14.667H4.09487C4.09487 13.6129 4.55616 12.6141 5.35603 11.8869C6.15399 11.1615 7.22538 10.762 8.33259 10.7619Z" fill="black" fill-opacity="0.8"/>
</svg>
