<svg width="24" height="24" viewBox="0 0 24 24" fill="none" xmlns="http://www.w3.org/2000/svg">
<path d="M14.5403 0.0274525C17.3275 0.662956 19.6007 2.09716 21.3599 4.33006C23.12 6.56114 24 9.11953 24 12.0052C24 14.8909 23.1159 17.4479 21.3477 19.6763C19.5787 21.9064 17.3095 23.3384 14.5403 23.972C14.3209 24.033 14.1302 23.9943 13.9683 23.8561C13.8065 23.7179 13.7255 23.5325 13.7255 23.2997C13.7255 23.1379 13.7696 22.9974 13.8577 22.8783C13.945 22.7592 14.0655 22.6833 14.2193 22.6506C16.6926 22.0824 18.7162 20.8095 20.2901 18.8321C21.864 16.8547 22.6509 14.5818 22.6509 12.0134C22.6509 9.445 21.864 7.1721 20.2901 5.19467C18.7162 3.21725 16.6926 1.94442 14.2193 1.3762C14.0601 1.32528 13.9382 1.23846 13.8537 1.11572C13.7691 0.992985 13.7269 0.853426 13.7269 0.69705C13.7269 0.473396 13.8078 0.290653 13.9697 0.148825C14.1316 0.00699615 14.3218 -0.0334606 14.5403 0.0274525ZM9.1751 0.0547295C9.37746 -0.00709343 9.56408 0.029726 9.73497 0.165192C9.90585 0.300657 9.99129 0.481125 9.99129 0.706596C9.99129 0.86479 9.95307 1.00299 9.87662 1.12118C9.80017 1.24028 9.68235 1.32528 9.52316 1.3762C8.91159 1.51257 8.3171 1.70031 7.7397 1.93942C7.1623 2.17853 6.61278 2.4681 6.09114 2.80812C5.96522 2.88449 5.82807 2.91177 5.67967 2.88995C5.53218 2.86631 5.40356 2.79721 5.29384 2.68266C5.14095 2.52174 5.07799 2.3399 5.10497 2.13716C5.13285 1.93533 5.23178 1.77077 5.40177 1.64349C5.98546 1.2771 6.59434 0.961163 7.2284 0.695686C7.86246 0.43021 8.51046 0.21656 9.1751 0.0547295ZM2.64427 5.35969C2.754 5.47697 2.8183 5.60607 2.83719 5.74699C2.85698 5.88791 2.82864 6.02201 2.7522 6.14929C2.41493 6.66752 2.12803 7.22029 1.89149 7.8076C1.65496 8.39492 1.46968 8.9927 1.33568 9.60093C1.3024 9.75912 1.22505 9.88049 1.10364 9.96505C0.982222 10.0496 0.84417 10.0919 0.689476 10.0919C0.468229 10.0919 0.287453 10.0101 0.14715 9.8464C0.00774574 9.68275 -0.031826 9.49001 0.0284328 9.26817C0.189421 8.59539 0.400774 7.93898 0.662493 7.29893C0.925112 6.65797 1.23764 6.04247 1.60009 5.45242C1.72601 5.28059 1.89329 5.18058 2.10195 5.1524C2.3106 5.12421 2.49138 5.19422 2.64427 5.35969ZM0.685429 13.9022C0.850914 13.9022 0.992565 13.9404 1.11038 14.0167C1.2273 14.094 1.3024 14.2131 1.33568 14.374C1.47418 14.9877 1.66485 15.5841 1.90768 16.1633C2.15051 16.7424 2.43202 17.3024 2.7522 17.8434C2.84573 17.9761 2.87856 18.117 2.85068 18.2661C2.8237 18.4162 2.7549 18.5466 2.64427 18.6575C2.49138 18.8121 2.31015 18.8785 2.1006 18.8566C1.89194 18.8339 1.72556 18.7285 1.60144 18.5403C1.2381 17.9511 0.92556 17.3356 0.663841 16.6938C0.401222 16.0528 0.189421 15.3964 0.0284328 14.7245C-0.031826 14.5209 0.00369835 14.3327 0.135008 14.1599C0.266317 13.9872 0.449791 13.9022 0.685429 13.9022ZM6.09114 21.2186C6.60828 21.5596 7.1533 21.8496 7.72621 22.0887C8.29911 22.3278 8.88955 22.5151 9.49753 22.6506C9.65043 22.6842 9.77094 22.7624 9.85908 22.8851C9.94722 23.0079 9.99084 23.1474 9.98994 23.3038C9.98994 23.5275 9.909 23.7102 9.74711 23.852C9.58522 23.993 9.395 24.033 9.17645 23.972C8.50372 23.8084 7.85167 23.6002 7.22031 23.3475C6.58895 23.0947 5.98276 22.7733 5.40177 22.3833C5.22639 22.256 5.12521 22.091 5.09822 21.8882C5.07034 21.6864 5.1333 21.5028 5.28709 21.3373C5.39592 21.2191 5.52408 21.1464 5.67158 21.1191C5.81997 21.0918 5.95983 21.125 6.09114 21.2186ZM11.1906 8.7745L7.50226 12.503C7.35386 12.6539 7.19198 12.7294 7.0166 12.7294C6.84122 12.7294 6.67978 12.6539 6.53228 12.503C6.38299 12.353 6.30969 12.1898 6.31239 12.0134C6.31508 11.837 6.39108 11.6734 6.54038 11.5224L11.1043 6.91026C11.3165 6.69479 11.5706 6.58706 11.8665 6.58706C12.1624 6.58706 12.4165 6.69479 12.6287 6.91026L17.2088 11.547C17.3572 11.697 17.43 11.8588 17.4273 12.0325C17.4246 12.207 17.3491 12.3693 17.2007 12.5193C17.0514 12.6693 16.8909 12.7444 16.7191 12.7444C16.5473 12.7444 16.3868 12.6693 16.2375 12.5193L12.541 8.7745V17.2065C12.541 17.3993 12.4763 17.5611 12.3468 17.692C12.2173 17.8229 12.0567 17.8884 11.8651 17.8884C11.6736 17.8884 11.5135 17.8229 11.3849 17.692C11.2563 17.5611 11.192 17.3993 11.192 17.2065L11.1906 8.7745Z" fill="#0C8CE9"/>
</svg>
