<svg width="17" height="17" viewBox="0 0 17 17" fill="none" xmlns="http://www.w3.org/2000/svg">
<path d="M0.5 5.07143H16.5M5.07143 0.5V16.5M1.64286 0.5H15.3571C15.6602 0.5 15.9509 0.620408 16.1653 0.834735C16.3796 1.04906 16.5 1.33975 16.5 1.64286V15.3571C16.5 15.6602 16.3796 15.9509 16.1653 16.1653C15.9509 16.3796 15.6602 16.5 15.3571 16.5H1.64286C1.33975 16.5 1.04906 16.3796 0.834735 16.1653C0.620408 15.9509 0.5 15.6602 0.5 15.3571V1.64286C0.5 1.33975 0.620408 1.04906 0.834735 0.834735C1.04906 0.620408 1.33975 0.5 1.64286 0.5Z" stroke="#0C8CE9"/>
</svg>
