<svg width="65" height="53" viewBox="0 0 65 53" fill="none" xmlns="http://www.w3.org/2000/svg">
<path d="M60.1409 13.5C60.8125 13.4999 61.475 13.654 62.0767 13.9505C62.6785 14.2469 63.2032 14.6777 63.6099 15.209C64.0166 15.7404 64.2943 16.358 64.4213 17.0137C64.5484 17.6693 64.5213 18.3453 64.3422 18.9889L55.867 49.3222C55.6133 50.234 55.0664 51.0382 54.3099 51.612C53.5534 52.1858 52.6288 52.4977 51.6774 52.5H4.86199C4.19018 52.5006 3.52734 52.3467 2.92522 52.0505C2.32311 51.7542 1.79803 51.3236 1.391 50.7921C0.983965 50.2607 0.706 49.6429 0.578815 48.9871C0.451629 48.3312 0.478667 47.6549 0.657815 47.0111L10.5073 16.6778C10.7615 15.7641 11.3101 14.9585 12.069 14.3845C12.8278 13.8105 13.7551 13.4998 14.7085 13.5H60.1409Z" fill="#0C8CE9"/>
<path d="M0.503826 48.1667L0.503826 4.83334C0.503826 3.68406 0.962989 2.58186 1.7803 1.76921C2.59762 0.956551 3.70613 0.5 4.86199 0.5H50.6227C51.7785 0.5 52.8871 0.956551 53.7044 1.76921C54.5217 2.58186 54.9809 3.68406 54.9809 4.83334V13.5" fill="#0C8CE9"/>
<path d="M0.503826 48.1667L0.503826 4.83334C0.503826 3.68406 0.962989 2.58186 1.7803 1.76921C2.59762 0.956549 3.70613 0.5 4.86199 0.5H50.6227C51.7786 0.5 52.8871 0.956549 53.7044 1.76921C54.5217 2.58186 54.9809 3.68406 54.9809 4.83334V13.5M60.1409 13.5C60.8125 13.4999 61.475 13.654 62.0767 13.9505C62.6785 14.2469 63.2032 14.6776 63.6099 15.209C64.0166 15.7404 64.2943 16.358 64.4213 17.0137C64.5484 17.6693 64.5213 18.3453 64.3422 18.9889L55.867 49.3222C55.6133 50.234 55.0664 51.0382 54.3099 51.612C53.5534 52.1858 52.6289 52.4977 51.6774 52.5H4.86199C4.19018 52.5006 3.52734 52.3467 2.92522 52.0505C2.32311 51.7542 1.79803 51.3236 1.391 50.7921C0.983965 50.2607 0.706 49.6429 0.578815 48.9871C0.451629 48.3312 0.478667 47.6549 0.657815 47.0111L10.5073 16.6778C10.7615 15.7641 11.3101 14.9585 12.069 14.3845C12.8278 13.8105 13.7551 13.4998 14.7085 13.5H60.1409Z" stroke="white" stroke-linecap="round" stroke-linejoin="round"/>
</svg>
