<svg width="17" height="14" viewBox="0 0 17 14" fill="none" xmlns="http://www.w3.org/2000/svg">
<path d="M0.500957 12.4167V1.58333C0.500957 1.29602 0.615747 1.02047 0.820076 0.817302C1.0244 0.614137 1.30153 0.5 1.5905 0.5H13.0307C13.3196 0.5 13.5968 0.614137 13.8011 0.817302C14.0054 1.02047 14.1202 1.29602 14.1202 1.58333V3.75M15.4102 3.75C15.5781 3.74996 15.7437 3.78851 15.8942 3.86262C16.0446 3.93673 16.1758 4.04441 16.2775 4.17725C16.3791 4.31009 16.4486 4.46449 16.4803 4.62841C16.5121 4.79233 16.5053 4.96133 16.4605 5.12222L14.3418 12.7056C14.2783 12.9335 14.1416 13.1346 13.9525 13.278C13.7634 13.4215 13.5322 13.4994 13.2943 13.5H1.5905C1.42255 13.5001 1.25683 13.4617 1.10631 13.3876C0.955777 13.3136 0.824507 13.2059 0.722749 13.073C0.620991 12.9402 0.5515 12.7857 0.519704 12.6218C0.487907 12.4578 0.494667 12.2887 0.539454 12.1278L3.00182 4.54444C3.06538 4.31602 3.20253 4.11462 3.39224 3.97112C3.58196 3.82763 3.81377 3.74995 4.05213 3.75H15.4102Z" stroke="#0C8CE9" stroke-linecap="round" stroke-linejoin="round"/>
</svg>
