<svg width="14" height="17" viewBox="0 0 14 17" fill="none" xmlns="http://www.w3.org/2000/svg">
<path d="M1.58333 0.500957H12.4167C12.704 0.500957 12.9795 0.615747 13.1827 0.820076C13.3859 1.0244 13.5 1.30153 13.5 1.5905V13.0307C13.5 13.3196 13.3859 13.5968 13.1827 13.8011C12.9795 14.0054 12.704 14.1202 12.4167 14.1202H10.25M10.25 15.4102C10.25 15.5781 10.2115 15.7437 10.1374 15.8942C10.0633 16.0446 9.95559 16.1758 9.82275 16.2775C9.68991 16.3791 9.53551 16.4486 9.37159 16.4803C9.20767 16.5121 9.03867 16.5053 8.87778 16.4605L1.29444 14.3418C1.06649 14.2783 0.865446 14.1416 0.721997 13.9525C0.578548 13.7634 0.500581 13.5322 0.5 13.2943V1.5905C0.499854 1.42255 0.538315 1.25683 0.612381 1.10631C0.686447 0.955777 0.794111 0.824507 0.926964 0.722749C1.05982 0.620991 1.21426 0.5515 1.37824 0.519704C1.54221 0.487907 1.71128 0.494667 1.87222 0.539454L9.45556 3.00182C9.68398 3.06538 9.88538 3.20253 10.0289 3.39224C10.1724 3.58196 10.2501 3.81377 10.25 4.05213V15.4102Z" stroke="white" stroke-linecap="round" stroke-linejoin="round"/>
</svg>
