<svg width="16" height="14" viewBox="0 0 16 14" fill="none" xmlns="http://www.w3.org/2000/svg">
<path d="M1.43644 14C1.02696 14 0.685333 13.846 0.411556 13.538C0.137778 13.23 0.000592593 12.8453 0 12.384V1.616C0 1.15533 0.137185 0.771 0.411556 0.463C0.685926 0.155 1.02726 0.000666667 1.43556 0H5.26667C5.45807 0 5.64415 0.0433334 5.82489 0.13C6.00563 0.218 6.1603 0.334333 6.28889 0.479L7.64089 2H14.5644C14.9733 2 15.315 2.15433 15.5893 2.463C15.8637 2.77167 16.0006 3.156 16 3.616V12.385C16 12.845 15.8631 13.2293 15.5893 13.538C15.3156 13.8467 14.9739 14.0007 14.5644 14H1.43644ZM1.43644 13H14.5644C14.7239 13 14.8548 12.9423 14.9573 12.827C15.0598 12.7117 15.1111 12.5643 15.1111 12.385V3.615C15.1111 3.43567 15.0598 3.28833 14.9573 3.173C14.8548 3.05767 14.7239 3 14.5644 3H7.28444L5.65867 1.173C5.60178 1.109 5.54192 1.06433 5.47911 1.039C5.41748 1.013 5.35289 1 5.28533 1H1.43644C1.27704 1 1.14607 1.05767 1.04356 1.173C0.941037 1.28833 0.889481 1.436 0.888889 1.616V12.385C0.888889 12.5643 0.940148 12.7117 1.04267 12.827C1.14518 12.9423 1.27644 13 1.43644 13Z" fill="#0C8CE9"/>
</svg>
