<svg width="17" height="17" viewBox="0 0 17 17" fill="none" xmlns="http://www.w3.org/2000/svg">
<path d="M16.25 4.17L8.25 0.25L0.25 4.17M16.25 4.17V6.19508H0.25V4.17M16.25 4.17H11.21M0.25 4.17H5.29M5.72546 6.19508V14.0368M3.90405 6.19508V14.0368M2.08308 6.19508V14.0368M10.7745 14.0368V6.19508M12.5959 14.0368V6.19508M14.4169 14.0368V6.19508M0.25 14.0368H16.25V16.25H0.25V14.0368ZM9.41584 3.32676C9.41584 3.97063 8.89387 4.49259 8.25 4.49259C7.60613 4.49259 7.08416 3.97063 7.08416 3.32676C7.08416 2.68288 7.60613 2.16092 8.25 2.16092C8.89387 2.16092 9.41584 2.68288 9.41584 3.32676Z" stroke="black" stroke-width="0.5" stroke-linecap="round" stroke-linejoin="round"/>
</svg>
