<svg width="308" height="56" viewBox="0 0 308 56" fill="none" xmlns="http://www.w3.org/2000/svg">
<circle cx="1" cy="1" r="1" fill="#404040" fill-opacity="0.25"/>
<circle cx="35" cy="1" r="1" fill="#404040" fill-opacity="0.25"/>
<circle cx="69" cy="1" r="1" fill="#404040" fill-opacity="0.25"/>
<circle cx="103" cy="1" r="1" fill="#404040" fill-opacity="0.25"/>
<circle cx="137" cy="1" r="1" fill="#404040" fill-opacity="0.25"/>
<circle cx="171" cy="1" r="1" fill="#404040" fill-opacity="0.25"/>
<circle cx="205" cy="1" r="1" fill="#404040" fill-opacity="0.25"/>
<circle cx="239" cy="1" r="1" fill="#404040" fill-opacity="0.25"/>
<circle cx="273" cy="1" r="1" fill="#404040" fill-opacity="0.25"/>
<circle cx="307" cy="1" r="1" fill="#404040" fill-opacity="0.25"/>
<circle cx="1" cy="19" r="1" fill="#404040" fill-opacity="0.25"/>
<circle cx="35" cy="19" r="1" fill="#404040" fill-opacity="0.25"/>
<circle cx="69" cy="19" r="1" fill="#404040" fill-opacity="0.25"/>
<circle cx="103" cy="19" r="1" fill="#404040" fill-opacity="0.25"/>
<circle cx="137" cy="19" r="1" fill="#404040" fill-opacity="0.25"/>
<circle cx="171" cy="19" r="1" fill="#404040" fill-opacity="0.25"/>
<circle cx="205" cy="19" r="1" fill="#404040" fill-opacity="0.25"/>
<circle cx="239" cy="19" r="1" fill="#404040" fill-opacity="0.25"/>
<circle cx="273" cy="19" r="1" fill="#404040" fill-opacity="0.25"/>
<circle cx="307" cy="19" r="1" fill="#404040" fill-opacity="0.25"/>
<circle cx="1" cy="37" r="1" fill="#404040" fill-opacity="0.25"/>
<circle cx="35" cy="37" r="1" fill="#404040" fill-opacity="0.25"/>
<circle cx="69" cy="37" r="1" fill="#404040" fill-opacity="0.25"/>
<circle cx="103" cy="37" r="1" fill="#404040" fill-opacity="0.25"/>
<circle cx="137" cy="37" r="1" fill="#404040" fill-opacity="0.25"/>
<circle cx="171" cy="37" r="1" fill="#404040" fill-opacity="0.25"/>
<circle cx="205" cy="37" r="1" fill="#404040" fill-opacity="0.25"/>
<circle cx="239" cy="37" r="1" fill="#404040" fill-opacity="0.25"/>
<circle cx="273" cy="37" r="1" fill="#404040" fill-opacity="0.25"/>
<circle cx="307" cy="37" r="1" fill="#404040" fill-opacity="0.25"/>
<circle cx="1" cy="55" r="1" fill="#404040" fill-opacity="0.25"/>
<circle cx="35" cy="55" r="1" fill="#404040" fill-opacity="0.25"/>
<circle cx="69" cy="55" r="1" fill="#404040" fill-opacity="0.25"/>
<circle cx="103" cy="55" r="1" fill="#404040" fill-opacity="0.25"/>
<circle cx="137" cy="55" r="1" fill="#404040" fill-opacity="0.25"/>
<circle cx="171" cy="55" r="1" fill="#404040" fill-opacity="0.25"/>
<circle cx="205" cy="55" r="1" fill="#404040" fill-opacity="0.25"/>
<circle cx="239" cy="55" r="1" fill="#404040" fill-opacity="0.25"/>
<circle cx="273" cy="55" r="1" fill="#404040" fill-opacity="0.25"/>
<circle cx="307" cy="55" r="1" fill="#404040" fill-opacity="0.25"/>
</svg>
