<svg width="17" height="17" viewBox="0 0 17 17" fill="none" xmlns="http://www.w3.org/2000/svg">
<path d="M2.53571 2.91667L5.20238 0.25M2.53571 5.20238L5.20238 7.86905H2.53571V0.25H16.25V7.86905H10.1548M16.25 2.91667L13.5833 0.25M16.25 5.20238L13.5833 7.86905M2.15476 16.25L6.34524 13.9643H11.6786L15.869 11.6786L15.4881 10.5357L11.6786 11.2976L6.72619 10.9167L8.25 9.0119L7.86905 7.86905L4.05952 10.1548L2.15476 12.4405L0.25 13.2024" stroke="black" stroke-width="0.5" stroke-miterlimit="10" stroke-linecap="round" stroke-linejoin="round"/>
<path d="M10.1548 2.53583H8.63095L8.25 3.29774L8.63095 4.05964H10.1548L10.5357 4.82154L10.1548 5.58345H8.63095M9.39286 2.53583V1.77393M9.39286 6.34535V5.58345" stroke="black" stroke-width="0.5" stroke-miterlimit="10" stroke-linecap="round" stroke-linejoin="round"/>
</svg>
