<svg width="16" height="10" viewBox="0 0 16 10" fill="none" xmlns="http://www.w3.org/2000/svg">
<path d="M15.1653 1.08232H2.60891C2.49219 0.466881 1.95813 0 1.31703 0C0.590815 0 3.35052e-05 0.598503 3.35052e-05 1.33407C0.00306475 7.74651 -0.00265399 8.64548 0.00172101 8.73456C0.0361273 9.43233 0.652471 10 1.37538 10H10.6812C11.1413 10 11.5159 9.62077 11.5159 9.15459V8.91917H15.1653C15.6255 8.91917 16 8.53994 16 8.07376V1.92773C16 1.46158 15.6255 1.08232 15.1653 1.08232ZM0.499971 1.33407C0.499971 0.877669 0.866408 0.506481 1.31697 0.506481C1.76719 0.506481 2.13328 0.877131 2.13388 1.33306L2.13338 1.33559V7.61995C1.90878 7.4397 1.62506 7.33189 1.31697 7.33189C1.00935 7.33189 0.717971 7.44499 0.499971 7.62036V1.33407ZM11.0158 9.15462C11.0158 9.34145 10.8657 9.49355 10.6811 9.49355H1.37535C0.914659 9.49355 0.52244 9.14177 0.500971 8.70933C0.478002 8.24352 0.851127 7.83831 1.317 7.83831C1.7655 7.83831 2.13006 8.20626 2.13341 8.65982V8.66593C2.13341 8.80578 2.24535 8.91917 2.38341 8.91917H11.0159L11.0158 9.15462ZM15.5 8.07379C15.5 8.26062 15.3498 8.41272 15.1653 8.41272H2.63406V1.58883H15.1653C15.3498 1.58883 15.5 1.74093 15.5 1.92776V8.07379ZM3.58178 4.47809C3.58178 4.33823 3.69372 4.22485 3.83178 4.22485H5.2306C5.36866 4.22485 5.4806 4.33823 5.4806 4.47809C5.4806 4.61794 5.36866 4.73133 5.2306 4.73133H3.83178C3.69369 4.73133 3.58178 4.61791 3.58178 4.47809ZM9.73022 5.66674C9.73022 5.80659 9.61828 5.91998 9.48022 5.91998H3.83178C3.69372 5.91998 3.58178 5.80659 3.58178 5.66674C3.58178 5.52688 3.69372 5.4135 3.83178 5.4135H9.48022C9.61828 5.41353 9.73022 5.52692 9.73022 5.66674ZM9.73022 7.16899C9.73022 7.30884 9.61828 7.42223 9.48022 7.42223H3.83178C3.69372 7.42223 3.58178 7.30884 3.58178 7.16899C3.58178 7.02914 3.69372 6.91575 3.83178 6.91575H9.48022C9.61828 6.91578 9.73022 7.02917 9.73022 7.16899ZM13.6981 2.57926H10.0837C9.61316 2.57926 9.23019 2.96716 9.23019 3.44385C9.23019 3.92051 9.61313 4.30832 10.0837 4.30832H13.6981C14.1687 4.30832 14.5516 3.92058 14.5516 3.44385C14.5516 2.96719 14.1687 2.57926 13.6981 2.57926ZM13.6981 3.80181H10.0837C9.88878 3.80181 9.73019 3.64119 9.73019 3.44385C9.73019 3.24639 9.88875 3.08574 10.0837 3.08574H13.6981C13.893 3.08574 14.0516 3.24636 14.0516 3.44385C14.0516 3.64119 13.8931 3.80181 13.6981 3.80181ZM14.5516 7.16899C14.5516 7.30884 14.4397 7.42223 14.3016 7.42223H11.3364C11.1983 7.42223 11.0864 7.30884 11.0864 7.16899C11.0864 7.02914 11.1983 6.91575 11.3364 6.91575H14.3016C14.4397 6.91578 14.5516 7.02917 14.5516 7.16899Z" fill="black"/>
</svg>
