<svg width="64" height="65" viewBox="0 0 64 65" fill="none" xmlns="http://www.w3.org/2000/svg">
<path d="M52.2164 18.5049L52.4764 18.7523C52.9595 19.2095 53.3426 19.7523 53.6041 20.3497C53.8655 20.9472 54 21.5875 54 22.2342V59.5769C54 60.2234 53.8655 60.8636 53.6042 61.4609C53.3428 62.0582 52.9598 62.6009 52.477 63.0581C51.9941 63.5152 51.4208 63.8778 50.79 64.1253C50.1591 64.3727 49.4829 64.5 48.8 64.5H7.2C5.82087 64.5 4.49823 63.9813 3.52305 63.0581C2.54786 62.1348 2 60.8826 2 59.5769V5.42308C2 4.1174 2.54786 2.86519 3.52305 1.94194C4.49823 1.01868 5.82087 0.5 7.2 0.5L31.0446 0.503693C32.4234 0.503645 33.7458 1.02205 34.721 1.94492L34.9589 2.17138" fill="white"/>
<path d="M52.1618 18.452L35.0382 2.2415C34.8877 2.0988 34.6959 2.00156 34.4871 1.96209C34.2782 1.92263 34.0617 1.94271 33.8649 2.01979C33.6681 2.09687 33.4999 2.2275 33.3815 2.39513C33.2632 2.56276 33.2 2.75987 33.2 2.9615V15.2692C33.2 16.5749 33.7479 17.8271 34.723 18.7503C35.6982 19.6736 37.0209 20.1923 38.4 20.1923H51.4C51.6131 20.1925 51.8215 20.1329 51.9987 20.0209C52.176 19.909 52.3141 19.7497 52.3957 19.5633C52.4773 19.377 52.4986 19.1719 52.457 18.974C52.4153 18.7762 52.3126 18.5945 52.1618 18.452Z" fill="white"/>
<path d="M52.2164 18.5049L52.4764 18.7523C52.9595 19.2095 53.3426 19.7523 53.6041 20.3497C53.8655 20.9472 54 21.5875 54 22.2342V59.5769C54 60.2234 53.8655 60.8636 53.6042 61.4609C53.3428 62.0582 52.9598 62.6009 52.477 63.0581C51.9941 63.5152 51.4208 63.8778 50.79 64.1253C50.1591 64.3727 49.4829 64.5 48.8 64.5H7.2C5.82087 64.5 4.49823 63.9813 3.52305 63.0581C2.54786 62.1348 2 60.8826 2 59.5769V5.42308C2 4.1174 2.54786 2.86519 3.52305 1.94194C4.49823 1.01868 5.82087 0.5 7.2 0.5L31.0446 0.503693C32.4234 0.503645 33.7458 1.02205 34.721 1.94492L34.9589 2.17138M52.1618 18.452L35.0382 2.2415C34.8877 2.0988 34.6959 2.00156 34.4871 1.96209C34.2782 1.92263 34.0617 1.94271 33.8649 2.01979C33.6681 2.09687 33.4999 2.2275 33.3815 2.39513C33.2632 2.56276 33.2 2.75987 33.2 2.9615V15.2692C33.2 16.5749 33.7479 17.8271 34.723 18.7503C35.6982 19.6736 37.0209 20.1923 38.4 20.1923H51.4C51.6131 20.1925 51.8215 20.1329 51.9987 20.0209C52.176 19.909 52.3141 19.7497 52.3957 19.5633C52.4773 19.377 52.4986 19.1719 52.457 18.974C52.4153 18.7762 52.3126 18.5945 52.1618 18.452Z" stroke="#3C8A39" stroke-linecap="round" stroke-linejoin="round"/>
<path d="M10.616 33.5C10.1553 33.5 9.771 33.346 9.463 33.038C9.155 32.73 9.00067 32.3453 9 31.884V19.116C9 18.6553 9.15433 18.271 9.463 17.963C9.77167 17.655 10.156 17.5007 10.616 17.5H23.385C23.845 17.5 24.2293 17.6543 24.538 17.963C24.8467 18.2717 25.0007 18.656 25 19.116V31.885C25 32.345 24.846 32.7293 24.538 33.038C24.23 33.3467 23.8453 33.5007 23.384 33.5H10.616ZM16.5 27.904H10V31.884C10 32.064 10.0577 32.2117 10.173 32.327C10.2883 32.4423 10.436 32.5 10.616 32.5H16.5V27.904ZM17.5 27.904V32.5H23.385C23.5643 32.5 23.7117 32.4423 23.827 32.327C23.9423 32.2117 24 32.0643 24 31.885V27.904H17.5ZM16.5 26.904V22.269H10V26.904H16.5ZM17.5 26.904H24V22.269H17.5V26.904ZM10 21.269H24V19.115C24 18.9357 23.9423 18.7883 23.827 18.673C23.7117 18.5577 23.5643 18.5 23.385 18.5H10.615C10.4357 18.5 10.2883 18.5577 10.173 18.673C10.0577 18.7883 10 18.936 10 19.116V21.269Z" fill="#3C8A39" fill-opacity="0.5"/>
<rect x="6.5" y="30" width="57" height="23" rx="7.5" fill="#3C8A39"/>
<rect x="6.5" y="30" width="57" height="23" rx="7.5" stroke="white"/>
<path d="M25.1534 45.5682C24.9432 45.5682 24.7628 45.4929 24.6122 45.3423C24.4616 45.1918 24.3864 45.0114 24.3864 44.8011C24.3864 44.5909 24.4616 44.4105 24.6122 44.2599C24.7628 44.1094 24.9432 44.0341 25.1534 44.0341C25.3636 44.0341 25.544 44.1094 25.6946 44.2599C25.8452 44.4105 25.9205 44.5909 25.9205 44.8011C25.9205 44.9403 25.8849 45.0682 25.8139 45.1847C25.7457 45.3011 25.6534 45.3949 25.5369 45.4659C25.4233 45.5341 25.2955 45.5682 25.1534 45.5682ZM30.3842 45.6364C29.7706 45.6364 29.2422 45.4915 28.799 45.2017C28.3558 44.9119 28.0149 44.5128 27.7763 44.0043C27.5376 43.4957 27.4183 42.9148 27.4183 42.2614C27.4183 41.5966 27.5405 41.0099 27.7848 40.5014C28.032 39.9901 28.3757 39.5909 28.8161 39.304C29.2592 39.0142 29.7763 38.8693 30.3672 38.8693C30.8274 38.8693 31.2422 38.9545 31.6115 39.125C31.9808 39.2955 32.2834 39.5341 32.5192 39.8409C32.755 40.1477 32.9013 40.5057 32.9581 40.9148H31.9524C31.8757 40.6165 31.7053 40.3523 31.4411 40.1222C31.1797 39.8892 30.8274 39.7727 30.3842 39.7727C29.9922 39.7727 29.6484 39.875 29.353 40.0795C29.0604 40.2812 28.8317 40.5668 28.6669 40.9361C28.505 41.3026 28.424 41.733 28.424 42.2273C28.424 42.733 28.5036 43.1733 28.6626 43.5483C28.8246 43.9233 29.0518 44.2145 29.3445 44.4219C29.6399 44.6293 29.9865 44.733 30.3842 44.733C30.6456 44.733 30.8828 44.6875 31.0959 44.5966C31.3089 44.5057 31.4893 44.375 31.6371 44.2045C31.7848 44.0341 31.8899 43.8295 31.9524 43.5909H32.9581C32.9013 43.9773 32.7607 44.3253 32.5362 44.6349C32.3146 44.9418 32.0206 45.1861 31.6541 45.3679C31.2905 45.5469 30.8672 45.6364 30.3842 45.6364ZM39.0646 40.4205L38.1612 40.6761C38.1044 40.5256 38.0206 40.3793 37.9098 40.2372C37.8018 40.0923 37.6541 39.973 37.4666 39.8793C37.2791 39.7855 37.0391 39.7386 36.7464 39.7386C36.3459 39.7386 36.0121 39.831 35.745 40.0156C35.4808 40.1974 35.3487 40.429 35.3487 40.7102C35.3487 40.9602 35.4396 41.1577 35.6214 41.3026C35.8033 41.4474 36.0874 41.5682 36.4737 41.6648L37.4453 41.9034C38.0305 42.0455 38.4666 42.2628 38.7536 42.5554C39.0405 42.8452 39.1839 43.2187 39.1839 43.6761C39.1839 44.0511 39.076 44.3864 38.8601 44.6818C38.647 44.9773 38.3487 45.2102 37.9652 45.3807C37.5817 45.5511 37.1357 45.6364 36.6271 45.6364C35.9595 45.6364 35.407 45.4915 34.9695 45.2017C34.532 44.9119 34.255 44.4886 34.1385 43.9318L35.093 43.6932C35.1839 44.0455 35.3558 44.3097 35.6087 44.4858C35.8643 44.6619 36.1982 44.75 36.6101 44.75C37.0788 44.75 37.451 44.6506 37.7266 44.4517C38.005 44.25 38.1442 44.0085 38.1442 43.7273C38.1442 43.5 38.0646 43.3097 37.9055 43.1562C37.7464 43 37.5021 42.8835 37.1726 42.8068L36.0817 42.5511C35.4822 42.4091 35.0419 42.1889 34.7607 41.8906C34.4822 41.5895 34.343 41.2131 34.343 40.7614C34.343 40.392 34.4467 40.0653 34.6541 39.7812C34.8643 39.4972 35.1499 39.2741 35.5107 39.1122C35.8743 38.9503 36.2862 38.8693 36.7464 38.8693C37.3942 38.8693 37.9027 39.0114 38.272 39.2955C38.6442 39.5795 38.9084 39.9545 39.0646 40.4205ZM46.0501 38.9545L43.6296 45.5H42.6069L40.1864 38.9545H41.2773L43.0842 44.1705H43.1523L44.9592 38.9545H46.0501Z" fill="white"/>
</svg>
