<svg width="83" height="81" viewBox="0 0 83 81" fill="none" xmlns="http://www.w3.org/2000/svg">
<g filter="url(#filter0_d_3401_7771)">
<rect x="4" y="4" width="75" height="73" rx="16" fill="white" shape-rendering="crispEdges"/>
<path d="M52.3333 51.4474C52.3333 52.7874 51.8065 54.0726 50.8689 55.0201C49.9312 55.9677 48.6594 56.5 47.3333 56.5H35.6667C34.3406 56.5 33.0688 55.9677 32.1311 55.0201C31.1935 54.0726 30.6667 52.7874 30.6667 51.4474V31.2368H29V26.1842H36.5L38.1667 24.5H44.8333L46.5 26.1842H54V31.2368H52.3333V51.4474ZM32.3333 31.2368V51.4474C32.3333 52.3407 32.6845 53.1975 33.3096 53.8292C33.9348 54.4609 34.7826 54.8158 35.6667 54.8158H47.3333C48.2174 54.8158 49.0652 54.4609 49.6904 53.8292C50.3155 53.1975 50.6667 52.3407 50.6667 51.4474V31.2368H32.3333ZM52.3333 29.5526V27.8684H45.6667L44 26.1842H39L37.3333 27.8684H30.6667V29.5526H52.3333ZM35.6667 34.6053H37.3333V51.4474H35.6667V34.6053ZM45.6667 34.6053H47.3333V51.4474H45.6667V34.6053Z" fill="#FF0000"/>
</g>
<defs>
<filter id="filter0_d_3401_7771" x="0" y="0" width="83" height="81" filterUnits="userSpaceOnUse" color-interpolation-filters="sRGB">
<feFlood flood-opacity="0" result="BackgroundImageFix"/>
<feColorMatrix in="SourceAlpha" type="matrix" values="0 0 0 0 0 0 0 0 0 0 0 0 0 0 0 0 0 0 127 0" result="hardAlpha"/>
<feOffset/>
<feGaussianBlur stdDeviation="2"/>
<feComposite in2="hardAlpha" operator="out"/>
<feColorMatrix type="matrix" values="0 0 0 0 0 0 0 0 0 0 0 0 0 0 0 0 0 0 0.25 0"/>
<feBlend mode="normal" in2="BackgroundImageFix" result="effect1_dropShadow_3401_7771"/>
<feBlend mode="normal" in="SourceGraphic" in2="effect1_dropShadow_3401_7771" result="shape"/>
</filter>
</defs>
</svg>
