<svg width="64" height="65" viewBox="0 0 64 65" fill="none" xmlns="http://www.w3.org/2000/svg">
<path d="M52.2164 18.5049L52.4764 18.7523C52.9595 19.2095 53.3426 19.7523 53.6041 20.3497C53.8655 20.9472 54 21.5875 54 22.2342V59.5769C54 60.2234 53.8655 60.8636 53.6042 61.4609C53.3428 62.0582 52.9598 62.6009 52.477 63.0581C51.9941 63.5152 51.4208 63.8778 50.79 64.1253C50.1591 64.3727 49.4829 64.5 48.8 64.5H7.2C5.82087 64.5 4.49823 63.9813 3.52305 63.0581C2.54786 62.1348 2 60.8826 2 59.5769V5.42308C2 4.1174 2.54786 2.86519 3.52305 1.94194C4.49823 1.01868 5.82087 0.5 7.2 0.5L31.0446 0.503693C32.4234 0.503645 33.7458 1.02205 34.721 1.94492L34.9589 2.17138" fill="white"/>
<path d="M52.1618 18.452L35.0382 2.2415C34.8877 2.0988 34.6959 2.00156 34.4871 1.96209C34.2782 1.92263 34.0617 1.94271 33.8649 2.01979C33.6681 2.09687 33.4999 2.2275 33.3815 2.39513C33.2632 2.56276 33.2 2.75987 33.2 2.9615V15.2692C33.2 16.5749 33.7479 17.8271 34.723 18.7503C35.6982 19.6736 37.0209 20.1923 38.4 20.1923H51.4C51.6131 20.1925 51.8215 20.1329 51.9987 20.0209C52.176 19.909 52.3141 19.7497 52.3957 19.5633C52.4773 19.377 52.4986 19.1719 52.457 18.974C52.4153 18.7762 52.3126 18.5945 52.1618 18.452Z" fill="white"/>
<path d="M52.2164 18.5049L52.4764 18.7523C52.9595 19.2095 53.3426 19.7523 53.6041 20.3497C53.8655 20.9472 54 21.5875 54 22.2342V59.5769C54 60.2234 53.8655 60.8636 53.6042 61.4609C53.3428 62.0582 52.9598 62.6009 52.477 63.0581C51.9941 63.5152 51.4208 63.8778 50.79 64.1253C50.1591 64.3727 49.4829 64.5 48.8 64.5H7.2C5.82087 64.5 4.49823 63.9813 3.52305 63.0581C2.54786 62.1348 2 60.8826 2 59.5769V5.42308C2 4.1174 2.54786 2.86519 3.52305 1.94194C4.49823 1.01868 5.82087 0.5 7.2 0.5L31.0446 0.503693C32.4234 0.503645 33.7458 1.02205 34.721 1.94492L34.9589 2.17138M52.1618 18.452L35.0382 2.2415C34.8877 2.0988 34.6959 2.00156 34.4871 1.96209C34.2782 1.92263 34.0617 1.94271 33.8649 2.01979C33.6681 2.09687 33.4999 2.2275 33.3815 2.39513C33.2632 2.56276 33.2 2.75987 33.2 2.9615V15.2692C33.2 16.5749 33.7479 17.8271 34.723 18.7503C35.6982 19.6736 37.0209 20.1923 38.4 20.1923H51.4C51.6131 20.1925 51.8215 20.1329 51.9987 20.0209C52.176 19.909 52.3141 19.7497 52.3957 19.5633C52.4773 19.377 52.4986 19.1719 52.457 18.974C52.4153 18.7762 52.3126 18.5945 52.1618 18.452Z" stroke="#2FA7FE" stroke-linecap="round" stroke-linejoin="round"/>
<path fill-rule="evenodd" clip-rule="evenodd" d="M9 18C9 17.8674 9.05268 17.7402 9.14645 17.6464C9.24021 17.5527 9.36739 17.5 9.5 17.5H27.5C27.6326 17.5 27.7598 17.5527 27.8536 17.6464C27.9473 17.7402 28 17.8674 28 18C28 18.1326 27.9473 18.2598 27.8536 18.3536C27.7598 18.4473 27.6326 18.5 27.5 18.5H9.5C9.36739 18.5 9.24021 18.4473 9.14645 18.3536C9.05268 18.2598 9 18.1326 9 18Z" fill="#2FA7FE" fill-opacity="0.5"/>
<path fill-rule="evenodd" clip-rule="evenodd" d="M9 23C9 22.8674 9.10813 22.7402 9.3006 22.6464C9.49307 22.5527 9.75412 22.5 10.0263 22.5H46.9737C47.2459 22.5 47.5069 22.5527 47.6994 22.6464C47.8919 22.7402 48 22.8674 48 23C48 23.1326 47.8919 23.2598 47.6994 23.3536C47.5069 23.4473 47.2459 23.5 46.9737 23.5H10.0263C9.75412 23.5 9.49307 23.4473 9.3006 23.3536C9.10813 23.2598 9 23.1326 9 23Z" fill="#2FA7FE" fill-opacity="0.5"/>
<path fill-rule="evenodd" clip-rule="evenodd" d="M9 55C9 54.8674 9.10813 54.7402 9.3006 54.6464C9.49307 54.5527 9.75412 54.5 10.0263 54.5H46.9737C47.2459 54.5 47.5069 54.5527 47.6994 54.6464C47.8919 54.7402 48 54.8674 48 55C48 55.1326 47.8919 55.2598 47.6994 55.3536C47.5069 55.4473 47.2459 55.5 46.9737 55.5H10.0263C9.75412 55.5 9.49307 55.4473 9.3006 55.3536C9.10813 55.2598 9 55.1326 9 55Z" fill="#2FA7FE" fill-opacity="0.5"/>
<path fill-rule="evenodd" clip-rule="evenodd" d="M9 60C9 59.8674 9.01941 59.7402 9.05395 59.6464C9.0885 59.5527 9.13535 59.5 9.18421 59.5H15.8158C15.8646 59.5 15.9115 59.5527 15.946 59.6464C15.9806 59.7402 16 59.8674 16 60C16 60.1326 15.9806 60.2598 15.946 60.3536C15.9115 60.4473 15.8646 60.5 15.8158 60.5H9.18421C9.13535 60.5 9.0885 60.4473 9.05395 60.3536C9.01941 60.2598 9 60.1326 9 60Z" fill="#2FA7FE" fill-opacity="0.5"/>
<path fill-rule="evenodd" clip-rule="evenodd" d="M9 28C9 27.8674 9.10813 27.7402 9.3006 27.6464C9.49307 27.5527 9.75412 27.5 10.0263 27.5H46.9737C47.2459 27.5 47.5069 27.5527 47.6994 27.6464C47.8919 27.7402 48 27.8674 48 28C48 28.1326 47.8919 28.2598 47.6994 28.3536C47.5069 28.4473 47.2459 28.5 46.9737 28.5H10.0263C9.75412 28.5 9.49307 28.4473 9.3006 28.3536C9.10813 28.2598 9 28.1326 9 28Z" fill="#2FA7FE" fill-opacity="0.5"/>
<rect x="6.5" y="30" width="57" height="23" rx="7.5" fill="#2FA7FE"/>
<rect x="6.5" y="30" width="57" height="23" rx="7.5" stroke="white"/>
<path d="M24.1534 45.5682C23.9432 45.5682 23.7628 45.4929 23.6122 45.3423C23.4616 45.1918 23.3864 45.0114 23.3864 44.8011C23.3864 44.5909 23.4616 44.4105 23.6122 44.2599C23.7628 44.1094 23.9432 44.0341 24.1534 44.0341C24.3636 44.0341 24.544 44.1094 24.6946 44.2599C24.8452 44.4105 24.9205 44.5909 24.9205 44.8011C24.9205 44.9403 24.8849 45.0682 24.8139 45.1847C24.7457 45.3011 24.6534 45.3949 24.5369 45.4659C24.4233 45.5341 24.2955 45.5682 24.1534 45.5682ZM29.1967 45.6364C28.6513 45.6364 28.1697 45.4986 27.7521 45.223C27.3345 44.9446 27.0078 44.5526 26.772 44.0469C26.5362 43.5384 26.4183 42.9375 26.4183 42.2443C26.4183 41.5568 26.5362 40.9602 26.772 40.4545C27.0078 39.9489 27.3359 39.5582 27.7564 39.2827C28.1768 39.0071 28.6626 38.8693 29.2138 38.8693C29.6399 38.8693 29.9766 38.9403 30.2237 39.0824C30.4737 39.2216 30.6641 39.3807 30.7947 39.5597C30.9283 39.7358 31.032 39.8807 31.1058 39.9943H31.1911V36.7727H32.1967V45.5H31.2251V44.4943H31.1058C31.032 44.6136 30.9268 44.7642 30.7905 44.946C30.6541 45.125 30.4595 45.2855 30.2067 45.4276C29.9538 45.5668 29.6172 45.6364 29.1967 45.6364ZM29.3331 44.733C29.7365 44.733 30.0774 44.6278 30.3558 44.4176C30.6342 44.2045 30.8459 43.9105 30.9908 43.5355C31.1357 43.1577 31.2081 42.7216 31.2081 42.2273C31.2081 41.7386 31.1371 41.3111 30.995 40.9446C30.853 40.5753 30.6428 40.2884 30.3643 40.0838C30.0859 39.8764 29.7422 39.7727 29.3331 39.7727C28.907 39.7727 28.5518 39.8821 28.2678 40.1009C27.9865 40.3168 27.7749 40.6108 27.6328 40.983C27.4936 41.3523 27.424 41.767 27.424 42.2273C27.424 42.6932 27.495 43.1165 27.6371 43.4972C27.782 43.875 27.995 44.1761 28.2763 44.4006C28.5604 44.6222 28.9126 44.733 29.3331 44.733ZM36.8374 45.6364C36.2464 45.6364 35.728 45.4957 35.282 45.2145C34.8388 44.9332 34.4922 44.5398 34.2422 44.0341C33.995 43.5284 33.8714 42.9375 33.8714 42.2614C33.8714 41.5795 33.995 40.9844 34.2422 40.4759C34.4922 39.9673 34.8388 39.5724 35.282 39.2912C35.728 39.0099 36.2464 38.8693 36.8374 38.8693C37.4283 38.8693 37.9453 39.0099 38.3885 39.2912C38.8345 39.5724 39.1811 39.9673 39.4283 40.4759C39.6783 40.9844 39.8033 41.5795 39.8033 42.2614C39.8033 42.9375 39.6783 43.5284 39.4283 44.0341C39.1811 44.5398 38.8345 44.9332 38.3885 45.2145C37.9453 45.4957 37.4283 45.6364 36.8374 45.6364ZM36.8374 44.733C37.2862 44.733 37.6555 44.6179 37.9453 44.3878C38.2351 44.1577 38.4496 43.8551 38.5888 43.4801C38.728 43.1051 38.7976 42.6989 38.7976 42.2614C38.7976 41.8239 38.728 41.4162 38.5888 41.0384C38.4496 40.6605 38.2351 40.3551 37.9453 40.1222C37.6555 39.8892 37.2862 39.7727 36.8374 39.7727C36.3885 39.7727 36.0192 39.8892 35.7294 40.1222C35.4396 40.3551 35.2251 40.6605 35.0859 41.0384C34.9467 41.4162 34.8771 41.8239 34.8771 42.2614C34.8771 42.6989 34.9467 43.1051 35.0859 43.4801C35.2251 43.8551 35.4396 44.1577 35.7294 44.3878C36.0192 44.6179 36.3885 44.733 36.8374 44.733ZM43.9975 45.6364C43.3839 45.6364 42.8555 45.4915 42.4123 45.2017C41.9691 44.9119 41.6282 44.5128 41.3896 44.0043C41.1509 43.4957 41.0316 42.9148 41.0316 42.2614C41.0316 41.5966 41.1538 41.0099 41.3981 40.5014C41.6452 39.9901 41.989 39.5909 42.4293 39.304C42.8725 39.0142 43.3896 38.8693 43.9805 38.8693C44.4407 38.8693 44.8555 38.9545 45.2248 39.125C45.5941 39.2955 45.8967 39.5341 46.1325 39.8409C46.3683 40.1477 46.5146 40.5057 46.5714 40.9148H45.5657C45.489 40.6165 45.3185 40.3523 45.0543 40.1222C44.793 39.8892 44.4407 39.7727 43.9975 39.7727C43.6055 39.7727 43.2617 39.875 42.9663 40.0795C42.6737 40.2812 42.445 40.5668 42.2802 40.9361C42.1183 41.3026 42.0373 41.733 42.0373 42.2273C42.0373 42.733 42.1168 43.1733 42.2759 43.5483C42.4379 43.9233 42.6651 44.2145 42.9577 44.4219C43.2532 44.6293 43.5998 44.733 43.9975 44.733C44.2589 44.733 44.4961 44.6875 44.7092 44.5966C44.9222 44.5057 45.1026 44.375 45.2504 44.2045C45.3981 44.0341 45.5032 43.8295 45.5657 43.5909H46.5714C46.5146 43.9773 46.3739 44.3253 46.1495 44.6349C45.9279 44.9418 45.6339 45.1861 45.2674 45.3679C44.9038 45.5469 44.4805 45.6364 43.9975 45.6364Z" fill="white"/>
</svg>
