<svg width="16" height="17" viewBox="0 0 16 17" fill="none" xmlns="http://www.w3.org/2000/svg">
<path d="M2.58333 0.500957H13.4167C13.704 0.500957 13.9795 0.615747 14.1827 0.820076C14.3859 1.0244 14.5 1.30153 14.5 1.5905V13.0307C14.5 13.3196 14.3859 13.5968 14.1827 13.8011C13.9795 14.0054 13.704 14.1202 13.4167 14.1202H11.25M11.25 15.4102C11.25 15.5781 11.2115 15.7437 11.1374 15.8942C11.0633 16.0446 10.9556 16.1758 10.8227 16.2775C10.6899 16.3791 10.5355 16.4486 10.3716 16.4803C10.2077 16.5121 10.0387 16.5053 9.87778 16.4605L2.29444 14.3418C2.06649 14.2783 1.86545 14.1416 1.722 13.9525C1.57855 13.7634 1.50058 13.5322 1.5 13.2943V1.5905C1.49985 1.42255 1.53832 1.25683 1.61238 1.10631C1.68645 0.955777 1.79411 0.824507 1.92696 0.722749C2.05982 0.620991 2.21426 0.5515 2.37824 0.519704C2.54221 0.487907 2.71128 0.494667 2.87222 0.539454L10.4556 3.00182C10.684 3.06538 10.8854 3.20253 11.0289 3.39224C11.1724 3.58196 11.2501 3.81377 11.25 4.05213V15.4102Z" stroke="#5C5C5C" stroke-linecap="round" stroke-linejoin="round"/>
</svg>
