<svg width="64" height="65" viewBox="0 0 64 65" fill="none" xmlns="http://www.w3.org/2000/svg">
<path d="M52.2164 18.5049L52.4764 18.7523C52.9595 19.2095 53.3426 19.7523 53.6041 20.3497C53.8655 20.9472 54 21.5875 54 22.2342V59.5769C54 60.2234 53.8655 60.8636 53.6042 61.4609C53.3428 62.0582 52.9598 62.6009 52.477 63.0581C51.9941 63.5152 51.4208 63.8778 50.79 64.1253C50.1591 64.3727 49.4829 64.5 48.8 64.5H7.2C5.82087 64.5 4.49823 63.9813 3.52305 63.0581C2.54786 62.1348 2 60.8826 2 59.5769V5.42308C2 4.1174 2.54786 2.86519 3.52305 1.94194C4.49823 1.01868 5.82087 0.5 7.2 0.5L31.0446 0.503693C32.4234 0.503645 33.7458 1.02205 34.721 1.94492L34.9589 2.17138" fill="white"/>
<path d="M52.1618 18.452L35.0382 2.2415C34.8877 2.0988 34.6959 2.00156 34.4871 1.96209C34.2782 1.92263 34.0617 1.94271 33.8649 2.01979C33.6681 2.09687 33.4999 2.2275 33.3815 2.39513C33.2632 2.56276 33.2 2.75987 33.2 2.9615V15.2692C33.2 16.5749 33.7479 17.8271 34.723 18.7503C35.6982 19.6736 37.0209 20.1923 38.4 20.1923H51.4C51.6131 20.1925 51.8215 20.1329 51.9987 20.0209C52.176 19.909 52.3141 19.7497 52.3957 19.5633C52.4773 19.377 52.4986 19.1719 52.457 18.974C52.4153 18.7762 52.3126 18.5945 52.1618 18.452Z" fill="white"/>
<path d="M52.2164 18.5049L52.4764 18.7523C52.9595 19.2095 53.3426 19.7523 53.6041 20.3497C53.8655 20.9472 54 21.5875 54 22.2342V59.5769C54 60.2234 53.8655 60.8636 53.6042 61.4609C53.3428 62.0582 52.9598 62.6009 52.477 63.0581C51.9941 63.5152 51.4208 63.8778 50.79 64.1253C50.1591 64.3727 49.4829 64.5 48.8 64.5H7.2C5.82087 64.5 4.49823 63.9813 3.52305 63.0581C2.54786 62.1348 2 60.8826 2 59.5769V5.42308C2 4.1174 2.54786 2.86519 3.52305 1.94194C4.49823 1.01868 5.82087 0.5 7.2 0.5L31.0446 0.503693C32.4234 0.503645 33.7458 1.02205 34.721 1.94492L34.9589 2.17138M52.1618 18.452L35.0382 2.2415C34.8877 2.0988 34.6959 2.00156 34.4871 1.96209C34.2782 1.92263 34.0617 1.94271 33.8649 2.01979C33.6681 2.09687 33.4999 2.2275 33.3815 2.39513C33.2632 2.56276 33.2 2.75987 33.2 2.9615V15.2692C33.2 16.5749 33.7479 17.8271 34.723 18.7503C35.6982 19.6736 37.0209 20.1923 38.4 20.1923H51.4C51.6131 20.1925 51.8215 20.1329 51.9987 20.0209C52.176 19.909 52.3141 19.7497 52.3957 19.5633C52.4773 19.377 52.4986 19.1719 52.457 18.974C52.4153 18.7762 52.3126 18.5945 52.1618 18.452Z" stroke="#2FA7FE" stroke-linecap="round" stroke-linejoin="round"/>
<path fill-rule="evenodd" clip-rule="evenodd" d="M9 18C9 17.8674 9.05268 17.7402 9.14645 17.6464C9.24021 17.5527 9.36739 17.5 9.5 17.5H27.5C27.6326 17.5 27.7598 17.5527 27.8536 17.6464C27.9473 17.7402 28 17.8674 28 18C28 18.1326 27.9473 18.2598 27.8536 18.3536C27.7598 18.4473 27.6326 18.5 27.5 18.5H9.5C9.36739 18.5 9.24021 18.4473 9.14645 18.3536C9.05268 18.2598 9 18.1326 9 18Z" fill="#2FA7FE" fill-opacity="0.5"/>
<path fill-rule="evenodd" clip-rule="evenodd" d="M9 23C9 22.8674 9.10813 22.7402 9.3006 22.6464C9.49307 22.5527 9.75412 22.5 10.0263 22.5H46.9737C47.2459 22.5 47.5069 22.5527 47.6994 22.6464C47.8919 22.7402 48 22.8674 48 23C48 23.1326 47.8919 23.2598 47.6994 23.3536C47.5069 23.4473 47.2459 23.5 46.9737 23.5H10.0263C9.75412 23.5 9.49307 23.4473 9.3006 23.3536C9.10813 23.2598 9 23.1326 9 23Z" fill="#2FA7FE" fill-opacity="0.5"/>
<path fill-rule="evenodd" clip-rule="evenodd" d="M9 55C9 54.8674 9.10813 54.7402 9.3006 54.6464C9.49307 54.5527 9.75412 54.5 10.0263 54.5H46.9737C47.2459 54.5 47.5069 54.5527 47.6994 54.6464C47.8919 54.7402 48 54.8674 48 55C48 55.1326 47.8919 55.2598 47.6994 55.3536C47.5069 55.4473 47.2459 55.5 46.9737 55.5H10.0263C9.75412 55.5 9.49307 55.4473 9.3006 55.3536C9.10813 55.2598 9 55.1326 9 55Z" fill="#2FA7FE" fill-opacity="0.5"/>
<path fill-rule="evenodd" clip-rule="evenodd" d="M9 60C9 59.8674 9.01941 59.7402 9.05395 59.6464C9.0885 59.5527 9.13535 59.5 9.18421 59.5H15.8158C15.8646 59.5 15.9115 59.5527 15.946 59.6464C15.9806 59.7402 16 59.8674 16 60C16 60.1326 15.9806 60.2598 15.946 60.3536C15.9115 60.4473 15.8646 60.5 15.8158 60.5H9.18421C9.13535 60.5 9.0885 60.4473 9.05395 60.3536C9.01941 60.2598 9 60.1326 9 60Z" fill="#2FA7FE" fill-opacity="0.5"/>
<path fill-rule="evenodd" clip-rule="evenodd" d="M9 28C9 27.8674 9.10813 27.7402 9.3006 27.6464C9.49307 27.5527 9.75412 27.5 10.0263 27.5H46.9737C47.2459 27.5 47.5069 27.5527 47.6994 27.6464C47.8919 27.7402 48 27.8674 48 28C48 28.1326 47.8919 28.2598 47.6994 28.3536C47.5069 28.4473 47.2459 28.5 46.9737 28.5H10.0263C9.75412 28.5 9.49307 28.4473 9.3006 28.3536C9.10813 28.2598 9 28.1326 9 28Z" fill="#2FA7FE" fill-opacity="0.5"/>
<rect x="6.5" y="30" width="57" height="23" rx="7.5" fill="#2FA7FE"/>
<rect x="6.5" y="30" width="57" height="23" rx="7.5" stroke="white"/>
<path d="M20.6534 45.5682C20.4432 45.5682 20.2628 45.4929 20.1122 45.3423C19.9616 45.1918 19.8864 45.0114 19.8864 44.8011C19.8864 44.5909 19.9616 44.4105 20.1122 44.2599C20.2628 44.1094 20.4432 44.0341 20.6534 44.0341C20.8636 44.0341 21.044 44.1094 21.1946 44.2599C21.3452 44.4105 21.4205 44.5909 21.4205 44.8011C21.4205 44.9403 21.3849 45.0682 21.3139 45.1847C21.2457 45.3011 21.1534 45.3949 21.0369 45.4659C20.9233 45.5341 20.7955 45.5682 20.6534 45.5682ZM25.6967 45.6364C25.1513 45.6364 24.6697 45.4986 24.2521 45.223C23.8345 44.9446 23.5078 44.5526 23.272 44.0469C23.0362 43.5384 22.9183 42.9375 22.9183 42.2443C22.9183 41.5568 23.0362 40.9602 23.272 40.4545C23.5078 39.9489 23.8359 39.5582 24.2564 39.2827C24.6768 39.0071 25.1626 38.8693 25.7138 38.8693C26.1399 38.8693 26.4766 38.9403 26.7237 39.0824C26.9737 39.2216 27.1641 39.3807 27.2947 39.5597C27.4283 39.7358 27.532 39.8807 27.6058 39.9943H27.6911V36.7727H28.6967V45.5H27.7251V44.4943H27.6058C27.532 44.6136 27.4268 44.7642 27.2905 44.946C27.1541 45.125 26.9595 45.2855 26.7067 45.4276C26.4538 45.5668 26.1172 45.6364 25.6967 45.6364ZM25.8331 44.733C26.2365 44.733 26.5774 44.6278 26.8558 44.4176C27.1342 44.2045 27.3459 43.9105 27.4908 43.5355C27.6357 43.1577 27.7081 42.7216 27.7081 42.2273C27.7081 41.7386 27.6371 41.3111 27.495 40.9446C27.353 40.5753 27.1428 40.2884 26.8643 40.0838C26.5859 39.8764 26.2422 39.7727 25.8331 39.7727C25.407 39.7727 25.0518 39.8821 24.7678 40.1009C24.4865 40.3168 24.2749 40.6108 24.1328 40.983C23.9936 41.3523 23.924 41.767 23.924 42.2273C23.924 42.6932 23.995 43.1165 24.1371 43.4972C24.282 43.875 24.495 44.1761 24.7763 44.4006C25.0604 44.6222 25.4126 44.733 25.8331 44.733ZM33.3374 45.6364C32.7464 45.6364 32.228 45.4957 31.782 45.2145C31.3388 44.9332 30.9922 44.5398 30.7422 44.0341C30.495 43.5284 30.3714 42.9375 30.3714 42.2614C30.3714 41.5795 30.495 40.9844 30.7422 40.4759C30.9922 39.9673 31.3388 39.5724 31.782 39.2912C32.228 39.0099 32.7464 38.8693 33.3374 38.8693C33.9283 38.8693 34.4453 39.0099 34.8885 39.2912C35.3345 39.5724 35.6811 39.9673 35.9283 40.4759C36.1783 40.9844 36.3033 41.5795 36.3033 42.2614C36.3033 42.9375 36.1783 43.5284 35.9283 44.0341C35.6811 44.5398 35.3345 44.9332 34.8885 45.2145C34.4453 45.4957 33.9283 45.6364 33.3374 45.6364ZM33.3374 44.733C33.7862 44.733 34.1555 44.6179 34.4453 44.3878C34.7351 44.1577 34.9496 43.8551 35.0888 43.4801C35.228 43.1051 35.2976 42.6989 35.2976 42.2614C35.2976 41.8239 35.228 41.4162 35.0888 41.0384C34.9496 40.6605 34.7351 40.3551 34.4453 40.1222C34.1555 39.8892 33.7862 39.7727 33.3374 39.7727C32.8885 39.7727 32.5192 39.8892 32.2294 40.1222C31.9396 40.3551 31.7251 40.6605 31.5859 41.0384C31.4467 41.4162 31.3771 41.8239 31.3771 42.2614C31.3771 42.6989 31.4467 43.1051 31.5859 43.4801C31.7251 43.8551 31.9396 44.1577 32.2294 44.3878C32.5192 44.6179 32.8885 44.733 33.3374 44.733ZM40.4975 45.6364C39.8839 45.6364 39.3555 45.4915 38.9123 45.2017C38.4691 44.9119 38.1282 44.5128 37.8896 44.0043C37.6509 43.4957 37.5316 42.9148 37.5316 42.2614C37.5316 41.5966 37.6538 41.0099 37.8981 40.5014C38.1452 39.9901 38.489 39.5909 38.9293 39.304C39.3725 39.0142 39.8896 38.8693 40.4805 38.8693C40.9407 38.8693 41.3555 38.9545 41.7248 39.125C42.0941 39.2955 42.3967 39.5341 42.6325 39.8409C42.8683 40.1477 43.0146 40.5057 43.0714 40.9148H42.0657C41.989 40.6165 41.8185 40.3523 41.5543 40.1222C41.293 39.8892 40.9407 39.7727 40.4975 39.7727C40.1055 39.7727 39.7617 39.875 39.4663 40.0795C39.1737 40.2812 38.945 40.5668 38.7802 40.9361C38.6183 41.3026 38.5373 41.733 38.5373 42.2273C38.5373 42.733 38.6168 43.1733 38.7759 43.5483C38.9379 43.9233 39.1651 44.2145 39.4577 44.4219C39.7532 44.6293 40.0998 44.733 40.4975 44.733C40.7589 44.733 40.9961 44.6875 41.2092 44.5966C41.4222 44.5057 41.6026 44.375 41.7504 44.2045C41.8981 44.0341 42.0032 43.8295 42.0657 43.5909H43.0714C43.0146 43.9773 42.8739 44.3253 42.6495 44.6349C42.4279 44.9418 42.1339 45.1861 41.7674 45.3679C41.4038 45.5469 40.9805 45.6364 40.4975 45.6364ZM45.2212 38.9545L46.7894 41.6307L48.3576 38.9545H49.5167L47.4031 42.2273L49.5167 45.5H48.3576L46.7894 42.9602L45.2212 45.5H44.0621L46.1417 42.2273L44.0621 38.9545H45.2212Z" fill="white"/>
</svg>
