<svg width="16" height="16" viewBox="0 0 16 16" fill="none" xmlns="http://www.w3.org/2000/svg">
<path d="M8 11.712C7.87733 11.712 7.76381 11.6918 7.65943 11.6514C7.55505 11.611 7.45333 11.541 7.35429 11.4411L4.36 8.448C4.24876 8.33677 4.19086 8.20572 4.18629 8.05486C4.18171 7.904 4.23962 7.76572 4.36 7.64C4.48648 7.51353 4.62248 7.44915 4.768 7.44686C4.91429 7.44458 5.05029 7.50667 5.176 7.63315L7.42857 9.88572V0.571436C7.42857 0.409151 7.48305 0.273151 7.592 0.163437C7.70095 0.0537223 7.83695 -0.000754023 8 7.88175e-06C8.16305 0.000769786 8.29905 0.0552461 8.408 0.163437C8.51695 0.271627 8.57143 0.407627 8.57143 0.571436V9.88572L10.824 7.63315C10.9352 7.52191 11.0674 7.46362 11.2206 7.45829C11.3737 7.45296 11.5131 7.51353 11.6389 7.64C11.7608 7.76572 11.8229 7.90057 11.8251 8.04457C11.8274 8.18857 11.7657 8.32305 11.64 8.448L8.64571 11.4423C8.54667 11.5413 8.44495 11.611 8.34057 11.6514C8.23695 11.6918 8.12343 11.712 8 11.712ZM1.84686 16C1.32038 16 0.881143 15.824 0.529143 15.472C0.177143 15.12 0.000761905 14.6804 0 14.1531V11.9554C0 11.7931 0.0544763 11.6575 0.163429 11.5486C0.272381 11.4396 0.408381 11.3848 0.571429 11.384C0.734476 11.3832 0.870476 11.4381 0.979428 11.5486C1.08838 11.659 1.14286 11.7947 1.14286 11.9554V14.1531C1.14286 14.3291 1.216 14.4907 1.36229 14.6377C1.50857 14.7848 1.66971 14.8579 1.84571 14.8571H14.1543C14.3295 14.8571 14.4907 14.784 14.6377 14.6377C14.7848 14.4914 14.8579 14.3299 14.8571 14.1531V11.9554C14.8571 11.7931 14.9116 11.6575 15.0206 11.5486C15.1295 11.4396 15.2655 11.3848 15.4286 11.384C15.5916 11.3832 15.7276 11.4381 15.8366 11.5486C15.9455 11.659 16 11.7947 16 11.9554V14.1531C16 14.6796 15.824 15.1189 15.472 15.4709C15.12 15.8229 14.6804 15.9992 14.1531 16H1.84686Z" fill="#0C8CE9"/>
</svg>
