<svg width="79" height="79" viewBox="0 0 79 79" fill="none" xmlns="http://www.w3.org/2000/svg">
<g filter="url(#filter0_d_3449_8679)">
<rect x="2" y="2" width="75" height="75" rx="16" fill="white" shape-rendering="crispEdges"/>
<path d="M39.5 46.924C39.2623 46.924 39.0424 46.8836 38.8401 46.8029C38.6379 46.7221 38.4408 46.5819 38.2489 46.3823L32.4475 40.396C32.232 40.1735 32.1198 39.9114 32.1109 39.6097C32.1021 39.308 32.2143 39.0314 32.4475 38.78C32.6925 38.5271 32.956 38.3983 33.238 38.3937C33.5214 38.3892 33.7849 38.5133 34.0285 38.7663L38.3929 43.2714V24.6429C38.3929 24.3183 38.4984 24.0463 38.7095 23.8269C38.9206 23.6074 39.1841 23.4985 39.5 23.5C39.8159 23.5015 40.0794 23.6105 40.2905 23.8269C40.5016 24.0433 40.6071 24.3153 40.6071 24.6429V43.2714L44.9715 38.7663C45.187 38.5438 45.4431 38.4272 45.7399 38.4166C46.0366 38.4059 46.3067 38.5271 46.5503 38.78C46.7865 39.0314 46.9068 39.3011 46.9112 39.5891C46.9156 39.8771 46.7961 40.1461 46.5525 40.396L40.7511 46.3846C40.5592 46.5827 40.3621 46.7221 40.1599 46.8029C39.9591 46.8836 39.7391 46.924 39.5 46.924ZM27.5783 55.5C26.5582 55.5 25.7072 55.148 25.0252 54.444C24.3432 53.74 24.0015 52.8608 24 51.8063V47.4109C24 47.0863 24.1055 46.8151 24.3166 46.5971C24.5277 46.3792 24.7912 46.2695 25.1071 46.268C25.423 46.2665 25.6865 46.3762 25.8976 46.5971C26.1087 46.8181 26.2143 47.0893 26.2143 47.4109V51.8063C26.2143 52.1583 26.356 52.4813 26.6394 52.7754C26.9229 53.0695 27.2351 53.2158 27.5761 53.2143H51.4239C51.7635 53.2143 52.0757 53.068 52.3606 52.7754C52.6455 52.4829 52.7872 52.1598 52.7857 51.8063V47.4109C52.7857 47.0863 52.8913 46.8151 53.1024 46.5971C53.3135 46.3792 53.577 46.2695 53.8929 46.268C54.2088 46.2665 54.4723 46.3762 54.6834 46.5971C54.8945 46.8181 55 47.0893 55 47.4109V51.8063C55 52.8592 54.659 53.7377 53.977 54.4417C53.295 55.1457 52.4432 55.4985 51.4217 55.5H27.5783Z" fill="#0C8CE9"/>
</g>
<defs>
<filter id="filter0_d_3449_8679" x="0" y="0" width="79" height="79" filterUnits="userSpaceOnUse" color-interpolation-filters="sRGB">
<feFlood flood-opacity="0" result="BackgroundImageFix"/>
<feColorMatrix in="SourceAlpha" type="matrix" values="0 0 0 0 0 0 0 0 0 0 0 0 0 0 0 0 0 0 127 0" result="hardAlpha"/>
<feOffset/>
<feGaussianBlur stdDeviation="1"/>
<feComposite in2="hardAlpha" operator="out"/>
<feColorMatrix type="matrix" values="0 0 0 0 0 0 0 0 0 0 0 0 0 0 0 0 0 0 0.25 0"/>
<feBlend mode="normal" in2="BackgroundImageFix" result="effect1_dropShadow_3449_8679"/>
<feBlend mode="normal" in="SourceGraphic" in2="effect1_dropShadow_3449_8679" result="shape"/>
</filter>
</defs>
</svg>
