<svg width="64" height="65" viewBox="0 0 64 65" fill="none" xmlns="http://www.w3.org/2000/svg">
<path d="M52.2164 18.5049L52.4764 18.7523C52.9595 19.2095 53.3426 19.7523 53.6041 20.3497C53.8655 20.9472 54 21.5875 54 22.2342V59.5769C54 60.2234 53.8655 60.8636 53.6042 61.4609C53.3428 62.0582 52.9598 62.6009 52.477 63.0581C51.9941 63.5152 51.4208 63.8778 50.79 64.1253C50.1591 64.3727 49.4829 64.5 48.8 64.5H7.2C5.82087 64.5 4.49823 63.9813 3.52305 63.0581C2.54786 62.1348 2 60.8826 2 59.5769V5.42308C2 4.1174 2.54786 2.86519 3.52305 1.94194C4.49823 1.01868 5.82087 0.5 7.2 0.5L31.0446 0.503693C32.4234 0.503645 33.7458 1.02205 34.721 1.94492L34.9589 2.17138" fill="white"/>
<path d="M52.1618 18.452L35.0382 2.2415C34.8877 2.0988 34.6959 2.00156 34.4871 1.96209C34.2782 1.92263 34.0617 1.94271 33.8649 2.01979C33.6681 2.09687 33.4999 2.2275 33.3815 2.39513C33.2632 2.56276 33.2 2.75987 33.2 2.9615V15.2692C33.2 16.5749 33.7479 17.8271 34.723 18.7503C35.6982 19.6736 37.0209 20.1923 38.4 20.1923H51.4C51.6131 20.1925 51.8215 20.1329 51.9987 20.0209C52.176 19.909 52.3141 19.7497 52.3957 19.5633C52.4773 19.377 52.4986 19.1719 52.457 18.974C52.4153 18.7762 52.3126 18.5945 52.1618 18.452Z" fill="white"/>
<path d="M52.2164 18.5049L52.4764 18.7523C52.9595 19.2095 53.3426 19.7523 53.6041 20.3497C53.8655 20.9472 54 21.5875 54 22.2342V59.5769C54 60.2234 53.8655 60.8636 53.6042 61.4609C53.3428 62.0582 52.9598 62.6009 52.477 63.0581C51.9941 63.5152 51.4208 63.8778 50.79 64.1253C50.1591 64.3727 49.4829 64.5 48.8 64.5H7.2C5.82087 64.5 4.49823 63.9813 3.52305 63.0581C2.54786 62.1348 2 60.8826 2 59.5769V5.42308C2 4.1174 2.54786 2.86519 3.52305 1.94194C4.49823 1.01868 5.82087 0.5 7.2 0.5L31.0446 0.503693C32.4234 0.503645 33.7458 1.02205 34.721 1.94492L34.9589 2.17138M52.1618 18.452L35.0382 2.2415C34.8877 2.0988 34.6959 2.00156 34.4871 1.96209C34.2782 1.92263 34.0617 1.94271 33.8649 2.01979C33.6681 2.09687 33.4999 2.2275 33.3815 2.39513C33.2632 2.56276 33.2 2.75987 33.2 2.9615V15.2692C33.2 16.5749 33.7479 17.8271 34.723 18.7503C35.6982 19.6736 37.0209 20.1923 38.4 20.1923H51.4C51.6131 20.1925 51.8215 20.1329 51.9987 20.0209C52.176 19.909 52.3141 19.7497 52.3957 19.5633C52.4773 19.377 52.4986 19.1719 52.457 18.974C52.4153 18.7762 52.3126 18.5945 52.1618 18.452Z" stroke="#E5D850" stroke-linecap="round" stroke-linejoin="round"/>
<rect x="6.5" y="30" width="57" height="23" rx="7.5" fill="#E5D850"/>
<rect x="6.5" y="30" width="57" height="23" rx="7.5" stroke="white"/>
<path d="M22.6534 45.5682C22.4432 45.5682 22.2628 45.4929 22.1122 45.3423C21.9616 45.1918 21.8864 45.0114 21.8864 44.8011C21.8864 44.5909 21.9616 44.4105 22.1122 44.2599C22.2628 44.1094 22.4432 44.0341 22.6534 44.0341C22.8636 44.0341 23.044 44.1094 23.1946 44.2599C23.3452 44.4105 23.4205 44.5909 23.4205 44.8011C23.4205 44.9403 23.3849 45.0682 23.3139 45.1847C23.2457 45.3011 23.1534 45.3949 23.0369 45.4659C22.9233 45.5341 22.7955 45.5682 22.6534 45.5682ZM27.6967 45.6364C27.1513 45.6364 26.6697 45.4986 26.2521 45.223C25.8345 44.9446 25.5078 44.5526 25.272 44.0469C25.0362 43.5384 24.9183 42.9375 24.9183 42.2443C24.9183 41.5568 25.0362 40.9602 25.272 40.4545C25.5078 39.9489 25.8359 39.5582 26.2564 39.2827C26.6768 39.0071 27.1626 38.8693 27.7138 38.8693C28.1399 38.8693 28.4766 38.9403 28.7237 39.0824C28.9737 39.2216 29.1641 39.3807 29.2947 39.5597C29.4283 39.7358 29.532 39.8807 29.6058 39.9943H29.6911V36.7727H30.6967V45.5H29.7251V44.4943H29.6058C29.532 44.6136 29.4268 44.7642 29.2905 44.946C29.1541 45.125 28.9595 45.2855 28.7067 45.4276C28.4538 45.5668 28.1172 45.6364 27.6967 45.6364ZM27.8331 44.733C28.2365 44.733 28.5774 44.6278 28.8558 44.4176C29.1342 44.2045 29.3459 43.9105 29.4908 43.5355C29.6357 43.1577 29.7081 42.7216 29.7081 42.2273C29.7081 41.7386 29.6371 41.3111 29.495 40.9446C29.353 40.5753 29.1428 40.2884 28.8643 40.0838C28.5859 39.8764 28.2422 39.7727 27.8331 39.7727C27.407 39.7727 27.0518 39.8821 26.7678 40.1009C26.4865 40.3168 26.2749 40.6108 26.1328 40.983C25.9936 41.3523 25.924 41.767 25.924 42.2273C25.924 42.6932 25.995 43.1165 26.1371 43.4972C26.282 43.875 26.495 44.1761 26.7763 44.4006C27.0604 44.6222 27.4126 44.733 27.8331 44.733ZM34.1612 45.5L32.1669 38.9545H33.2237L34.6385 43.9659H34.7067L36.1044 38.9545H37.1783L38.5589 43.9489H38.6271L40.0419 38.9545H41.0987L39.1044 45.5H38.1158L36.6839 40.4716H36.5817L35.1499 45.5H34.1612ZM44.8477 48.0909C44.3619 48.0909 43.9442 48.0284 43.5948 47.9034C43.2454 47.7812 42.9542 47.6193 42.7212 47.4176C42.4911 47.2188 42.3079 47.0057 42.1715 46.7784L42.9727 46.2159C43.0636 46.3352 43.1786 46.4716 43.3178 46.625C43.457 46.7812 43.6474 46.9162 43.8888 47.0298C44.1332 47.1463 44.4528 47.2045 44.8477 47.2045C45.3761 47.2045 45.8121 47.0767 46.1559 46.821C46.4996 46.5653 46.6715 46.1648 46.6715 45.6193V44.2898H46.5863C46.5124 44.4091 46.4073 44.5568 46.271 44.733C46.1374 44.9062 45.9442 45.0611 45.6914 45.1974C45.4414 45.331 45.1033 45.3977 44.6772 45.3977C44.1488 45.3977 43.6744 45.2727 43.2539 45.0227C42.8363 44.7727 42.5053 44.4091 42.261 43.9318C42.0195 43.4545 41.8988 42.875 41.8988 42.1932C41.8988 41.5227 42.0167 40.9389 42.2525 40.4418C42.4883 39.9418 42.8164 39.5554 43.2369 39.2827C43.6573 39.0071 44.1431 38.8693 44.6942 38.8693C45.1204 38.8693 45.4585 38.9403 45.7085 39.0824C45.9613 39.2216 46.1545 39.3807 46.288 39.5597C46.4244 39.7358 46.5295 39.8807 46.6033 39.9943H46.7056V38.9545H47.6772V45.6875C47.6772 46.25 47.5494 46.7074 47.2937 47.0597C47.0408 47.4148 46.6999 47.6747 46.271 47.8395C45.8448 48.0071 45.3704 48.0909 44.8477 48.0909ZM44.8136 44.4943C45.217 44.4943 45.5579 44.402 45.8363 44.2173C46.1147 44.0327 46.3263 43.767 46.4712 43.4205C46.6161 43.0739 46.6886 42.6591 46.6886 42.1761C46.6886 41.7045 46.6175 41.2884 46.4755 40.9276C46.3335 40.5668 46.1232 40.2841 45.8448 40.0795C45.5664 39.875 45.2227 39.7727 44.8136 39.7727C44.3874 39.7727 44.0323 39.8807 43.7482 40.0966C43.467 40.3125 43.2553 40.6023 43.1133 40.9659C42.9741 41.3295 42.9045 41.733 42.9045 42.1761C42.9045 42.6307 42.9755 43.0327 43.1175 43.3821C43.2624 43.7287 43.4755 44.0014 43.7567 44.2003C44.0408 44.3963 44.3931 44.4943 44.8136 44.4943Z" fill="white"/>
</svg>
