<svg width="64" height="65" viewBox="0 0 64 65" fill="none" xmlns="http://www.w3.org/2000/svg">
<path d="M52.2164 18.5049L52.4764 18.7523C52.9595 19.2095 53.3426 19.7523 53.6041 20.3497C53.8655 20.9472 54 21.5875 54 22.2342V59.5769C54 60.2234 53.8655 60.8636 53.6042 61.4609C53.3428 62.0582 52.9598 62.6009 52.477 63.0581C51.9941 63.5152 51.4208 63.8778 50.79 64.1253C50.1591 64.3727 49.4829 64.5 48.8 64.5H7.2C5.82087 64.5 4.49823 63.9813 3.52305 63.0581C2.54786 62.1348 2 60.8826 2 59.5769V5.42308C2 4.1174 2.54786 2.86519 3.52305 1.94194C4.49823 1.01868 5.82087 0.5 7.2 0.5L31.0446 0.503693C32.4234 0.503645 33.7458 1.02205 34.721 1.94492L34.9589 2.17138" fill="white"/>
<path d="M52.1618 18.452L35.0382 2.2415C34.8877 2.0988 34.6959 2.00156 34.4871 1.96209C34.2782 1.92263 34.0617 1.94271 33.8649 2.01979C33.6681 2.09687 33.4999 2.2275 33.3815 2.39513C33.2632 2.56276 33.2 2.75987 33.2 2.9615V15.2692C33.2 16.5749 33.7479 17.8271 34.723 18.7503C35.6982 19.6736 37.0209 20.1923 38.4 20.1923H51.4C51.6131 20.1925 51.8215 20.1329 51.9987 20.0209C52.176 19.909 52.3141 19.7497 52.3957 19.5633C52.4773 19.377 52.4986 19.1719 52.457 18.974C52.4153 18.7762 52.3126 18.5945 52.1618 18.452Z" fill="white"/>
<path d="M52.2164 18.5049L52.4764 18.7523C52.9595 19.2095 53.3426 19.7523 53.6041 20.3497C53.8655 20.9472 54 21.5875 54 22.2342V59.5769C54 60.2234 53.8655 60.8636 53.6042 61.4609C53.3428 62.0582 52.9598 62.6009 52.477 63.0581C51.9941 63.5152 51.4208 63.8778 50.79 64.1253C50.1591 64.3727 49.4829 64.5 48.8 64.5H7.2C5.82087 64.5 4.49823 63.9813 3.52305 63.0581C2.54786 62.1348 2 60.8826 2 59.5769V5.42308C2 4.1174 2.54786 2.86519 3.52305 1.94194C4.49823 1.01868 5.82087 0.5 7.2 0.5L31.0446 0.503693C32.4234 0.503645 33.7458 1.02205 34.721 1.94492L34.9589 2.17138M52.1618 18.452L35.0382 2.2415C34.8877 2.0988 34.6959 2.00156 34.4871 1.96209C34.2782 1.92263 34.0617 1.94271 33.8649 2.01979C33.6681 2.09687 33.4999 2.2275 33.3815 2.39513C33.2632 2.56276 33.2 2.75987 33.2 2.9615V15.2692C33.2 16.5749 33.7479 17.8271 34.723 18.7503C35.6982 19.6736 37.0209 20.1923 38.4 20.1923H51.4C51.6131 20.1925 51.8215 20.1329 51.9987 20.0209C52.176 19.909 52.3141 19.7497 52.3957 19.5633C52.4773 19.377 52.4986 19.1719 52.457 18.974C52.4153 18.7762 52.3126 18.5945 52.1618 18.452Z" stroke="#E5D850" stroke-linecap="round" stroke-linejoin="round"/>
<rect x="6.5" y="30" width="57" height="23" rx="7.5" fill="#E5D850"/>
<rect x="6.5" y="30" width="57" height="23" rx="7.5" stroke="white"/>
<path d="M25.6534 45.5682C25.4432 45.5682 25.2628 45.4929 25.1122 45.3423C24.9616 45.1918 24.8864 45.0114 24.8864 44.8011C24.8864 44.5909 24.9616 44.4105 25.1122 44.2599C25.2628 44.1094 25.4432 44.0341 25.6534 44.0341C25.8636 44.0341 26.044 44.1094 26.1946 44.2599C26.3452 44.4105 26.4205 44.5909 26.4205 44.8011C26.4205 44.9403 26.3849 45.0682 26.3139 45.1847C26.2457 45.3011 26.1534 45.3949 26.0369 45.4659C25.9233 45.5341 25.7955 45.5682 25.6534 45.5682ZM30.6967 45.6364C30.1513 45.6364 29.6697 45.4986 29.2521 45.223C28.8345 44.9446 28.5078 44.5526 28.272 44.0469C28.0362 43.5384 27.9183 42.9375 27.9183 42.2443C27.9183 41.5568 28.0362 40.9602 28.272 40.4545C28.5078 39.9489 28.8359 39.5582 29.2564 39.2827C29.6768 39.0071 30.1626 38.8693 30.7138 38.8693C31.1399 38.8693 31.4766 38.9403 31.7237 39.0824C31.9737 39.2216 32.1641 39.3807 32.2947 39.5597C32.4283 39.7358 32.532 39.8807 32.6058 39.9943H32.6911V36.7727H33.6967V45.5H32.7251V44.4943H32.6058C32.532 44.6136 32.4268 44.7642 32.2905 44.946C32.1541 45.125 31.9595 45.2855 31.7067 45.4276C31.4538 45.5668 31.1172 45.6364 30.6967 45.6364ZM30.8331 44.733C31.2365 44.733 31.5774 44.6278 31.8558 44.4176C32.1342 44.2045 32.3459 43.9105 32.4908 43.5355C32.6357 43.1577 32.7081 42.7216 32.7081 42.2273C32.7081 41.7386 32.6371 41.3111 32.495 40.9446C32.353 40.5753 32.1428 40.2884 31.8643 40.0838C31.5859 39.8764 31.2422 39.7727 30.8331 39.7727C30.407 39.7727 30.0518 39.8821 29.7678 40.1009C29.4865 40.3168 29.2749 40.6108 29.1328 40.983C28.9936 41.3523 28.924 41.767 28.924 42.2273C28.924 42.6932 28.995 43.1165 29.1371 43.4972C29.282 43.875 29.495 44.1761 29.7763 44.4006C30.0604 44.6222 30.4126 44.733 30.8331 44.733ZM36.4283 38.9545L37.9964 41.6307L39.5646 38.9545H40.7237L38.6101 42.2273L40.7237 45.5H39.5646L37.9964 42.9602L36.4283 45.5H35.2692L37.3487 42.2273L35.2692 38.9545H36.4283ZM45.0735 38.9545V39.8068H41.5451V38.9545H45.0735ZM42.6019 45.5V38.0511C42.6019 37.6761 42.69 37.3636 42.8661 37.1136C43.0423 36.8636 43.271 36.6761 43.5522 36.5511C43.8335 36.4261 44.1303 36.3636 44.4428 36.3636C44.69 36.3636 44.8917 36.3835 45.0479 36.4233C45.2042 36.4631 45.3207 36.5 45.3974 36.5341L45.1076 37.4034C45.0565 37.3864 44.9854 37.3651 44.8945 37.3395C44.8065 37.3139 44.69 37.3011 44.5451 37.3011C44.2127 37.3011 43.9727 37.3849 43.8249 37.5526C43.68 37.7202 43.6076 37.9659 43.6076 38.2898V45.5H42.6019Z" fill="white"/>
</svg>
