<svg width="18" height="18" viewBox="0 0 18 18" fill="none" xmlns="http://www.w3.org/2000/svg">
<path d="M16.749 8.75036C16.749 12.5217 16.749 14.4069 15.5775 15.5784C14.406 16.7499 12.5199 16.7499 8.7495 16.7499C4.97907 16.7499 3.09296 16.7499 1.92148 15.5784C0.75 14.4069 0.75 12.5208 0.75 8.75036C0.75 4.97993 0.75 3.09383 1.92148 1.92235C3.09296 0.750868 4.97907 0.750868 8.7495 0.750868M6.55675 7.995C6.40643 8.14533 6.28722 8.32382 6.20593 8.52025C6.12464 8.71669 6.08287 8.92722 6.083 9.13981V11.417H8.37441C8.80371 11.417 9.21613 11.2463 9.52011 10.9424L16.2752 4.18368C16.4259 4.03341 16.5454 3.85491 16.6269 3.65839C16.7085 3.46186 16.7504 3.25119 16.7504 3.03842C16.7504 2.82565 16.7085 2.61497 16.6269 2.41845C16.5454 2.22193 16.4259 2.04342 16.2752 1.89316L15.6077 1.22565C15.4574 1.07488 15.2789 0.955257 15.0823 0.873636C14.8857 0.792015 14.6749 0.75 14.462 0.75C14.2492 0.75 14.0384 0.792015 13.8418 0.873636C13.6452 0.955257 13.4666 1.07488 13.3163 1.22565L6.55675 7.995Z" stroke="#0C8CE9" stroke-width="1.5" stroke-linecap="round" stroke-linejoin="round"/>
</svg>
