<svg width="11" height="15" viewBox="0 0 11 15" fill="none" xmlns="http://www.w3.org/2000/svg">
<path d="M11 0.5C11 0.223858 10.7761 0 10.5 0C10.2239 0 10 0.223858 10 0.5H10.5L11 0.5ZM0.146446 10.1464C-0.0488157 10.3417 -0.0488157 10.6583 0.146446 10.8536L3.32843 14.0355C3.52369 14.2308 3.84027 14.2308 4.03553 14.0355C4.2308 13.8403 4.2308 13.5237 4.03553 13.3284L1.20711 10.5L4.03553 7.67157C4.2308 7.47631 4.2308 7.15973 4.03553 6.96447C3.84027 6.7692 3.52369 6.7692 3.32843 6.96447L0.146446 10.1464ZM10.5 0.5H10V6.5H10.5H11V0.5L10.5 0.5ZM6.5 10.5V10H0.5V10.5V11H6.5V10.5ZM10.5 6.5H10C10 8.433 8.433 10 6.5 10V10.5V11C8.98528 11 11 8.98528 11 6.5H10.5Z" fill="#0C8CE9"/>
</svg>
