<svg width="64" height="65" viewBox="0 0 64 65" fill="none" xmlns="http://www.w3.org/2000/svg">
<path d="M52.2164 18.5049L52.4764 18.7523C52.9595 19.2095 53.3426 19.7523 53.6041 20.3497C53.8655 20.9472 54 21.5875 54 22.2342V59.5769C54 60.2234 53.8655 60.8636 53.6042 61.4609C53.3428 62.0582 52.9598 62.6009 52.477 63.0581C51.9941 63.5152 51.4208 63.8778 50.79 64.1253C50.1591 64.3727 49.4829 64.5 48.8 64.5H7.2C5.82087 64.5 4.49823 63.9813 3.52305 63.0581C2.54786 62.1348 2 60.8826 2 59.5769V5.42308C2 4.1174 2.54786 2.86519 3.52305 1.94194C4.49823 1.01868 5.82087 0.5 7.2 0.5L31.0446 0.503693C32.4234 0.503645 33.7458 1.02205 34.721 1.94492L34.9589 2.17138" fill="white"/>
<path d="M52.1618 18.452L35.0382 2.2415C34.8877 2.0988 34.6959 2.00156 34.4871 1.96209C34.2782 1.92263 34.0617 1.94271 33.8649 2.01979C33.6681 2.09687 33.4999 2.2275 33.3815 2.39513C33.2632 2.56276 33.2 2.75987 33.2 2.9615V15.2692C33.2 16.5749 33.7479 17.8271 34.723 18.7503C35.6982 19.6736 37.0209 20.1923 38.4 20.1923H51.4C51.6131 20.1925 51.8215 20.1329 51.9987 20.0209C52.176 19.909 52.3141 19.7497 52.3957 19.5633C52.4773 19.377 52.4986 19.1719 52.457 18.974C52.4153 18.7762 52.3126 18.5945 52.1618 18.452Z" fill="white"/>
<path d="M52.2164 18.5049L52.4764 18.7523C52.9595 19.2095 53.3426 19.7523 53.6041 20.3497C53.8655 20.9472 54 21.5875 54 22.2342V59.5769C54 60.2234 53.8655 60.8636 53.6042 61.4609C53.3428 62.0582 52.9598 62.6009 52.477 63.0581C51.9941 63.5152 51.4208 63.8778 50.79 64.1253C50.1591 64.3727 49.4829 64.5 48.8 64.5H7.2C5.82087 64.5 4.49823 63.9813 3.52305 63.0581C2.54786 62.1348 2 60.8826 2 59.5769V5.42308C2 4.1174 2.54786 2.86519 3.52305 1.94194C4.49823 1.01868 5.82087 0.5 7.2 0.5L31.0446 0.503693C32.4234 0.503645 33.7458 1.02205 34.721 1.94492L34.9589 2.17138M52.1618 18.452L35.0382 2.2415C34.8877 2.0988 34.6959 2.00156 34.4871 1.96209C34.2782 1.92263 34.0617 1.94271 33.8649 2.01979C33.6681 2.09687 33.4999 2.2275 33.3815 2.39513C33.2632 2.56276 33.2 2.75987 33.2 2.9615V15.2692C33.2 16.5749 33.7479 17.8271 34.723 18.7503C35.6982 19.6736 37.0209 20.1923 38.4 20.1923H51.4C51.6131 20.1925 51.8215 20.1329 51.9987 20.0209C52.176 19.909 52.3141 19.7497 52.3957 19.5633C52.4773 19.377 52.4986 19.1719 52.457 18.974C52.4153 18.7762 52.3126 18.5945 52.1618 18.452Z" stroke="#3C8A39" stroke-linecap="round" stroke-linejoin="round"/>
<path d="M10.616 33.5C10.1553 33.5 9.771 33.346 9.463 33.038C9.155 32.73 9.00067 32.3453 9 31.884V19.116C9 18.6553 9.15433 18.271 9.463 17.963C9.77167 17.655 10.156 17.5007 10.616 17.5H23.385C23.845 17.5 24.2293 17.6543 24.538 17.963C24.8467 18.2717 25.0007 18.656 25 19.116V31.885C25 32.345 24.846 32.7293 24.538 33.038C24.23 33.3467 23.8453 33.5007 23.384 33.5H10.616ZM16.5 27.904H10V31.884C10 32.064 10.0577 32.2117 10.173 32.327C10.2883 32.4423 10.436 32.5 10.616 32.5H16.5V27.904ZM17.5 27.904V32.5H23.385C23.5643 32.5 23.7117 32.4423 23.827 32.327C23.9423 32.2117 24 32.0643 24 31.885V27.904H17.5ZM16.5 26.904V22.269H10V26.904H16.5ZM17.5 26.904H24V22.269H17.5V26.904ZM10 21.269H24V19.115C24 18.9357 23.9423 18.7883 23.827 18.673C23.7117 18.5577 23.5643 18.5 23.385 18.5H10.615C10.4357 18.5 10.2883 18.5577 10.173 18.673C10.0577 18.7883 10 18.936 10 19.116V21.269Z" fill="#3C8A39" fill-opacity="0.5"/>
<rect x="6.5" y="30" width="57" height="23" rx="7.5" fill="#3C8A39"/>
<rect x="6.5" y="30" width="57" height="23" rx="7.5" stroke="white"/>
<path d="M23.6534 45.5682C23.4432 45.5682 23.2628 45.4929 23.1122 45.3423C22.9616 45.1918 22.8864 45.0114 22.8864 44.8011C22.8864 44.5909 22.9616 44.4105 23.1122 44.2599C23.2628 44.1094 23.4432 44.0341 23.6534 44.0341C23.8636 44.0341 24.044 44.1094 24.1946 44.2599C24.3452 44.4105 24.4205 44.5909 24.4205 44.8011C24.4205 44.9403 24.3849 45.0682 24.3139 45.1847C24.2457 45.3011 24.1534 45.3949 24.0369 45.4659C23.9233 45.5341 23.7955 45.5682 23.6534 45.5682ZM26.9751 38.9545L28.5433 41.6307L30.1115 38.9545H31.2706L29.157 42.2273L31.2706 45.5H30.1115L28.5433 42.9602L26.9751 45.5H25.8161L27.8956 42.2273L25.8161 38.9545H26.9751ZM33.7113 36.7727V45.5H32.7056V36.7727H33.7113ZM40.1896 40.4205L39.2862 40.6761C39.2294 40.5256 39.1456 40.3793 39.0348 40.2372C38.9268 40.0923 38.7791 39.973 38.5916 39.8793C38.4041 39.7855 38.1641 39.7386 37.8714 39.7386C37.4709 39.7386 37.1371 39.831 36.87 40.0156C36.6058 40.1974 36.4737 40.429 36.4737 40.7102C36.4737 40.9602 36.5646 41.1577 36.7464 41.3026C36.9283 41.4474 37.2124 41.5682 37.5987 41.6648L38.5703 41.9034C39.1555 42.0455 39.5916 42.2628 39.8786 42.5554C40.1655 42.8452 40.3089 43.2187 40.3089 43.6761C40.3089 44.0511 40.201 44.3864 39.9851 44.6818C39.772 44.9773 39.4737 45.2102 39.0902 45.3807C38.7067 45.5511 38.2607 45.6364 37.7521 45.6364C37.0845 45.6364 36.532 45.4915 36.0945 45.2017C35.657 44.9119 35.38 44.4886 35.2635 43.9318L36.218 43.6932C36.3089 44.0455 36.4808 44.3097 36.7337 44.4858C36.9893 44.6619 37.3232 44.75 37.7351 44.75C38.2038 44.75 38.576 44.6506 38.8516 44.4517C39.13 44.25 39.2692 44.0085 39.2692 43.7273C39.2692 43.5 39.1896 43.3097 39.0305 43.1562C38.8714 43 38.6271 42.8835 38.2976 42.8068L37.2067 42.5511C36.6072 42.4091 36.1669 42.1889 35.8857 41.8906C35.6072 41.5895 35.468 41.2131 35.468 40.7614C35.468 40.392 35.5717 40.0653 35.7791 39.7812C35.9893 39.4972 36.2749 39.2741 36.6357 39.1122C36.9993 38.9503 37.4112 38.8693 37.8714 38.8693C38.5192 38.8693 39.0277 39.0114 39.397 39.2955C39.7692 39.5795 40.0334 39.9545 40.1896 40.4205ZM42.5728 38.9545L44.141 41.6307L45.7092 38.9545H46.8683L44.7546 42.2273L46.8683 45.5H45.7092L44.141 42.9602L42.5728 45.5H41.4137L43.4933 42.2273L41.4137 38.9545H42.5728Z" fill="white"/>
</svg>
