<svg width="40" height="40" viewBox="0 0 40 40" fill="none" xmlns="http://www.w3.org/2000/svg">
<g filter="url(#filter0_d_3373_6794)">
<rect x="2" y="2" width="36" height="36" rx="8" fill="white" shape-rendering="crispEdges"/>
<path d="M13.8469 28C13.3204 28 12.8811 27.8198 12.5291 27.4593C12.1771 27.0988 12.0008 26.6486 12 26.1087V23.8581C12 23.6919 12.0545 23.553 12.1634 23.4414C12.2724 23.3299 12.4084 23.2737 12.5714 23.2729C12.7345 23.2721 12.8705 23.3283 12.9794 23.4414C13.0884 23.5546 13.1429 23.6935 13.1429 23.8581V26.1087C13.1429 26.2889 13.216 26.4543 13.3623 26.6049C13.5086 26.7555 13.6697 26.8304 13.8457 26.8296H26.1543C26.3295 26.8296 26.4907 26.7547 26.6377 26.6049C26.7848 26.4551 26.8579 26.2897 26.8571 26.1087V23.8581C26.8571 23.6919 26.9116 23.553 27.0206 23.4414C27.1295 23.3299 27.2655 23.2737 27.4286 23.2729C27.5916 23.2721 27.7276 23.3283 27.8366 23.4414C27.9455 23.5546 28 23.6935 28 23.8581V26.1087C28 26.6478 27.824 27.0977 27.472 27.4581C27.12 27.8186 26.6804 27.9992 26.1531 28H13.8469ZM19.4286 13.8702L17.176 16.177C17.0648 16.2909 16.9326 16.3506 16.7794 16.3561C16.6263 16.3615 16.4869 16.2995 16.3611 16.17C16.2392 16.0413 16.1771 15.9035 16.1749 15.7569C16.1726 15.6094 16.2347 15.4713 16.3611 15.3426L19.3531 12.2762C19.4537 12.1748 19.5558 12.1034 19.6594 12.062C19.7638 12.0207 19.8773 12 20 12C20.1227 12 20.2362 12.0207 20.3406 12.062C20.445 12.1034 20.547 12.1752 20.6469 12.2774L23.6389 15.3426C23.7509 15.4565 23.8095 15.5907 23.8149 15.7452C23.8194 15.8996 23.7611 16.0413 23.64 16.17C23.5135 16.2995 23.3775 16.3654 23.232 16.3678C23.0865 16.3701 22.9505 16.3065 22.824 16.177L20.5714 13.8702V23.4087C20.5714 23.5756 20.517 23.7149 20.408 23.8265C20.299 23.9381 20.163 23.9939 20 23.9939C19.837 23.9939 19.701 23.9381 19.592 23.8265C19.483 23.7149 19.4286 23.5756 19.4286 23.4087V13.8702Z" fill="#808080"/>
</g>
<defs>
<filter id="filter0_d_3373_6794" x="0" y="0" width="40" height="40" filterUnits="userSpaceOnUse" color-interpolation-filters="sRGB">
<feFlood flood-opacity="0" result="BackgroundImageFix"/>
<feColorMatrix in="SourceAlpha" type="matrix" values="0 0 0 0 0 0 0 0 0 0 0 0 0 0 0 0 0 0 127 0" result="hardAlpha"/>
<feOffset/>
<feGaussianBlur stdDeviation="1"/>
<feComposite in2="hardAlpha" operator="out"/>
<feColorMatrix type="matrix" values="0 0 0 0 0 0 0 0 0 0 0 0 0 0 0 0 0 0 0.25 0"/>
<feBlend mode="normal" in2="BackgroundImageFix" result="effect1_dropShadow_3373_6794"/>
<feBlend mode="normal" in="SourceGraphic" in2="effect1_dropShadow_3373_6794" result="shape"/>
</filter>
</defs>
</svg>
