<svg width="40" height="40" viewBox="0 0 40 40" fill="none" xmlns="http://www.w3.org/2000/svg">
<g filter="url(#filter0_d_3373_6592)">
<rect x="2" y="2" width="36" height="36" rx="8" fill="white" shape-rendering="crispEdges"/>
<path d="M25.7616 12H14.2384C13.6447 12 13.0754 12.2357 12.6556 12.6552C12.2358 13.0748 12 13.6438 12 14.2371V25.7629C12.0017 26.3557 12.238 26.9237 12.6574 27.3429C13.0769 27.7621 13.6452 27.9983 14.2384 28H25.7616C26.3548 27.9983 26.9231 27.7621 27.3426 27.3429C27.762 26.9237 27.9983 26.3557 28 25.7629V14.2371C28 13.9434 27.9421 13.6524 27.8296 13.381C27.7171 13.1096 27.5522 12.863 27.3444 12.6552C27.1365 12.4475 26.8898 12.2827 26.6182 12.1703C26.3466 12.0579 26.0556 12 25.7616 12ZM12.8954 14.2371C12.8954 13.8811 13.0369 13.5397 13.2887 13.288C13.5406 13.0363 13.8822 12.8949 14.2384 12.8949H25.7616C26.1178 12.8949 26.4594 13.0363 26.7113 13.288C26.9631 13.5397 27.1046 13.8811 27.1046 14.2371V21.9866L23.6307 18.5145C23.3777 18.2653 23.0368 18.1256 22.6816 18.1256C22.3264 18.1256 21.9855 18.2653 21.7325 18.5145L17.6497 22.604C17.5642 22.686 17.4503 22.7317 17.3318 22.7317C17.2134 22.7317 17.0995 22.686 17.014 22.604L16.5126 22.1029C16.2585 21.8558 15.918 21.7176 15.5635 21.7176C15.209 21.7176 14.8685 21.8558 14.6144 22.1029L12.8954 23.821V14.2371ZM27.1046 25.7629C27.1046 26.1189 26.9631 26.4603 26.7113 26.712C26.4594 26.9637 26.1178 27.1051 25.7616 27.1051H14.2384C13.8822 27.1051 13.5406 26.9637 13.2887 26.712C13.0369 26.4603 12.8954 26.1189 12.8954 25.7629V25.0917L15.2546 22.7383C15.3387 22.6572 15.4512 22.6123 15.568 22.613C15.6875 22.6118 15.803 22.6567 15.8903 22.7383L16.3828 23.2394C16.6357 23.4886 16.9767 23.6283 17.3318 23.6283C17.687 23.6283 18.028 23.4886 18.2809 23.2394L22.3727 19.1499C22.4143 19.108 22.4638 19.0747 22.5184 19.0519C22.5729 19.0292 22.6314 19.0175 22.6905 19.0175C22.7496 19.0175 22.8082 19.0292 22.8627 19.0519C22.9173 19.0747 22.9668 19.108 23.0084 19.1499L27.1091 23.2483L27.1046 25.7629Z" fill="black"/>
<path d="M16.4733 18.7149C16.0306 18.7149 15.5978 18.5837 15.2297 18.3379C14.8616 18.0921 14.5747 17.7427 14.4053 17.3339C14.2359 16.9251 14.1915 16.4753 14.2779 16.0413C14.3643 15.6074 14.5775 15.2087 14.8905 14.8959C15.2035 14.583 15.6024 14.3699 16.0366 14.2836C16.4708 14.1973 16.9209 14.2416 17.3299 14.4109C17.7389 14.5802 18.0885 14.867 18.3344 15.2349C18.5804 15.6028 18.7117 16.0353 18.7117 16.4778C18.7117 17.0711 18.4758 17.6401 18.0561 18.0597C17.6363 18.4792 17.0669 18.7149 16.4733 18.7149ZM16.4733 15.1355C16.2077 15.1355 15.948 15.2142 15.7271 15.3617C15.5063 15.5092 15.3341 15.7188 15.2325 15.9641C15.1308 16.2094 15.1042 16.4793 15.1561 16.7396C15.2079 17 15.3358 17.2392 15.5236 17.4269C15.7114 17.6146 15.9507 17.7425 16.2113 17.7943C16.4718 17.8461 16.7418 17.8195 16.9872 17.7179C17.2326 17.6163 17.4424 17.4442 17.59 17.2235C17.7375 17.0028 17.8163 16.7432 17.8163 16.4778C17.8163 16.1218 17.6748 15.7804 17.4229 15.5286C17.1711 15.2769 16.8295 15.1355 16.4733 15.1355Z" fill="black"/>
</g>
<defs>
<filter id="filter0_d_3373_6592" x="0" y="0" width="40" height="40" filterUnits="userSpaceOnUse" color-interpolation-filters="sRGB">
<feFlood flood-opacity="0" result="BackgroundImageFix"/>
<feColorMatrix in="SourceAlpha" type="matrix" values="0 0 0 0 0 0 0 0 0 0 0 0 0 0 0 0 0 0 127 0" result="hardAlpha"/>
<feOffset/>
<feGaussianBlur stdDeviation="1"/>
<feComposite in2="hardAlpha" operator="out"/>
<feColorMatrix type="matrix" values="0 0 0 0 0 0 0 0 0 0 0 0 0 0 0 0 0 0 0.25 0"/>
<feBlend mode="normal" in2="BackgroundImageFix" result="effect1_dropShadow_3373_6592"/>
<feBlend mode="normal" in="SourceGraphic" in2="effect1_dropShadow_3373_6592" result="shape"/>
</filter>
</defs>
</svg>
