<svg width="24" height="24" viewBox="0 0 24 24" fill="none" xmlns="http://www.w3.org/2000/svg">
<path fill-rule="evenodd" clip-rule="evenodd" d="M24.0012 12.2741C24.0012 11.4232 23.9233 10.605 23.7786 9.81958H12.2461V14.4614H18.8361C18.5522 15.9614 17.6895 17.2323 16.3927 18.0832V21.0941H20.35C22.6654 19.005 24.0012 15.9286 24.0012 12.2741Z" fill="#4285F4"/>
<path fill-rule="evenodd" clip-rule="evenodd" d="M12.2433 24C15.5494 24 18.3212 22.9254 20.3472 21.0927L16.3899 18.0818C15.2934 18.8018 13.8908 19.2273 12.2433 19.2273C9.05405 19.2273 6.3546 17.1164 5.3917 14.28H1.30078V17.3891C3.31563 21.3109 7.45664 24 12.2433 24Z" fill="#34A853"/>
<path fill-rule="evenodd" clip-rule="evenodd" d="M5.39334 14.2793C5.14844 13.5593 5.00929 12.7902 5.00929 11.9993C5.00929 11.2084 5.14844 10.4393 5.39334 9.71931V6.61023H1.30242C0.4731 8.23022 0 10.0629 0 11.9993C0 13.9357 0.4731 15.7684 1.30242 17.3884L5.39334 14.2793Z" fill="#FBBC05"/>
<path fill-rule="evenodd" clip-rule="evenodd" d="M12.2433 4.77271C14.0411 4.77271 15.6552 5.37816 16.9242 6.56724L20.4363 3.12544C18.3157 1.18909 15.5439 0 12.2433 0C7.45664 0 3.31563 2.68908 1.30078 6.61088L5.3917 9.71996C6.3546 6.88361 9.05405 4.77271 12.2433 4.77271Z" fill="#EA4335"/>
</svg>
