<svg width="64" height="65" viewBox="0 0 64 65" fill="none" xmlns="http://www.w3.org/2000/svg">
<path d="M52.2164 18.5049L52.4764 18.7523C52.9595 19.2095 53.3426 19.7523 53.6041 20.3497C53.8655 20.9472 54 21.5875 54 22.2342V59.5769C54 60.2234 53.8655 60.8636 53.6042 61.4609C53.3428 62.0582 52.9598 62.6009 52.477 63.0581C51.9941 63.5152 51.4208 63.8778 50.79 64.1253C50.1591 64.3727 49.4829 64.5 48.8 64.5H7.2C5.82087 64.5 4.49823 63.9813 3.52305 63.0581C2.54786 62.1348 2 60.8826 2 59.5769V5.42308C2 4.1174 2.54786 2.86519 3.52305 1.94194C4.49823 1.01868 5.82087 0.5 7.2 0.5L31.0446 0.503693C32.4234 0.503645 33.7458 1.02205 34.721 1.94492L34.9589 2.17138" fill="white"/>
<path d="M52.1618 18.452L35.0382 2.2415C34.8877 2.0988 34.6959 2.00156 34.4871 1.96209C34.2782 1.92263 34.0617 1.94271 33.8649 2.01979C33.6681 2.09687 33.4999 2.2275 33.3815 2.39513C33.2632 2.56276 33.2 2.75987 33.2 2.9615V15.2692C33.2 16.5749 33.7479 17.8271 34.723 18.7503C35.6982 19.6736 37.0209 20.1923 38.4 20.1923H51.4C51.6131 20.1925 51.8215 20.1329 51.9987 20.0209C52.176 19.909 52.3141 19.7497 52.3957 19.5633C52.4773 19.377 52.4986 19.1719 52.457 18.974C52.4153 18.7762 52.3126 18.5945 52.1618 18.452Z" fill="white"/>
<path d="M52.2164 18.5049L52.4764 18.7523C52.9595 19.2095 53.3426 19.7523 53.6041 20.3497C53.8655 20.9472 54 21.5875 54 22.2342V59.5769C54 60.2234 53.8655 60.8636 53.6042 61.4609C53.3428 62.0582 52.9598 62.6009 52.477 63.0581C51.9941 63.5152 51.4208 63.8778 50.79 64.1253C50.1591 64.3727 49.4829 64.5 48.8 64.5H7.2C5.82087 64.5 4.49823 63.9813 3.52305 63.0581C2.54786 62.1348 2 60.8826 2 59.5769V5.42308C2 4.1174 2.54786 2.86519 3.52305 1.94194C4.49823 1.01868 5.82087 0.5 7.2 0.5L31.0446 0.503693C32.4234 0.503645 33.7458 1.02205 34.721 1.94492L34.9589 2.17138M52.1618 18.452L35.0382 2.2415C34.8877 2.0988 34.6959 2.00156 34.4871 1.96209C34.2782 1.92263 34.0617 1.94271 33.8649 2.01979C33.6681 2.09687 33.4999 2.2275 33.3815 2.39513C33.2632 2.56276 33.2 2.75987 33.2 2.9615V15.2692C33.2 16.5749 33.7479 17.8271 34.723 18.7503C35.6982 19.6736 37.0209 20.1923 38.4 20.1923H51.4C51.6131 20.1925 51.8215 20.1329 51.9987 20.0209C52.176 19.909 52.3141 19.7497 52.3957 19.5633C52.4773 19.377 52.4986 19.1719 52.457 18.974C52.4153 18.7762 52.3126 18.5945 52.1618 18.452Z" stroke="#F767CC" stroke-linecap="round" stroke-linejoin="round"/>
<rect x="6.5" y="30" width="57" height="23" rx="7.5" fill="#F767CC"/>
<rect x="6.5" y="30" width="57" height="23" rx="7.5" stroke="white"/>
<path d="M23.1534 45.5682C22.9432 45.5682 22.7628 45.4929 22.6122 45.3423C22.4616 45.1918 22.3864 45.0114 22.3864 44.8011C22.3864 44.5909 22.4616 44.4105 22.6122 44.2599C22.7628 44.1094 22.9432 44.0341 23.1534 44.0341C23.3636 44.0341 23.544 44.1094 23.6946 44.2599C23.8452 44.4105 23.9205 44.5909 23.9205 44.8011C23.9205 44.9403 23.8849 45.0682 23.8139 45.1847C23.7457 45.3011 23.6534 45.3949 23.5369 45.4659C23.4233 45.5341 23.2955 45.5682 23.1534 45.5682ZM26.7308 41.5625V45.5H25.7251V36.7727H26.7308V39.9773H26.8161C26.9695 39.6392 27.1996 39.3707 27.5064 39.1719C27.8161 38.9702 28.228 38.8693 28.7422 38.8693C29.1882 38.8693 29.5788 38.9588 29.9141 39.1378C30.2493 39.3139 30.5092 39.5852 30.6939 39.9517C30.8814 40.3153 30.9751 40.7784 30.9751 41.3409V45.5H29.9695V41.4091C29.9695 40.8892 29.8345 40.4872 29.5646 40.2031C29.2976 39.9162 28.9268 39.7727 28.4524 39.7727C28.1229 39.7727 27.8274 39.8423 27.5661 39.9815C27.3075 40.1207 27.103 40.3239 26.9524 40.5909C26.8047 40.858 26.7308 41.1818 26.7308 41.5625ZM35.5593 45.6364C34.9286 45.6364 34.3846 45.4972 33.9272 45.2188C33.4727 44.9375 33.1218 44.5455 32.8746 44.0426C32.6303 43.5369 32.5082 42.9489 32.5082 42.2784C32.5082 41.608 32.6303 41.017 32.8746 40.5057C33.1218 39.9915 33.4656 39.5909 33.9059 39.304C34.3491 39.0142 34.8661 38.8693 35.457 38.8693C35.7979 38.8693 36.1346 38.9261 36.467 39.0398C36.7994 39.1534 37.1019 39.3381 37.3746 39.5938C37.6474 39.8466 37.8647 40.1818 38.0266 40.5994C38.1886 41.017 38.2695 41.5312 38.2695 42.142V42.5682H33.2241V41.6989H37.2468C37.2468 41.3295 37.1729 41 37.0252 40.7102C36.8803 40.4205 36.6729 40.1918 36.4031 40.0241C36.136 39.8565 35.8207 39.7727 35.457 39.7727C35.0565 39.7727 34.7099 39.8722 34.4173 40.071C34.1275 40.267 33.9045 40.5227 33.7482 40.8381C33.592 41.1534 33.5138 41.4915 33.5138 41.8523V42.4318C33.5138 42.9261 33.5991 43.3452 33.7695 43.6889C33.9428 44.0298 34.1829 44.2898 34.4897 44.4688C34.7965 44.6449 35.1531 44.733 35.5593 44.733C35.8235 44.733 36.0621 44.696 36.2752 44.6222C36.4911 44.5455 36.6772 44.4318 36.8335 44.2812C36.9897 44.1278 37.1104 43.9375 37.1957 43.7102L38.1673 43.983C38.065 44.3125 37.8931 44.6023 37.6516 44.8523C37.4102 45.0994 37.1119 45.2926 36.7567 45.4318C36.4016 45.5682 36.0025 45.6364 35.5593 45.6364ZM39.7994 45.5V38.9545H40.805V45.5H39.7994ZM40.3107 37.8636C40.1147 37.8636 39.9457 37.7969 39.8036 37.6634C39.6644 37.5298 39.5948 37.3693 39.5948 37.1818C39.5948 36.9943 39.6644 36.8338 39.8036 36.7003C39.9457 36.5668 40.1147 36.5 40.3107 36.5C40.5067 36.5 40.6744 36.5668 40.8136 36.7003C40.9556 36.8338 41.0266 36.9943 41.0266 37.1818C41.0266 37.3693 40.9556 37.5298 40.8136 37.6634C40.6744 37.7969 40.5067 37.8636 40.3107 37.8636ZM45.3061 45.6364C44.6925 45.6364 44.1641 45.4915 43.7209 45.2017C43.2777 44.9119 42.9368 44.5128 42.6982 44.0043C42.4595 43.4957 42.3402 42.9148 42.3402 42.2614C42.3402 41.5966 42.4624 41.0099 42.7067 40.5014C42.9538 39.9901 43.2976 39.5909 43.7379 39.304C44.1811 39.0142 44.6982 38.8693 45.2891 38.8693C45.7493 38.8693 46.1641 38.9545 46.5334 39.125C46.9027 39.2955 47.2053 39.5341 47.4411 39.8409C47.6768 40.1477 47.8232 40.5057 47.88 40.9148H46.8743C46.7976 40.6165 46.6271 40.3523 46.3629 40.1222C46.1016 39.8892 45.7493 39.7727 45.3061 39.7727C44.9141 39.7727 44.5703 39.875 44.2749 40.0795C43.9822 40.2812 43.7536 40.5668 43.5888 40.9361C43.4268 41.3026 43.3459 41.733 43.3459 42.2273C43.3459 42.733 43.4254 43.1733 43.5845 43.5483C43.7464 43.9233 43.9737 44.2145 44.2663 44.4219C44.5618 44.6293 44.9084 44.733 45.3061 44.733C45.5675 44.733 45.8047 44.6875 46.0178 44.5966C46.2308 44.5057 46.4112 44.375 46.5589 44.2045C46.7067 44.0341 46.8118 43.8295 46.8743 43.5909H47.88C47.8232 43.9773 47.6825 44.3253 47.4581 44.6349C47.2365 44.9418 46.9425 45.1861 46.576 45.3679C46.2124 45.5469 45.7891 45.6364 45.3061 45.6364Z" fill="white"/>
</svg>
