<svg width="16" height="16" viewBox="0 0 16 16" fill="none" xmlns="http://www.w3.org/2000/svg">
<path d="M8.02489 12.6489C8.22163 12.6489 8.38756 12.5813 8.52267 12.4462C8.65778 12.3111 8.72533 12.1452 8.72533 11.9484C8.72533 11.7517 8.65719 11.5858 8.52089 11.4507C8.38578 11.3156 8.21985 11.248 8.02311 11.248C7.82637 11.248 7.66044 11.3159 7.52533 11.4516C7.39022 11.5873 7.32296 11.7532 7.32356 11.9493C7.32356 12.1461 7.39111 12.312 7.52622 12.4471C7.66252 12.5822 7.82874 12.6498 8.02489 12.6498M8.00267 16C6.89689 16 5.85689 15.7902 4.88267 15.3707C3.90904 14.9505 3.06193 14.3804 2.34133 13.6604C1.62074 12.9404 1.05037 12.0942 0.630222 11.1218C0.210074 10.1493 0 9.10963 0 8.00267C0 6.8957 0.210074 5.8557 0.630222 4.88267C1.04978 3.90904 1.61896 3.06193 2.33778 2.34133C3.05659 1.62074 3.90311 1.05037 4.87733 0.630222C5.85156 0.210074 6.89156 0 7.99733 0C9.10311 0 10.1431 0.210074 11.1173 0.630222C12.091 1.04978 12.9381 1.61926 13.6587 2.33867C14.3793 3.05807 14.9496 3.90459 15.3698 4.87822C15.7899 5.85185 16 6.89155 16 7.99733C16 9.10311 15.7902 10.1431 15.3707 11.1173C14.9511 12.0916 14.381 12.9387 13.6604 13.6587C12.9399 14.3787 12.0936 14.949 11.1218 15.3698C10.1499 15.7905 9.11022 16.0006 8.00267 16ZM8 15.1111C9.98519 15.1111 11.6667 14.4222 13.0444 13.0444C14.4222 11.6667 15.1111 9.98518 15.1111 8C15.1111 6.01481 14.4222 4.33333 13.0444 2.95555C11.6667 1.57778 9.98519 0.888889 8 0.888889C6.01481 0.888889 4.33333 1.57778 2.95556 2.95555C1.57778 4.33333 0.888889 6.01481 0.888889 8C0.888889 9.98518 1.57778 11.6667 2.95556 13.0444C4.33333 14.4222 6.01481 15.1111 8 15.1111ZM8.05511 4.21244C8.50548 4.21244 8.89304 4.352 9.21778 4.63111C9.5437 4.91022 9.70667 5.25955 9.70667 5.67911C9.70667 6.00504 9.61481 6.29956 9.43111 6.56267C9.24859 6.82578 9.03704 7.06844 8.79644 7.29067C8.49185 7.56681 8.2237 7.87052 7.992 8.20178C7.7603 8.53363 7.62726 8.89896 7.59289 9.29778C7.58163 9.41393 7.61807 9.51111 7.70222 9.58933C7.78519 9.66696 7.88296 9.70578 7.99556 9.70578C8.11467 9.70578 8.21511 9.66607 8.29689 9.58667C8.37807 9.50667 8.42963 9.41244 8.45156 9.304C8.51082 9.00474 8.62993 8.73837 8.80889 8.50489C8.98726 8.272 9.18341 8.05155 9.39733 7.84355C9.70489 7.53778 9.97778 7.20444 10.216 6.84355C10.4548 6.48326 10.5742 6.08118 10.5742 5.63733C10.5742 4.98489 10.3265 4.44622 9.83111 4.02133C9.3363 3.59704 8.75556 3.38489 8.08889 3.38489C7.59467 3.38489 7.13452 3.50044 6.70844 3.73155C6.28296 3.96267 5.94252 4.28267 5.68711 4.69156C5.62904 4.78993 5.61037 4.89156 5.63111 4.99644C5.65185 5.10133 5.70815 5.18104 5.8 5.23556C5.91733 5.29718 6.03585 5.31141 6.15556 5.27822C6.27526 5.24504 6.38074 5.1763 6.472 5.072C6.66933 4.82667 6.90163 4.62222 7.16889 4.45867C7.43556 4.29393 7.73096 4.21244 8.05511 4.21244Z" fill="#333333"/>
</svg>
