<svg width="64" height="65" viewBox="0 0 64 65" fill="none" xmlns="http://www.w3.org/2000/svg">
<path d="M52.2164 18.5049L52.4764 18.7523C52.9595 19.2095 53.3426 19.7523 53.6041 20.3497C53.8655 20.9472 54 21.5875 54 22.2342V59.5769C54 60.2234 53.8655 60.8636 53.6042 61.4609C53.3428 62.0582 52.9598 62.6009 52.477 63.0581C51.9941 63.5152 51.4208 63.8778 50.79 64.1253C50.1591 64.3727 49.4829 64.5 48.8 64.5H7.2C5.82087 64.5 4.49823 63.9813 3.52305 63.0581C2.54786 62.1348 2 60.8826 2 59.5769V5.42308C2 4.1174 2.54786 2.86519 3.52305 1.94194C4.49823 1.01868 5.82087 0.5 7.2 0.5L31.0446 0.503693C32.4234 0.503645 33.7458 1.02205 34.721 1.94492L34.9589 2.17138" fill="white"/>
<path d="M52.1618 18.452L35.0382 2.2415C34.8877 2.0988 34.6959 2.00156 34.4871 1.96209C34.2782 1.92263 34.0617 1.94271 33.8649 2.01979C33.6681 2.09687 33.4999 2.2275 33.3815 2.39513C33.2632 2.56276 33.2 2.75987 33.2 2.9615V15.2692C33.2 16.5749 33.7479 17.8271 34.723 18.7503C35.6982 19.6736 37.0209 20.1923 38.4 20.1923H51.4C51.6131 20.1925 51.8215 20.1329 51.9987 20.0209C52.176 19.909 52.3141 19.7497 52.3957 19.5633C52.4773 19.377 52.4986 19.1719 52.457 18.974C52.4153 18.7762 52.3126 18.5945 52.1618 18.452Z" fill="white"/>
<path d="M52.2164 18.5049L52.4764 18.7523C52.9595 19.2095 53.3426 19.7523 53.6041 20.3497C53.8655 20.9472 54 21.5875 54 22.2342V59.5769C54 60.2234 53.8655 60.8636 53.6042 61.4609C53.3428 62.0582 52.9598 62.6009 52.477 63.0581C51.9941 63.5152 51.4208 63.8778 50.79 64.1253C50.1591 64.3727 49.4829 64.5 48.8 64.5H7.2C5.82087 64.5 4.49823 63.9813 3.52305 63.0581C2.54786 62.1348 2 60.8826 2 59.5769V5.42308C2 4.1174 2.54786 2.86519 3.52305 1.94194C4.49823 1.01868 5.82087 0.5 7.2 0.5L31.0446 0.503693C32.4234 0.503645 33.7458 1.02205 34.721 1.94492L34.9589 2.17138M52.1618 18.452L35.0382 2.2415C34.8877 2.0988 34.6959 2.00156 34.4871 1.96209C34.2782 1.92263 34.0617 1.94271 33.8649 2.01979C33.6681 2.09687 33.4999 2.2275 33.3815 2.39513C33.2632 2.56276 33.2 2.75987 33.2 2.9615V15.2692C33.2 16.5749 33.7479 17.8271 34.723 18.7503C35.6982 19.6736 37.0209 20.1923 38.4 20.1923H51.4C51.6131 20.1925 51.8215 20.1329 51.9987 20.0209C52.176 19.909 52.3141 19.7497 52.3957 19.5633C52.4773 19.377 52.4986 19.1719 52.457 18.974C52.4153 18.7762 52.3126 18.5945 52.1618 18.452Z" stroke="#F767CC" stroke-linecap="round" stroke-linejoin="round"/>
<rect x="6.5" y="30" width="57" height="23" rx="7.5" fill="#F767CC"/>
<rect x="6.5" y="30" width="57" height="23" rx="7.5" stroke="white"/>
<path d="M26.1534 45.5682C25.9432 45.5682 25.7628 45.4929 25.6122 45.3423C25.4616 45.1918 25.3864 45.0114 25.3864 44.8011C25.3864 44.5909 25.4616 44.4105 25.6122 44.2599C25.7628 44.1094 25.9432 44.0341 26.1534 44.0341C26.3636 44.0341 26.544 44.1094 26.6946 44.2599C26.8452 44.4105 26.9205 44.5909 26.9205 44.8011C26.9205 44.9403 26.8849 45.0682 26.8139 45.1847C26.7457 45.3011 26.6534 45.3949 26.5369 45.4659C26.4233 45.5341 26.2955 45.5682 26.1534 45.5682ZM28.7251 38.9545H29.7308V45.9773C29.7308 46.3807 29.6612 46.7301 29.522 47.0256C29.3857 47.321 29.1783 47.5497 28.8999 47.7116C28.6243 47.8736 28.2763 47.9545 27.8558 47.9545C27.8217 47.9545 27.7876 47.9545 27.7536 47.9545C27.7195 47.9545 27.6854 47.9545 27.6513 47.9545V47.017C27.6854 47.017 27.7166 47.017 27.745 47.017C27.7734 47.017 27.8047 47.017 27.8388 47.017C28.1456 47.017 28.37 46.9261 28.5121 46.7443C28.6541 46.5653 28.7251 46.3097 28.7251 45.9773V38.9545ZM29.2195 37.8636C29.0234 37.8636 28.8544 37.7969 28.7124 37.6634C28.5732 37.5298 28.5036 37.3693 28.5036 37.1818C28.5036 36.9943 28.5732 36.8338 28.7124 36.7003C28.8544 36.5668 29.0234 36.5 29.2195 36.5C29.4155 36.5 29.5831 36.5668 29.7223 36.7003C29.8643 36.8338 29.9354 36.9943 29.9354 37.1818C29.9354 37.3693 29.8643 37.5298 29.7223 37.6634C29.5831 37.7969 29.4155 37.8636 29.2195 37.8636ZM31.5728 47.9545V38.9545H32.5444V39.9943H32.6637C32.7376 39.8807 32.8398 39.7358 32.9705 39.5597C33.104 39.3807 33.2944 39.2216 33.5415 39.0824C33.7915 38.9403 34.1296 38.8693 34.5558 38.8693C35.1069 38.8693 35.5927 39.0071 36.0131 39.2827C36.4336 39.5582 36.7617 39.9489 36.9975 40.4545C37.2333 40.9602 37.3512 41.5568 37.3512 42.2443C37.3512 42.9375 37.2333 43.5384 36.9975 44.0469C36.7617 44.5526 36.435 44.9446 36.0174 45.223C35.5998 45.4986 35.1183 45.6364 34.5728 45.6364C34.1523 45.6364 33.8157 45.5668 33.5629 45.4276C33.31 45.2855 33.1154 45.125 32.979 44.946C32.8427 44.7642 32.7376 44.6136 32.6637 44.4943H32.5785V47.9545H31.5728ZM32.5614 42.2273C32.5614 42.7216 32.6339 43.1577 32.7788 43.5355C32.9237 43.9105 33.1353 44.2045 33.4137 44.4176C33.6921 44.6278 34.033 44.733 34.4364 44.733C34.8569 44.733 35.2077 44.6222 35.489 44.4006C35.7731 44.1761 35.9862 43.875 36.1282 43.4972C36.2731 43.1165 36.3455 42.6932 36.3455 42.2273C36.3455 41.767 36.2745 41.3523 36.1325 40.983C35.9933 40.6108 35.7816 40.3168 35.4975 40.1009C35.2163 39.8821 34.8626 39.7727 34.4364 39.7727C34.0273 39.7727 33.6836 39.8764 33.4052 40.0838C33.1268 40.2884 32.9165 40.5753 32.7745 40.9446C32.6325 41.3111 32.5614 41.7386 32.5614 42.2273ZM41.5273 48.0909C41.0415 48.0909 40.6239 48.0284 40.2745 47.9034C39.9251 47.7812 39.6339 47.6193 39.4009 47.4176C39.1708 47.2188 38.9876 47.0057 38.8512 46.7784L39.6523 46.2159C39.7433 46.3352 39.8583 46.4716 39.9975 46.625C40.1367 46.7812 40.3271 46.9162 40.5685 47.0298C40.8129 47.1463 41.1325 47.2045 41.5273 47.2045C42.0558 47.2045 42.4918 47.0767 42.8356 46.821C43.1793 46.5653 43.3512 46.1648 43.3512 45.6193V44.2898H43.266C43.1921 44.4091 43.087 44.5568 42.9506 44.733C42.8171 44.9062 42.6239 45.0611 42.3711 45.1974C42.1211 45.331 41.783 45.3977 41.3569 45.3977C40.8285 45.3977 40.354 45.2727 39.9336 45.0227C39.516 44.7727 39.185 44.4091 38.9407 43.9318C38.6992 43.4545 38.5785 42.875 38.5785 42.1932C38.5785 41.5227 38.6964 40.9389 38.9322 40.4418C39.168 39.9418 39.4961 39.5554 39.9165 39.2827C40.337 39.0071 40.8228 38.8693 41.3739 38.8693C41.8001 38.8693 42.1381 38.9403 42.3881 39.0824C42.641 39.2216 42.8342 39.3807 42.9677 39.5597C43.104 39.7358 43.2092 39.8807 43.283 39.9943H43.3853V38.9545H44.3569V45.6875C44.3569 46.25 44.229 46.7074 43.9734 47.0597C43.7205 47.4148 43.3796 47.6747 42.9506 47.8395C42.5245 48.0071 42.0501 48.0909 41.5273 48.0909ZM41.4933 44.4943C41.8967 44.4943 42.2376 44.402 42.516 44.2173C42.7944 44.0327 43.006 43.767 43.1509 43.4205C43.2958 43.0739 43.3683 42.6591 43.3683 42.1761C43.3683 41.7045 43.2972 41.2884 43.1552 40.9276C43.0131 40.5668 42.8029 40.2841 42.5245 40.0795C42.2461 39.875 41.9023 39.7727 41.4933 39.7727C41.0671 39.7727 40.712 39.8807 40.4279 40.0966C40.1467 40.3125 39.935 40.6023 39.793 40.9659C39.6538 41.3295 39.5842 41.733 39.5842 42.1761C39.5842 42.6307 39.6552 43.0327 39.7972 43.3821C39.9421 43.7287 40.1552 44.0014 40.4364 44.2003C40.7205 44.3963 41.0728 44.4943 41.4933 44.4943Z" fill="white"/>
</svg>
