<svg width="64" height="65" viewBox="0 0 64 65" fill="none" xmlns="http://www.w3.org/2000/svg">
<path d="M52.2164 18.5049L52.4764 18.7523C52.9595 19.2095 53.3426 19.7523 53.6041 20.3497C53.8655 20.9472 54 21.5875 54 22.2342V59.5769C54 60.2234 53.8655 60.8636 53.6042 61.4609C53.3428 62.0582 52.9598 62.6009 52.477 63.0581C51.9941 63.5152 51.4208 63.8778 50.79 64.1253C50.1591 64.3727 49.4829 64.5 48.8 64.5H7.2C5.82087 64.5 4.49823 63.9813 3.52305 63.0581C2.54786 62.1348 2 60.8826 2 59.5769V5.42308C2 4.1174 2.54786 2.86519 3.52305 1.94194C4.49823 1.01868 5.82087 0.5 7.2 0.5L31.0446 0.503693C32.4234 0.503645 33.7458 1.02205 34.721 1.94492L34.9589 2.17138" fill="white"/>
<path d="M52.1618 18.452L35.0382 2.2415C34.8877 2.0988 34.6959 2.00156 34.4871 1.96209C34.2782 1.92263 34.0617 1.94271 33.8649 2.01979C33.6681 2.09687 33.4999 2.2275 33.3815 2.39513C33.2632 2.56276 33.2 2.75987 33.2 2.9615V15.2692C33.2 16.5749 33.7479 17.8271 34.723 18.7503C35.6982 19.6736 37.0209 20.1923 38.4 20.1923H51.4C51.6131 20.1925 51.8215 20.1329 51.9987 20.0209C52.176 19.909 52.3141 19.7497 52.3957 19.5633C52.4773 19.377 52.4986 19.1719 52.457 18.974C52.4153 18.7762 52.3126 18.5945 52.1618 18.452Z" fill="white"/>
<path d="M52.2164 18.5049L52.4764 18.7523C52.9595 19.2095 53.3426 19.7523 53.6041 20.3497C53.8655 20.9472 54 21.5875 54 22.2342V59.5769C54 60.2234 53.8655 60.8636 53.6042 61.4609C53.3428 62.0582 52.9598 62.6009 52.477 63.0581C51.9941 63.5152 51.4208 63.8778 50.79 64.1253C50.1591 64.3727 49.4829 64.5 48.8 64.5H7.2C5.82087 64.5 4.49823 63.9813 3.52305 63.0581C2.54786 62.1348 2 60.8826 2 59.5769V5.42308C2 4.1174 2.54786 2.86519 3.52305 1.94194C4.49823 1.01868 5.82087 0.5 7.2 0.5L31.0446 0.503693C32.4234 0.503645 33.7458 1.02205 34.721 1.94492L34.9589 2.17138M52.1618 18.452L35.0382 2.2415C34.8877 2.0988 34.6959 2.00156 34.4871 1.96209C34.2782 1.92263 34.0617 1.94271 33.8649 2.01979C33.6681 2.09687 33.4999 2.2275 33.3815 2.39513C33.2632 2.56276 33.2 2.75987 33.2 2.9615V15.2692C33.2 16.5749 33.7479 17.8271 34.723 18.7503C35.6982 19.6736 37.0209 20.1923 38.4 20.1923H51.4C51.6131 20.1925 51.8215 20.1329 51.9987 20.0209C52.176 19.909 52.3141 19.7497 52.3957 19.5633C52.4773 19.377 52.4986 19.1719 52.457 18.974C52.4153 18.7762 52.3126 18.5945 52.1618 18.452Z" stroke="#F767CC" stroke-linecap="round" stroke-linejoin="round"/>
<rect x="6.5" y="30" width="57" height="23" rx="7.5" fill="#F767CC"/>
<rect x="6.5" y="30" width="57" height="23" rx="7.5" stroke="white"/>
<path d="M22.6534 45.5682C22.4432 45.5682 22.2628 45.4929 22.1122 45.3423C21.9616 45.1918 21.8864 45.0114 21.8864 44.8011C21.8864 44.5909 21.9616 44.4105 22.1122 44.2599C22.2628 44.1094 22.4432 44.0341 22.6534 44.0341C22.8636 44.0341 23.044 44.1094 23.1946 44.2599C23.3452 44.4105 23.4205 44.5909 23.4205 44.8011C23.4205 44.9403 23.3849 45.0682 23.3139 45.1847C23.2457 45.3011 23.1534 45.3949 23.0369 45.4659C22.9233 45.5341 22.7955 45.5682 22.6534 45.5682ZM25.2251 38.9545H26.2308V45.9773C26.2308 46.3807 26.1612 46.7301 26.022 47.0256C25.8857 47.321 25.6783 47.5497 25.3999 47.7116C25.1243 47.8736 24.7763 47.9545 24.3558 47.9545C24.3217 47.9545 24.2876 47.9545 24.2536 47.9545C24.2195 47.9545 24.1854 47.9545 24.1513 47.9545V47.017C24.1854 47.017 24.2166 47.017 24.245 47.017C24.2734 47.017 24.3047 47.017 24.3388 47.017C24.6456 47.017 24.87 46.9261 25.0121 46.7443C25.1541 46.5653 25.2251 46.3097 25.2251 45.9773V38.9545ZM25.7195 37.8636C25.5234 37.8636 25.3544 37.7969 25.2124 37.6634C25.0732 37.5298 25.0036 37.3693 25.0036 37.1818C25.0036 36.9943 25.0732 36.8338 25.2124 36.7003C25.3544 36.5668 25.5234 36.5 25.7195 36.5C25.9155 36.5 26.0831 36.5668 26.2223 36.7003C26.3643 36.8338 26.4354 36.9943 26.4354 37.1818C26.4354 37.3693 26.3643 37.5298 26.2223 37.6634C26.0831 37.7969 25.9155 37.8636 25.7195 37.8636ZM28.0728 47.9545V38.9545H29.0444V39.9943H29.1637C29.2376 39.8807 29.3398 39.7358 29.4705 39.5597C29.604 39.3807 29.7944 39.2216 30.0415 39.0824C30.2915 38.9403 30.6296 38.8693 31.0558 38.8693C31.6069 38.8693 32.0927 39.0071 32.5131 39.2827C32.9336 39.5582 33.2617 39.9489 33.4975 40.4545C33.7333 40.9602 33.8512 41.5568 33.8512 42.2443C33.8512 42.9375 33.7333 43.5384 33.4975 44.0469C33.2617 44.5526 32.935 44.9446 32.5174 45.223C32.0998 45.4986 31.6183 45.6364 31.0728 45.6364C30.6523 45.6364 30.3157 45.5668 30.0629 45.4276C29.81 45.2855 29.6154 45.125 29.479 44.946C29.3427 44.7642 29.2376 44.6136 29.1637 44.4943H29.0785V47.9545H28.0728ZM29.0614 42.2273C29.0614 42.7216 29.1339 43.1577 29.2788 43.5355C29.4237 43.9105 29.6353 44.2045 29.9137 44.4176C30.1921 44.6278 30.533 44.733 30.9364 44.733C31.3569 44.733 31.7077 44.6222 31.989 44.4006C32.2731 44.1761 32.4862 43.875 32.6282 43.4972C32.7731 43.1165 32.8455 42.6932 32.8455 42.2273C32.8455 41.767 32.7745 41.3523 32.6325 40.983C32.4933 40.6108 32.2816 40.3168 31.9975 40.1009C31.7163 39.8821 31.3626 39.7727 30.9364 39.7727C30.5273 39.7727 30.1836 39.8764 29.9052 40.0838C29.6268 40.2884 29.4165 40.5753 29.2745 40.9446C29.1325 41.3111 29.0614 41.7386 29.0614 42.2273ZM38.0273 48.0909C37.5415 48.0909 37.1239 48.0284 36.7745 47.9034C36.4251 47.7812 36.1339 47.6193 35.9009 47.4176C35.6708 47.2188 35.4876 47.0057 35.3512 46.7784L36.1523 46.2159C36.2433 46.3352 36.3583 46.4716 36.4975 46.625C36.6367 46.7812 36.8271 46.9162 37.0685 47.0298C37.3129 47.1463 37.6325 47.2045 38.0273 47.2045C38.5558 47.2045 38.9918 47.0767 39.3356 46.821C39.6793 46.5653 39.8512 46.1648 39.8512 45.6193V44.2898H39.766C39.6921 44.4091 39.587 44.5568 39.4506 44.733C39.3171 44.9062 39.1239 45.0611 38.8711 45.1974C38.6211 45.331 38.283 45.3977 37.8569 45.3977C37.3285 45.3977 36.854 45.2727 36.4336 45.0227C36.016 44.7727 35.685 44.4091 35.4407 43.9318C35.1992 43.4545 35.0785 42.875 35.0785 42.1932C35.0785 41.5227 35.1964 40.9389 35.4322 40.4418C35.668 39.9418 35.9961 39.5554 36.4165 39.2827C36.837 39.0071 37.3228 38.8693 37.8739 38.8693C38.3001 38.8693 38.6381 38.9403 38.8881 39.0824C39.141 39.2216 39.3342 39.3807 39.4677 39.5597C39.604 39.7358 39.7092 39.8807 39.783 39.9943H39.8853V38.9545H40.8569V45.6875C40.8569 46.25 40.729 46.7074 40.4734 47.0597C40.2205 47.4148 39.8796 47.6747 39.4506 47.8395C39.0245 48.0071 38.5501 48.0909 38.0273 48.0909ZM37.9933 44.4943C38.3967 44.4943 38.7376 44.402 39.016 44.2173C39.2944 44.0327 39.506 43.767 39.6509 43.4205C39.7958 43.0739 39.8683 42.6591 39.8683 42.1761C39.8683 41.7045 39.7972 41.2884 39.6552 40.9276C39.5131 40.5668 39.3029 40.2841 39.0245 40.0795C38.7461 39.875 38.4023 39.7727 37.9933 39.7727C37.5671 39.7727 37.212 39.8807 36.9279 40.0966C36.6467 40.3125 36.435 40.6023 36.293 40.9659C36.1538 41.3295 36.0842 41.733 36.0842 42.1761C36.0842 42.6307 36.1552 43.0327 36.2972 43.3821C36.4421 43.7287 36.6552 44.0014 36.9364 44.2003C37.2205 44.3963 37.5728 44.4943 37.9933 44.4943ZM45.4421 45.6364C44.8114 45.6364 44.2674 45.4972 43.81 45.2188C43.3555 44.9375 43.0046 44.5455 42.7575 44.0426C42.5131 43.5369 42.391 42.9489 42.391 42.2784C42.391 41.608 42.5131 41.017 42.7575 40.5057C43.0046 39.9915 43.3484 39.5909 43.7887 39.304C44.2319 39.0142 44.7489 38.8693 45.3398 38.8693C45.6808 38.8693 46.0174 38.9261 46.3498 39.0398C46.6822 39.1534 46.9847 39.3381 47.2575 39.5938C47.5302 39.8466 47.7475 40.1818 47.9094 40.5994C48.0714 41.017 48.1523 41.5312 48.1523 42.142V42.5682H43.1069V41.6989H47.1296C47.1296 41.3295 47.0558 41 46.908 40.7102C46.7631 40.4205 46.5558 40.1918 46.2859 40.0241C46.0188 39.8565 45.7035 39.7727 45.3398 39.7727C44.9393 39.7727 44.5927 39.8722 44.3001 40.071C44.0103 40.267 43.7873 40.5227 43.631 40.8381C43.4748 41.1534 43.3967 41.4915 43.3967 41.8523V42.4318C43.3967 42.9261 43.4819 43.3452 43.6523 43.6889C43.8256 44.0298 44.0657 44.2898 44.3725 44.4688C44.6793 44.6449 45.0359 44.733 45.4421 44.733C45.7063 44.733 45.945 44.696 46.158 44.6222C46.3739 44.5455 46.56 44.4318 46.7163 44.2812C46.8725 44.1278 46.9933 43.9375 47.0785 43.7102L48.0501 43.983C47.9478 44.3125 47.7759 44.6023 47.5344 44.8523C47.293 45.0994 46.9947 45.2926 46.6396 45.4318C46.2844 45.5682 45.8853 45.6364 45.4421 45.6364Z" fill="white"/>
</svg>
