<svg width="16" height="16" viewBox="0 0 16 16" fill="none" xmlns="http://www.w3.org/2000/svg">
<path d="M14.384 16C14.8447 16 15.229 15.846 15.537 15.538C15.845 15.23 15.9993 14.8453 16 14.384V1.616C16 1.15533 15.8457 0.771 15.537 0.463C15.2283 0.155 14.844 0.000666667 14.384 0H7.981V1H14.384C14.538 1 14.6793 1.064 14.808 1.192C14.9367 1.32 15.0007 1.46133 15 1.616V14.385C15 14.5383 14.936 14.6793 14.808 14.808C14.68 14.9367 14.539 15.0007 14.385 15H7.981V16H14.384ZM3.538 11.539L4.24 10.819L1.921 8.5H10.808V7.5H1.921L4.241 5.18L3.539 4.462L0 8L3.538 11.539Z" fill="black" fill-opacity="0.8"/>
</svg>
