<svg width="64" height="65" viewBox="0 0 64 65" fill="none" xmlns="http://www.w3.org/2000/svg">
<path d="M52.2164 18.5049L52.4764 18.7523C52.9595 19.2095 53.3426 19.7523 53.6041 20.3497C53.8655 20.9472 54 21.5875 54 22.2342V59.5769C54 60.2234 53.8655 60.8636 53.6042 61.4609C53.3428 62.0582 52.9598 62.6009 52.477 63.0581C51.9941 63.5152 51.4208 63.8778 50.79 64.1253C50.1591 64.3727 49.4829 64.5 48.8 64.5H7.2C5.82087 64.5 4.49823 63.9813 3.52305 63.0581C2.54786 62.1348 2 60.8826 2 59.5769V5.42308C2 4.1174 2.54786 2.86519 3.52305 1.94194C4.49823 1.01868 5.82087 0.5 7.2 0.5L31.0446 0.503693C32.4234 0.503645 33.7458 1.02205 34.721 1.94492L34.9589 2.17138" fill="white"/>
<path d="M52.1618 18.452L35.0382 2.2415C34.8877 2.0988 34.6959 2.00156 34.4871 1.96209C34.2782 1.92263 34.0617 1.94271 33.8649 2.01979C33.6681 2.09687 33.4999 2.2275 33.3815 2.39513C33.2632 2.56276 33.2 2.75987 33.2 2.9615V15.2692C33.2 16.5749 33.7479 17.8271 34.723 18.7503C35.6982 19.6736 37.0209 20.1923 38.4 20.1923H51.4C51.6131 20.1925 51.8215 20.1329 51.9987 20.0209C52.176 19.909 52.3141 19.7497 52.3957 19.5633C52.4773 19.377 52.4986 19.1719 52.457 18.974C52.4153 18.7762 52.3126 18.5945 52.1618 18.452Z" fill="white"/>
<path d="M52.2164 18.5049L52.4764 18.7523C52.9595 19.2095 53.3426 19.7523 53.6041 20.3497C53.8655 20.9472 54 21.5875 54 22.2342V59.5769C54 60.2234 53.8655 60.8636 53.6042 61.4609C53.3428 62.0582 52.9598 62.6009 52.477 63.0581C51.9941 63.5152 51.4208 63.8778 50.79 64.1253C50.1591 64.3727 49.4829 64.5 48.8 64.5H7.2C5.82087 64.5 4.49823 63.9813 3.52305 63.0581C2.54786 62.1348 2 60.8826 2 59.5769V5.42308C2 4.1174 2.54786 2.86519 3.52305 1.94194C4.49823 1.01868 5.82087 0.5 7.2 0.5L31.0446 0.503693C32.4234 0.503645 33.7458 1.02205 34.721 1.94492L34.9589 2.17138M52.1618 18.452L35.0382 2.2415C34.8877 2.0988 34.6959 2.00156 34.4871 1.96209C34.2782 1.92263 34.0617 1.94271 33.8649 2.01979C33.6681 2.09687 33.4999 2.2275 33.3815 2.39513C33.2632 2.56276 33.2 2.75987 33.2 2.9615V15.2692C33.2 16.5749 33.7479 17.8271 34.723 18.7503C35.6982 19.6736 37.0209 20.1923 38.4 20.1923H51.4C51.6131 20.1925 51.8215 20.1329 51.9987 20.0209C52.176 19.909 52.3141 19.7497 52.3957 19.5633C52.4773 19.377 52.4986 19.1719 52.457 18.974C52.4153 18.7762 52.3126 18.5945 52.1618 18.452Z" stroke="#2F3BE3" stroke-linecap="round" stroke-linejoin="round"/>
<path d="M20.211 25.6061L13.737 22.3681C13.554 22.2765 13.3506 22.2332 13.1461 22.2424C12.9417 22.2516 12.743 22.3129 12.5689 22.4206C12.3949 22.5282 12.2512 22.6785 12.1516 22.8573C12.052 23.0361 11.9999 23.2374 12 23.4421V29.5581C11.9999 29.7627 12.052 29.964 12.1516 30.1428C12.2512 30.3216 12.3949 30.472 12.5689 30.5796C12.743 30.6872 12.9417 30.7485 13.1461 30.7577C13.3506 30.7669 13.554 30.7237 13.737 30.6321L20.211 27.3941C20.3769 27.3109 20.5164 27.1833 20.6138 27.0254C20.7113 26.8675 20.7629 26.6856 20.7629 26.5001C20.7629 26.3145 20.7113 26.1326 20.6138 25.9747C20.5164 25.8169 20.3769 25.6892 20.211 25.6061Z" stroke="#2F3BE3" stroke-opacity="0.5" stroke-linecap="round" stroke-linejoin="round"/>
<path d="M16 35.5C20.9706 35.5 25 31.4706 25 26.5C25 21.5294 20.9706 17.5 16 17.5C11.0294 17.5 7 21.5294 7 26.5C7 31.4706 11.0294 35.5 16 35.5Z" stroke="#2F3BE3" stroke-opacity="0.5"/>
<rect x="6.5" y="30" width="57" height="23" rx="7.5" fill="#2F3BE3"/>
<rect x="6.5" y="30" width="57" height="23" rx="7.5" stroke="white"/>
<path d="M22.1534 45.5682C21.9432 45.5682 21.7628 45.4929 21.6122 45.3423C21.4616 45.1918 21.3864 45.0114 21.3864 44.8011C21.3864 44.5909 21.4616 44.4105 21.6122 44.2599C21.7628 44.1094 21.9432 44.0341 22.1534 44.0341C22.3636 44.0341 22.544 44.1094 22.6946 44.2599C22.8452 44.4105 22.9205 44.5909 22.9205 44.8011C22.9205 44.9403 22.8849 45.0682 22.8139 45.1847C22.7457 45.3011 22.6534 45.3949 22.5369 45.4659C22.4233 45.5341 22.2955 45.5682 22.1534 45.5682ZM24.7251 45.5V38.9545H25.6967V39.9773H25.782C25.9183 39.6278 26.1385 39.3565 26.4425 39.1634C26.7464 38.9673 27.1115 38.8693 27.5376 38.8693C27.9695 38.8693 28.3288 38.9673 28.6158 39.1634C28.9055 39.3565 29.1314 39.6278 29.2933 39.9773H29.3615C29.5291 39.6392 29.7805 39.3707 30.1158 39.1719C30.451 38.9702 30.853 38.8693 31.3217 38.8693C31.907 38.8693 32.3857 39.0526 32.7578 39.419C33.13 39.7827 33.3161 40.3494 33.3161 41.1193V45.5H32.3104V41.1193C32.3104 40.6364 32.1783 40.2912 31.9141 40.0838C31.6499 39.8764 31.3388 39.7727 30.9808 39.7727C30.5206 39.7727 30.1641 39.9119 29.9112 40.1903C29.6584 40.4659 29.532 40.8153 29.532 41.2386V45.5H28.5092V41.017C28.5092 40.6449 28.3885 40.3452 28.147 40.1179C27.9055 39.8878 27.5945 39.7727 27.2138 39.7727C26.9524 39.7727 26.7081 39.8423 26.4808 39.9815C26.2564 40.1207 26.0746 40.3139 25.9354 40.5611C25.799 40.8054 25.7308 41.0881 25.7308 41.4091V45.5H24.7251ZM35.1548 47.9545V38.9545H36.1264V39.9943H36.2457C36.3196 39.8807 36.4219 39.7358 36.5526 39.5597C36.6861 39.3807 36.8764 39.2216 37.1236 39.0824C37.3736 38.9403 37.7116 38.8693 38.1378 38.8693C38.6889 38.8693 39.1747 39.0071 39.5952 39.2827C40.0156 39.5582 40.3438 39.9489 40.5795 40.4545C40.8153 40.9602 40.9332 41.5568 40.9332 42.2443C40.9332 42.9375 40.8153 43.5384 40.5795 44.0469C40.3438 44.5526 40.017 44.9446 39.5994 45.223C39.1818 45.4986 38.7003 45.6364 38.1548 45.6364C37.7344 45.6364 37.3977 45.5668 37.1449 45.4276C36.892 45.2855 36.6974 45.125 36.5611 44.946C36.4247 44.7642 36.3196 44.6136 36.2457 44.4943H36.1605V47.9545H35.1548ZM36.1435 42.2273C36.1435 42.7216 36.2159 43.1577 36.3608 43.5355C36.5057 43.9105 36.7173 44.2045 36.9957 44.4176C37.2741 44.6278 37.6151 44.733 38.0185 44.733C38.4389 44.733 38.7898 44.6222 39.071 44.4006C39.3551 44.1761 39.5682 43.875 39.7102 43.4972C39.8551 43.1165 39.9276 42.6932 39.9276 42.2273C39.9276 41.767 39.8565 41.3523 39.7145 40.983C39.5753 40.6108 39.3636 40.3168 39.0795 40.1009C38.7983 39.8821 38.4446 39.7727 38.0185 39.7727C37.6094 39.7727 37.2656 39.8764 36.9872 40.0838C36.7088 40.2884 36.4986 40.5753 36.3565 40.9446C36.2145 41.3111 36.1435 41.7386 36.1435 42.2273ZM42.2457 43.7102V42.8409L46.081 36.7727H46.7116V38.1193H46.2855L43.3878 42.7045V42.7727H48.5526V43.7102H42.2457ZM46.3537 45.5V43.446V43.0412V36.7727H47.3594V45.5H46.3537Z" fill="white"/>
</svg>
