<svg width="69" height="84" viewBox="0 0 69 84" fill="none" xmlns="http://www.w3.org/2000/svg">
<path d="M7.41667 2.00478L61.5833 2.00478C63.0199 2.00478 64.3977 2.57874 65.4135 3.60038C66.4293 4.62202 67 6.00767 67 7.45249V64.6534C67 66.0982 66.4293 67.4838 65.4135 68.5055C64.3977 69.5271 63.0199 70.1011 61.5833 70.1011H50.75M50.75 76.5512C50.7502 77.3906 50.5575 78.2187 50.1869 78.9709C49.8163 79.7231 49.2779 80.379 48.6137 80.8874C47.9496 81.3957 47.1775 81.7429 46.3579 81.9017C45.5383 82.0604 44.6933 82.0266 43.8889 81.8027L5.97222 71.2088C4.83247 70.8916 3.82723 70.208 3.10998 69.2624C2.39274 68.3168 2.00291 67.1611 2 65.9717V7.45249C1.99927 6.61273 2.19158 5.78417 2.56191 5.03153C2.93223 4.27889 3.47055 3.62254 4.13482 3.11375C4.79909 2.60496 5.57132 2.2575 6.39119 2.09852C7.21106 1.93954 8.05638 1.97333 8.86111 2.19727L46.7778 14.5091C47.9199 14.8269 48.9269 15.5127 49.6444 16.4612C50.3619 17.4098 50.7503 18.5688 50.75 19.7607V76.5512Z" stroke="#63B5F1" stroke-width="4" stroke-linecap="round" stroke-linejoin="round"/>
</svg>
