<svg width="64" height="65" viewBox="0 0 64 65" fill="none" xmlns="http://www.w3.org/2000/svg">
<path d="M52.2164 18.5049L52.4764 18.7523C52.9595 19.2095 53.3426 19.7523 53.6041 20.3497C53.8655 20.9472 54 21.5875 54 22.2342V59.5769C54 60.2234 53.8655 60.8636 53.6042 61.4609C53.3428 62.0582 52.9598 62.6009 52.477 63.0581C51.9941 63.5152 51.4208 63.8778 50.79 64.1253C50.1591 64.3727 49.4829 64.5 48.8 64.5H7.2C5.82087 64.5 4.49823 63.9813 3.52305 63.0581C2.54786 62.1348 2 60.8826 2 59.5769V5.42308C2 4.1174 2.54786 2.86519 3.52305 1.94194C4.49823 1.01868 5.82087 0.5 7.2 0.5L31.0446 0.503693C32.4234 0.503645 33.7458 1.02205 34.721 1.94492L34.9589 2.17138" fill="white"/>
<path d="M52.1618 18.452L35.0382 2.2415C34.8877 2.0988 34.6959 2.00156 34.4871 1.96209C34.2782 1.92263 34.0617 1.94271 33.8649 2.01979C33.6681 2.09687 33.4999 2.2275 33.3815 2.39513C33.2632 2.56276 33.2 2.75987 33.2 2.9615V15.2692C33.2 16.5749 33.7479 17.8271 34.723 18.7503C35.6982 19.6736 37.0209 20.1923 38.4 20.1923H51.4C51.6131 20.1925 51.8215 20.1329 51.9987 20.0209C52.176 19.909 52.3141 19.7497 52.3957 19.5633C52.4773 19.377 52.4986 19.1719 52.457 18.974C52.4153 18.7762 52.3126 18.5945 52.1618 18.452Z" fill="white"/>
<path d="M52.2164 18.5049L52.4764 18.7523C52.9595 19.2095 53.3426 19.7523 53.6041 20.3497C53.8655 20.9472 54 21.5875 54 22.2342V59.5769C54 60.2234 53.8655 60.8636 53.6042 61.4609C53.3428 62.0582 52.9598 62.6009 52.477 63.0581C51.9941 63.5152 51.4208 63.8778 50.79 64.1253C50.1591 64.3727 49.4829 64.5 48.8 64.5H7.2C5.82087 64.5 4.49823 63.9813 3.52305 63.0581C2.54786 62.1348 2 60.8826 2 59.5769V5.42308C2 4.1174 2.54786 2.86519 3.52305 1.94194C4.49823 1.01868 5.82087 0.5 7.2 0.5L31.0446 0.503693C32.4234 0.503645 33.7458 1.02205 34.721 1.94492L34.9589 2.17138M52.1618 18.452L35.0382 2.2415C34.8877 2.0988 34.6959 2.00156 34.4871 1.96209C34.2782 1.92263 34.0617 1.94271 33.8649 2.01979C33.6681 2.09687 33.4999 2.2275 33.3815 2.39513C33.2632 2.56276 33.2 2.75987 33.2 2.9615V15.2692C33.2 16.5749 33.7479 17.8271 34.723 18.7503C35.6982 19.6736 37.0209 20.1923 38.4 20.1923H51.4C51.6131 20.1925 51.8215 20.1329 51.9987 20.0209C52.176 19.909 52.3141 19.7497 52.3957 19.5633C52.4773 19.377 52.4986 19.1719 52.457 18.974C52.4153 18.7762 52.3126 18.5945 52.1618 18.452Z" stroke="#C0C0C0" stroke-linecap="round" stroke-linejoin="round"/>
<rect x="6.5" y="30" width="57" height="23" rx="7.5" fill="#C0C0C0"/>
<rect x="6.5" y="30" width="57" height="23" rx="7.5" stroke="white"/>
<path d="M33.733 43.0455V42.9943C33.7386 42.4517 33.7955 42.0199 33.9034 41.6989C34.0114 41.3778 34.1648 41.1179 34.3636 40.919C34.5625 40.7202 34.8011 40.5369 35.0795 40.3693C35.2472 40.267 35.3977 40.1463 35.5312 40.0071C35.6648 39.8651 35.7699 39.7017 35.8466 39.517C35.9261 39.3324 35.9659 39.1278 35.9659 38.9034C35.9659 38.625 35.9006 38.3835 35.7699 38.179C35.6392 37.9744 35.4645 37.8168 35.2457 37.706C35.027 37.5952 34.7841 37.5398 34.517 37.5398C34.2841 37.5398 34.0597 37.5881 33.8438 37.6847C33.6278 37.7812 33.4474 37.9332 33.3026 38.1406C33.1577 38.348 33.0739 38.6193 33.0511 38.9545H31.9773C32 38.4716 32.125 38.0582 32.3523 37.7145C32.5824 37.3707 32.8849 37.108 33.2599 36.9261C33.6378 36.7443 34.0568 36.6534 34.517 36.6534C35.017 36.6534 35.4517 36.7528 35.821 36.9517C36.1932 37.1506 36.4801 37.4233 36.6818 37.7699C36.8864 38.1165 36.9886 38.5114 36.9886 38.9545C36.9886 39.267 36.9403 39.5497 36.8438 39.8026C36.75 40.0554 36.6136 40.2812 36.4347 40.4801C36.2585 40.679 36.0455 40.8551 35.7955 41.0085C35.5455 41.1648 35.3452 41.3295 35.1946 41.5028C35.044 41.6733 34.9347 41.8764 34.8665 42.1122C34.7983 42.348 34.7614 42.642 34.7557 42.9943V43.0455H33.733ZM34.2784 45.5682C34.0682 45.5682 33.8878 45.4929 33.7372 45.3423C33.5866 45.1918 33.5114 45.0114 33.5114 44.8011C33.5114 44.5909 33.5866 44.4105 33.7372 44.2599C33.8878 44.1094 34.0682 44.0341 34.2784 44.0341C34.4886 44.0341 34.669 44.1094 34.8196 44.2599C34.9702 44.4105 35.0455 44.5909 35.0455 44.8011C35.0455 44.9403 35.0099 45.0682 34.9389 45.1847C34.8707 45.3011 34.7784 45.3949 34.6619 45.4659C34.5483 45.5341 34.4205 45.5682 34.2784 45.5682Z" fill="white"/>
</svg>
