<svg width="16" height="17" viewBox="0 0 16 17" fill="none" xmlns="http://www.w3.org/2000/svg">
<path d="M8 2.1C6.60761 2.1 5.27226 2.60571 4.28769 3.50589C3.30312 4.40606 2.75 5.62696 2.75 6.9V13.3M8 2.1C9.39239 2.1 10.7277 2.60571 11.7123 3.50589C12.6969 4.40606 13.25 5.62696 13.25 6.9V13.3M8 2.1C8.23206 2.1 8.45462 2.01571 8.61872 1.86569C8.78281 1.71566 8.875 1.51217 8.875 1.3C8.875 1.08783 8.78281 0.884344 8.61872 0.734315C8.45462 0.584285 8.23206 0.5 8 0.5C7.76794 0.5 7.54538 0.584285 7.38128 0.734315C7.21719 0.884344 7.125 1.08783 7.125 1.3C7.125 1.51217 7.21719 1.71566 7.38128 1.86569C7.54538 2.01571 7.76794 2.1 8 2.1ZM15 13.3H1M9.75 14.9C9.75 15.3243 9.56563 15.7313 9.23744 16.0314C8.90925 16.3314 8.46413 16.5 8 16.5C7.53587 16.5 7.09075 16.3314 6.76256 16.0314C6.43437 15.7313 6.25 15.3243 6.25 14.9" stroke="black" stroke-opacity="0.8" stroke-linecap="round" stroke-linejoin="round"/>
</svg>
