<svg width="16" height="16" viewBox="0 0 16 16" fill="none" xmlns="http://www.w3.org/2000/svg">
<path fill-rule="evenodd" clip-rule="evenodd" d="M8 1.11628C4.19823 1.11628 1.11628 4.19823 1.11628 8C1.11628 11.8017 4.19823 14.8837 8 14.8837C11.8017 14.8837 14.8837 11.8017 14.8837 8C14.8837 4.19823 11.8017 1.11628 8 1.11628ZM0 8C0 3.58172 3.58172 0 8 0C12.4183 0 16 3.58172 16 8C16 12.4183 12.4183 16 8 16C3.58172 16 0 12.4183 0 8Z" fill="#AAAAAA"/>
<path d="M5.76744 8C5.76744 8.41101 5.43425 8.74419 5.02326 8.74419C4.61226 8.74419 4.27907 8.41101 4.27907 8C4.27907 7.58899 4.61226 7.25581 5.02326 7.25581C5.43425 7.25581 5.76744 7.58899 5.76744 8ZM8.74419 8C8.74419 8.41101 8.41101 8.74419 8 8.74419C7.58899 8.74419 7.25581 8.41101 7.25581 8C7.25581 7.58899 7.58899 7.25581 8 7.25581C8.41101 7.25581 8.74419 7.58899 8.74419 8ZM11.7209 8C11.7209 8.41101 11.3878 8.74419 10.9767 8.74419C10.5657 8.74419 10.2326 8.41101 10.2326 8C10.2326 7.58899 10.5657 7.25581 10.9767 7.25581C11.3878 7.25581 11.7209 7.58899 11.7209 8Z" fill="#111111"/>
</svg>
