<svg width="64" height="65" viewBox="0 0 64 65" fill="none" xmlns="http://www.w3.org/2000/svg">
<path d="M52.2164 18.5049L52.4764 18.7523C52.9595 19.2095 53.3426 19.7523 53.6041 20.3497C53.8655 20.9472 54 21.5875 54 22.2342V59.5769C54 60.2234 53.8655 60.8636 53.6042 61.4609C53.3428 62.0582 52.9598 62.6009 52.477 63.0581C51.9941 63.5152 51.4208 63.8778 50.79 64.1253C50.1591 64.3727 49.4829 64.5 48.8 64.5H7.2C5.82087 64.5 4.49823 63.9813 3.52305 63.0581C2.54786 62.1348 2 60.8826 2 59.5769V5.42308C2 4.1174 2.54786 2.86519 3.52305 1.94194C4.49823 1.01868 5.82087 0.5 7.2 0.5L31.0446 0.503693C32.4234 0.503645 33.7458 1.02205 34.721 1.94492L34.9589 2.17138" fill="white"/>
<path d="M52.1618 18.452L35.0382 2.2415C34.8877 2.0988 34.6959 2.00156 34.4871 1.96209C34.2782 1.92263 34.0617 1.94271 33.8649 2.01979C33.6681 2.09687 33.4999 2.2275 33.3815 2.39513C33.2632 2.56276 33.2 2.75987 33.2 2.9615V15.2692C33.2 16.5749 33.7479 17.8271 34.723 18.7503C35.6982 19.6736 37.0209 20.1923 38.4 20.1923H51.4C51.6131 20.1925 51.8215 20.1329 51.9987 20.0209C52.176 19.909 52.3141 19.7497 52.3957 19.5633C52.4773 19.377 52.4986 19.1719 52.457 18.974C52.4153 18.7762 52.3126 18.5945 52.1618 18.452Z" fill="white"/>
<path d="M52.2164 18.5049L52.4764 18.7523C52.9595 19.2095 53.3426 19.7523 53.6041 20.3497C53.8655 20.9472 54 21.5875 54 22.2342V59.5769C54 60.2234 53.8655 60.8636 53.6042 61.4609C53.3428 62.0582 52.9598 62.6009 52.477 63.0581C51.9941 63.5152 51.4208 63.8778 50.79 64.1253C50.1591 64.3727 49.4829 64.5 48.8 64.5H7.2C5.82087 64.5 4.49823 63.9813 3.52305 63.0581C2.54786 62.1348 2 60.8826 2 59.5769V5.42308C2 4.1174 2.54786 2.86519 3.52305 1.94194C4.49823 1.01868 5.82087 0.5 7.2 0.5L31.0446 0.503693C32.4234 0.503645 33.7458 1.02205 34.721 1.94492L34.9589 2.17138M52.1618 18.452L35.0382 2.2415C34.8877 2.0988 34.6959 2.00156 34.4871 1.96209C34.2782 1.92263 34.0617 1.94271 33.8649 2.01979C33.6681 2.09687 33.4999 2.2275 33.3815 2.39513C33.2632 2.56276 33.2 2.75987 33.2 2.9615V15.2692C33.2 16.5749 33.7479 17.8271 34.723 18.7503C35.6982 19.6736 37.0209 20.1923 38.4 20.1923H51.4C51.6131 20.1925 51.8215 20.1329 51.9987 20.0209C52.176 19.909 52.3141 19.7497 52.3957 19.5633C52.4773 19.377 52.4986 19.1719 52.457 18.974C52.4153 18.7762 52.3126 18.5945 52.1618 18.452Z" stroke="#FF7300" stroke-linecap="round" stroke-linejoin="round"/>
<rect x="6.5" y="30" width="57" height="23" rx="7.5" fill="#FF7300"/>
<rect x="6.5" y="30" width="57" height="23" rx="7.5" stroke="white"/>
<path d="M25.1534 45.5682C24.9432 45.5682 24.7628 45.4929 24.6122 45.3423C24.4616 45.1918 24.3864 45.0114 24.3864 44.8011C24.3864 44.5909 24.4616 44.4105 24.6122 44.2599C24.7628 44.1094 24.9432 44.0341 25.1534 44.0341C25.3636 44.0341 25.544 44.1094 25.6946 44.2599C25.8452 44.4105 25.9205 44.5909 25.9205 44.8011C25.9205 44.9403 25.8849 45.0682 25.8139 45.1847C25.7457 45.3011 25.6534 45.3949 25.5369 45.4659C25.4233 45.5341 25.2955 45.5682 25.1534 45.5682ZM27.7251 47.9545V38.9545H28.6967V39.9943H28.8161C28.8899 39.8807 28.9922 39.7358 29.1229 39.5597C29.2564 39.3807 29.4467 39.2216 29.6939 39.0824C29.9439 38.9403 30.282 38.8693 30.7081 38.8693C31.2592 38.8693 31.745 39.0071 32.1655 39.2827C32.5859 39.5582 32.9141 39.9489 33.1499 40.4545C33.3857 40.9602 33.5036 41.5568 33.5036 42.2443C33.5036 42.9375 33.3857 43.5384 33.1499 44.0469C32.9141 44.5526 32.5874 44.9446 32.1697 45.223C31.7521 45.4986 31.2706 45.6364 30.7251 45.6364C30.3047 45.6364 29.968 45.5668 29.7152 45.4276C29.4624 45.2855 29.2678 45.125 29.1314 44.946C28.995 44.7642 28.8899 44.6136 28.8161 44.4943H28.7308V47.9545H27.7251ZM28.7138 42.2273C28.7138 42.7216 28.7862 43.1577 28.9311 43.5355C29.076 43.9105 29.2876 44.2045 29.5661 44.4176C29.8445 44.6278 30.1854 44.733 30.5888 44.733C31.0092 44.733 31.3601 44.6222 31.6413 44.4006C31.9254 44.1761 32.1385 43.875 32.2805 43.4972C32.4254 43.1165 32.4979 42.6932 32.4979 42.2273C32.4979 41.767 32.4268 41.3523 32.2848 40.983C32.1456 40.6108 31.9339 40.3168 31.6499 40.1009C31.3686 39.8821 31.0149 39.7727 30.5888 39.7727C30.1797 39.7727 29.8359 39.8764 29.5575 40.0838C29.2791 40.2884 29.0689 40.5753 28.9268 40.9446C28.7848 41.3111 28.7138 41.7386 28.7138 42.2273ZM37.5092 45.6364C36.9638 45.6364 36.4822 45.4986 36.0646 45.223C35.647 44.9446 35.3203 44.5526 35.0845 44.0469C34.8487 43.5384 34.7308 42.9375 34.7308 42.2443C34.7308 41.5568 34.8487 40.9602 35.0845 40.4545C35.3203 39.9489 35.6484 39.5582 36.0689 39.2827C36.4893 39.0071 36.9751 38.8693 37.5263 38.8693C37.9524 38.8693 38.2891 38.9403 38.5362 39.0824C38.7862 39.2216 38.9766 39.3807 39.1072 39.5597C39.2408 39.7358 39.3445 39.8807 39.4183 39.9943H39.5036V36.7727H40.5092V45.5H39.5376V44.4943H39.4183C39.3445 44.6136 39.2393 44.7642 39.103 44.946C38.9666 45.125 38.772 45.2855 38.5192 45.4276C38.2663 45.5668 37.9297 45.6364 37.5092 45.6364ZM37.6456 44.733C38.049 44.733 38.3899 44.6278 38.6683 44.4176C38.9467 44.2045 39.1584 43.9105 39.3033 43.5355C39.4482 43.1577 39.5206 42.7216 39.5206 42.2273C39.5206 41.7386 39.4496 41.3111 39.3075 40.9446C39.1655 40.5753 38.9553 40.2884 38.6768 40.0838C38.3984 39.8764 38.0547 39.7727 37.6456 39.7727C37.2195 39.7727 36.8643 39.8821 36.5803 40.1009C36.299 40.3168 36.0874 40.6108 35.9453 40.983C35.8061 41.3523 35.7365 41.767 35.7365 42.2273C35.7365 42.6932 35.8075 43.1165 35.9496 43.4972C36.0945 43.875 36.3075 44.1761 36.5888 44.4006C36.8729 44.6222 37.2251 44.733 37.6456 44.733ZM45.4055 38.9545V39.8068H41.8771V38.9545H45.4055ZM42.9339 45.5V38.0511C42.9339 37.6761 43.022 37.3636 43.1982 37.1136C43.3743 36.8636 43.603 36.6761 43.8842 36.5511C44.1655 36.4261 44.4624 36.3636 44.7749 36.3636C45.022 36.3636 45.2237 36.3835 45.38 36.4233C45.5362 36.4631 45.6527 36.5 45.7294 36.5341L45.4396 37.4034C45.3885 37.3864 45.3175 37.3651 45.2266 37.3395C45.1385 37.3139 45.022 37.3011 44.8771 37.3011C44.5447 37.3011 44.3047 37.3849 44.157 37.5526C44.0121 37.7202 43.9396 37.9659 43.9396 38.2898V45.5H42.9339Z" fill="white"/>
</svg>
