<svg width="17" height="17" viewBox="0 0 17 17" fill="none" xmlns="http://www.w3.org/2000/svg">
<path d="M8.05556 0.5H6.18889C4.19778 0.5 3.20222 0.5 2.44133 0.887556C1.77234 1.22843 1.22843 1.77234 0.887556 2.44133C0.5 3.20222 0.5 4.19778 0.5 6.18889V10.8111C0.5 12.8022 0.5 13.7978 0.887556 14.5587C1.22843 15.2277 1.77234 15.7716 2.44133 16.1124C3.20222 16.5 4.19778 16.5 6.18889 16.5H10.8111C12.8022 16.5 13.7978 16.5 14.5587 16.1124C15.2277 15.7716 15.7716 15.2277 16.1124 14.5587C16.5 13.7978 16.5 12.8022 16.5 10.8111V8.94444M16.5 2.94444C16.5 3.59275 16.2425 4.21451 15.784 4.67293C15.3256 5.13135 14.7039 5.38889 14.0556 5.38889C13.4072 5.38889 12.7855 5.13135 12.3271 4.67293C11.8686 4.21451 11.6111 3.59275 11.6111 2.94444C11.6111 2.29614 11.8686 1.67438 12.3271 1.21596C12.7855 0.757539 13.4072 0.5 14.0556 0.5C14.7039 0.5 15.3256 0.757539 15.784 1.21596C16.2425 1.67438 16.5 2.29614 16.5 2.94444Z" stroke="black" stroke-opacity="0.8" stroke-linecap="round" stroke-linejoin="round"/>
</svg>
