<svg width="64" height="65" viewBox="0 0 64 65" fill="none" xmlns="http://www.w3.org/2000/svg">
<path d="M52.2164 18.5049L52.4764 18.7523C52.9595 19.2095 53.3426 19.7523 53.6041 20.3497C53.8655 20.9472 54 21.5875 54 22.2342V59.5769C54 60.2234 53.8655 60.8636 53.6042 61.4609C53.3428 62.0582 52.9598 62.6009 52.477 63.0581C51.9941 63.5152 51.4208 63.8778 50.79 64.1253C50.1591 64.3727 49.4829 64.5 48.8 64.5H7.2C5.82087 64.5 4.49823 63.9813 3.52305 63.0581C2.54786 62.1348 2 60.8826 2 59.5769V5.42308C2 4.1174 2.54786 2.86519 3.52305 1.94194C4.49823 1.01868 5.82087 0.5 7.2 0.5L31.0446 0.503693C32.4234 0.503645 33.7458 1.02205 34.721 1.94492L34.9589 2.17138" fill="white"/>
<path d="M52.1618 18.452L35.0382 2.2415C34.8877 2.0988 34.6959 2.00156 34.4871 1.96209C34.2782 1.92263 34.0617 1.94271 33.8649 2.01979C33.6681 2.09687 33.4999 2.2275 33.3815 2.39513C33.2632 2.56276 33.2 2.75987 33.2 2.9615V15.2692C33.2 16.5749 33.7479 17.8271 34.723 18.7503C35.6982 19.6736 37.0209 20.1923 38.4 20.1923H51.4C51.6131 20.1925 51.8215 20.1329 51.9987 20.0209C52.176 19.909 52.3141 19.7497 52.3957 19.5633C52.4773 19.377 52.4986 19.1719 52.457 18.974C52.4153 18.7762 52.3126 18.5945 52.1618 18.452Z" fill="white"/>
<path d="M52.2164 18.5049L52.4764 18.7523C52.9595 19.2095 53.3426 19.7523 53.6041 20.3497C53.8655 20.9472 54 21.5875 54 22.2342V59.5769C54 60.2234 53.8655 60.8636 53.6042 61.4609C53.3428 62.0582 52.9598 62.6009 52.477 63.0581C51.9941 63.5152 51.4208 63.8778 50.79 64.1253C50.1591 64.3727 49.4829 64.5 48.8 64.5H7.2C5.82087 64.5 4.49823 63.9813 3.52305 63.0581C2.54786 62.1348 2 60.8826 2 59.5769V5.42308C2 4.1174 2.54786 2.86519 3.52305 1.94194C4.49823 1.01868 5.82087 0.5 7.2 0.5L31.0446 0.503693C32.4234 0.503645 33.7458 1.02205 34.721 1.94492L34.9589 2.17138M52.1618 18.452L35.0382 2.2415C34.8877 2.0988 34.6959 2.00156 34.4871 1.96209C34.2782 1.92263 34.0617 1.94271 33.8649 2.01979C33.6681 2.09687 33.4999 2.2275 33.3815 2.39513C33.2632 2.56276 33.2 2.75987 33.2 2.9615V15.2692C33.2 16.5749 33.7479 17.8271 34.723 18.7503C35.6982 19.6736 37.0209 20.1923 38.4 20.1923H51.4C51.6131 20.1925 51.8215 20.1329 51.9987 20.0209C52.176 19.909 52.3141 19.7497 52.3957 19.5633C52.4773 19.377 52.4986 19.1719 52.457 18.974C52.4153 18.7762 52.3126 18.5945 52.1618 18.452Z" stroke="#F767CC" stroke-linecap="round" stroke-linejoin="round"/>
<rect x="6.5" y="30" width="57" height="23" rx="7.5" fill="#F767CC"/>
<rect x="6.5" y="30" width="57" height="23" rx="7.5" stroke="white"/>
<path d="M24.1534 45.5682C23.9432 45.5682 23.7628 45.4929 23.6122 45.3423C23.4616 45.1918 23.3864 45.0114 23.3864 44.8011C23.3864 44.5909 23.4616 44.4105 23.6122 44.2599C23.7628 44.1094 23.9432 44.0341 24.1534 44.0341C24.3636 44.0341 24.544 44.1094 24.6946 44.2599C24.8452 44.4105 24.9205 44.5909 24.9205 44.8011C24.9205 44.9403 24.8849 45.0682 24.8139 45.1847C24.7457 45.3011 24.6534 45.3949 24.5369 45.4659C24.4233 45.5341 24.2955 45.5682 24.1534 45.5682ZM26.7251 47.9545V38.9545H27.6967V39.9943H27.8161C27.8899 39.8807 27.9922 39.7358 28.1229 39.5597C28.2564 39.3807 28.4467 39.2216 28.6939 39.0824C28.9439 38.9403 29.282 38.8693 29.7081 38.8693C30.2592 38.8693 30.745 39.0071 31.1655 39.2827C31.5859 39.5582 31.9141 39.9489 32.1499 40.4545C32.3857 40.9602 32.5036 41.5568 32.5036 42.2443C32.5036 42.9375 32.3857 43.5384 32.1499 44.0469C31.9141 44.5526 31.5874 44.9446 31.1697 45.223C30.7521 45.4986 30.2706 45.6364 29.7251 45.6364C29.3047 45.6364 28.968 45.5668 28.7152 45.4276C28.4624 45.2855 28.2678 45.125 28.1314 44.946C27.995 44.7642 27.8899 44.6136 27.8161 44.4943H27.7308V47.9545H26.7251ZM27.7138 42.2273C27.7138 42.7216 27.7862 43.1577 27.9311 43.5355C28.076 43.9105 28.2876 44.2045 28.5661 44.4176C28.8445 44.6278 29.1854 44.733 29.5888 44.733C30.0092 44.733 30.3601 44.6222 30.6413 44.4006C30.9254 44.1761 31.1385 43.875 31.2805 43.4972C31.4254 43.1165 31.4979 42.6932 31.4979 42.2273C31.4979 41.767 31.4268 41.3523 31.2848 40.983C31.1456 40.6108 30.9339 40.3168 30.6499 40.1009C30.3686 39.8821 30.0149 39.7727 29.5888 39.7727C29.1797 39.7727 28.8359 39.8764 28.5575 40.0838C28.2791 40.2884 28.0689 40.5753 27.9268 40.9446C27.7848 41.3111 27.7138 41.7386 27.7138 42.2273ZM35.0433 41.5625V45.5H34.0376V38.9545H35.0092V39.9773H35.0945C35.2479 39.6449 35.4808 39.3778 35.7933 39.1761C36.1058 38.9716 36.5092 38.8693 37.0036 38.8693C37.4467 38.8693 37.8345 38.9602 38.1669 39.142C38.4993 39.321 38.7578 39.5938 38.9425 39.9602C39.1271 40.3239 39.2195 40.7841 39.2195 41.3409V45.5H38.2138V41.4091C38.2138 40.8949 38.0803 40.4943 37.8132 40.2074C37.5462 39.9176 37.1797 39.7727 36.7138 39.7727C36.3928 39.7727 36.1058 39.8423 35.853 39.9815C35.603 40.1207 35.4055 40.3239 35.2607 40.5909C35.1158 40.858 35.0433 41.1818 35.0433 41.5625ZM43.6992 48.0909C43.2134 48.0909 42.7958 48.0284 42.4464 47.9034C42.0969 47.7812 41.8058 47.6193 41.5728 47.4176C41.3427 47.2188 41.1594 47.0057 41.0231 46.7784L41.8242 46.2159C41.9151 46.3352 42.0302 46.4716 42.1694 46.625C42.3086 46.7812 42.4989 46.9162 42.7404 47.0298C42.9847 47.1463 43.3043 47.2045 43.6992 47.2045C44.2276 47.2045 44.6637 47.0767 45.0075 46.821C45.3512 46.5653 45.5231 46.1648 45.5231 45.6193V44.2898H45.4379C45.364 44.4091 45.2589 44.5568 45.1225 44.733C44.989 44.9062 44.7958 45.0611 44.543 45.1974C44.293 45.331 43.9549 45.3977 43.5288 45.3977C43.0004 45.3977 42.5259 45.2727 42.1055 45.0227C41.6879 44.7727 41.3569 44.4091 41.1126 43.9318C40.8711 43.4545 40.7504 42.875 40.7504 42.1932C40.7504 41.5227 40.8683 40.9389 41.104 40.4418C41.3398 39.9418 41.668 39.5554 42.0884 39.2827C42.5089 39.0071 42.9947 38.8693 43.5458 38.8693C43.9719 38.8693 44.31 38.9403 44.56 39.0824C44.8129 39.2216 45.006 39.3807 45.1396 39.5597C45.2759 39.7358 45.381 39.8807 45.4549 39.9943H45.5572V38.9545H46.5288V45.6875C46.5288 46.25 46.4009 46.7074 46.1452 47.0597C45.8924 47.4148 45.5515 47.6747 45.1225 47.8395C44.6964 48.0071 44.2219 48.0909 43.6992 48.0909ZM43.6651 44.4943C44.0685 44.4943 44.4094 44.402 44.6879 44.2173C44.9663 44.0327 45.1779 43.767 45.3228 43.4205C45.4677 43.0739 45.5401 42.6591 45.5401 42.1761C45.5401 41.7045 45.4691 41.2884 45.3271 40.9276C45.185 40.5668 44.9748 40.2841 44.6964 40.0795C44.418 39.875 44.0742 39.7727 43.6651 39.7727C43.239 39.7727 42.8839 39.8807 42.5998 40.0966C42.3185 40.3125 42.1069 40.6023 41.9648 40.9659C41.8256 41.3295 41.756 41.733 41.756 42.1761C41.756 42.6307 41.8271 43.0327 41.9691 43.3821C42.114 43.7287 42.3271 44.0014 42.6083 44.2003C42.8924 44.3963 43.2447 44.4943 43.6651 44.4943Z" fill="white"/>
</svg>
