<svg width="79" height="79" viewBox="0 0 79 79" fill="none" xmlns="http://www.w3.org/2000/svg">
<g filter="url(#filter0_d_3449_8681)">
<rect width="75" height="75" rx="16" transform="matrix(-1 0 0 1 77 2)" fill="white" shape-rendering="crispEdges"/>
<path d="M33.0719 55.5C32.2272 55.5 31.5047 55.1707 30.9045 54.5121C30.3042 53.8535 30.0035 53.0638 30.0022 52.1432V47.1807H26.5678C25.7244 47.1807 25.0026 46.8514 24.4023 46.1928C23.802 45.5342 23.5013 44.7439 23.5 43.8219V35.981C23.5 34.8024 23.8653 33.8152 24.596 33.0193C25.3267 32.2207 26.2278 31.8213 27.2991 31.8213H51.7009C52.7773 31.8213 53.6796 32.2207 54.4078 33.0193C55.1359 33.818 55.5 34.8052 55.5 35.981V43.8219C55.5 44.7453 55.1999 45.5356 54.5996 46.1928C53.9993 46.8501 53.2769 47.1794 52.4322 47.1807H48.9978V52.1411C48.9978 53.0645 48.697 53.8549 48.0955 54.5121C47.494 55.1693 46.7722 55.4986 45.93 55.5H33.0719ZM26.5678 45.1009H30.0022C30.0516 44.2233 30.3694 43.4704 30.9558 42.8423C31.5421 42.2155 32.2475 41.9022 33.0719 41.9022H45.93C46.7532 41.9022 47.4579 42.2162 48.0442 42.8443C48.6306 43.4711 48.9484 44.2233 48.9978 45.1009H52.4322C52.7729 45.1009 53.0527 44.981 53.2718 44.7411C53.4909 44.5013 53.6004 44.1948 53.6004 43.8219V35.981C53.6004 35.3931 53.4187 34.8995 53.0553 34.5001C52.6918 34.1008 52.2404 33.9011 51.7009 33.9011H27.2991C26.7609 33.9011 26.3101 34.1008 25.9466 34.5001C25.5832 34.8995 25.4008 35.3938 25.3996 35.983V43.8219C25.3996 44.1948 25.5091 44.5013 25.7282 44.7411C25.9473 44.981 26.2271 45.1009 26.5678 45.1009ZM47.0982 31.8234V26.861C47.0982 26.4866 46.9887 26.1802 46.7696 25.9417C46.5505 25.7018 46.2707 25.5819 45.93 25.5819H33.07C32.7293 25.5819 32.4495 25.7018 32.2304 25.9417C32.0113 26.1816 31.9018 26.488 31.9018 26.861V31.8213H30.0022V26.861C30.0022 25.9375 30.303 25.1465 30.9045 24.4879C31.5047 23.8293 32.2266 23.5 33.07 23.5H45.93C46.7734 23.5 47.4953 23.8293 48.0955 24.4879C48.697 25.1465 48.9978 25.9368 48.9978 26.8589V31.8213L47.0982 31.8234ZM50.1679 39.1028C50.7061 39.1028 51.157 38.9031 51.5204 38.5038C51.8839 38.1044 52.0662 37.6108 52.0675 37.0229C52.0688 36.4351 51.8864 35.9407 51.5204 35.54C51.1544 35.1393 50.7036 34.9397 50.1679 34.9411C49.6323 34.9424 49.1808 35.1421 48.8135 35.54C48.4463 35.938 48.2646 36.4323 48.2684 37.0229C48.2722 37.6136 48.4539 38.1072 48.8135 38.5038C49.1732 38.9003 49.6247 39.1 50.1679 39.1028ZM47.0982 52.139V45.2611C47.0982 44.8867 46.9887 44.5796 46.7696 44.3397C46.5505 44.0999 46.2707 43.9799 45.93 43.9799H33.07C32.7293 43.9799 32.4495 44.0999 32.2304 44.3397C32.0113 44.581 31.9018 44.8881 31.9018 45.2611V52.1411C31.9018 52.5141 32.0113 52.8205 32.2304 53.0604C32.4495 53.3003 32.73 53.4202 33.0719 53.4202H45.93C46.2707 53.4202 46.5505 53.3003 46.7696 53.0604C46.9887 52.8205 47.0982 52.5134 47.0982 52.139ZM26.5678 33.9032H25.3996H53.6004H26.5678Z" fill="#0C8CE9"/>
</g>
<defs>
<filter id="filter0_d_3449_8681" x="0" y="0" width="79" height="79" filterUnits="userSpaceOnUse" color-interpolation-filters="sRGB">
<feFlood flood-opacity="0" result="BackgroundImageFix"/>
<feColorMatrix in="SourceAlpha" type="matrix" values="0 0 0 0 0 0 0 0 0 0 0 0 0 0 0 0 0 0 127 0" result="hardAlpha"/>
<feOffset/>
<feGaussianBlur stdDeviation="1"/>
<feComposite in2="hardAlpha" operator="out"/>
<feColorMatrix type="matrix" values="0 0 0 0 0 0 0 0 0 0 0 0 0 0 0 0 0 0 0.25 0"/>
<feBlend mode="normal" in2="BackgroundImageFix" result="effect1_dropShadow_3449_8681"/>
<feBlend mode="normal" in="SourceGraphic" in2="effect1_dropShadow_3449_8681" result="shape"/>
</filter>
</defs>
</svg>
