<svg width="16" height="16" viewBox="0 0 16 16" fill="none" xmlns="http://www.w3.org/2000/svg">
<path d="M4.78594 16C4.36361 16 4.00237 15.8353 3.70224 15.506C3.40211 15.1767 3.25173 14.7819 3.2511 14.3216V11.8404H1.5339C1.11219 11.8404 0.751276 11.6757 0.451146 11.3464C0.151015 11.0171 0.000633187 10.622 0 10.1609V6.24048C0 5.6512 0.182674 5.15759 0.548023 4.75965C0.913372 4.36033 1.36388 4.16067 1.89956 4.16067H14.1004C14.6386 4.16067 15.0898 4.36033 15.4539 4.75965C15.818 5.15898 16 5.65259 16 6.24048V10.1609C16 10.6226 15.8499 11.0178 15.5498 11.3464C15.2497 11.675 14.8884 11.8397 14.4661 11.8404H12.7489V14.3206C12.7489 14.7823 12.5985 15.1774 12.2978 15.506C11.997 15.8347 11.6361 15.9993 11.215 16H4.78594ZM1.5339 10.8005H3.2511C3.27579 10.3616 3.43472 9.98518 3.72789 9.67113C4.02105 9.35777 4.37374 9.20109 4.78594 9.20109H11.215C11.6266 9.20109 11.9789 9.35812 12.2721 9.67217C12.5653 9.98553 12.7242 10.3616 12.7489 10.8005H14.4661C14.6364 10.8005 14.7764 10.7405 14.8859 10.6206C14.9954 10.5006 15.0502 10.3474 15.0502 10.1609V6.24048C15.0502 5.94653 14.9594 5.69973 14.7776 5.50007C14.5959 5.3004 14.3702 5.20057 14.1004 5.20057H1.89956C1.63046 5.20057 1.40504 5.3004 1.22332 5.50007C1.04159 5.69973 0.950414 5.94688 0.949781 6.24152V10.1609C0.949781 10.3474 1.00455 10.5006 1.11409 10.6206C1.22363 10.7405 1.36357 10.8005 1.5339 10.8005ZM11.7991 4.16171V1.68049C11.7991 1.49331 11.7444 1.34009 11.6348 1.22085C11.5253 1.10091 11.3853 1.04095 11.215 1.04095H4.78499C4.61467 1.04095 4.47473 1.10091 4.36519 1.22085C4.25565 1.34079 4.20088 1.494 4.20088 1.68049V4.16067H3.2511V1.68049C3.2511 1.21877 3.40148 0.82326 3.70224 0.493956C4.00237 0.164652 4.36329 0 4.78499 0H11.215C11.6367 0 11.9976 0.164652 12.2978 0.493956C12.5985 0.82326 12.7489 1.21842 12.7489 1.67945V4.16067L11.7991 4.16171ZM13.334 7.80138C13.6031 7.80138 13.8285 7.70155 14.0102 7.50189C14.1919 7.30222 14.2831 7.05542 14.2837 6.76147C14.2844 6.46753 14.1932 6.22037 14.0102 6.02002C13.8272 5.81966 13.6018 5.71983 13.334 5.72053C13.0661 5.72122 12.8404 5.82105 12.6568 6.02002C12.4731 6.21899 12.3823 6.46614 12.3842 6.76147C12.3861 7.05681 12.4769 7.30361 12.6568 7.50189C12.8366 7.70016 13.0623 7.79999 13.334 7.80138ZM11.7991 14.3195V10.8805C11.7991 10.6934 11.7444 10.5398 11.6348 10.4199C11.5253 10.2999 11.3853 10.24 11.215 10.24H4.78499C4.61467 10.24 4.47473 10.2999 4.36519 10.4199C4.25565 10.5405 4.20088 10.6941 4.20088 10.8805V14.3206C4.20088 14.507 4.25565 14.6603 4.36519 14.7802C4.47473 14.9001 4.61498 14.9601 4.78594 14.9601H11.215C11.3853 14.9601 11.5253 14.9001 11.6348 14.7802C11.7444 14.6603 11.7991 14.5067 11.7991 14.3195ZM1.5339 5.20161H0.949781H15.0502H1.5339Z" fill="#0C8CE9"/>
</svg>
