<svg width="108" height="80" viewBox="0 0 108 80" fill="none" xmlns="http://www.w3.org/2000/svg">
<path d="M106.862 30.5C106.311 29.724 105.581 29.0918 104.734 28.6567C103.887 28.2216 102.949 27.9964 101.997 28H92.0015V18C92.0015 16.4087 91.3694 14.8826 90.2442 13.7574C89.1189 12.6321 87.5928 12 86.0014 12H50.6659L36.2656 1.2C35.2262 0.422679 33.9635 0.00179479 32.6656 0H6.0001C4.40878 0 2.88263 0.63214 1.75739 1.75736C0.632152 2.88258 0 4.4087 0 6V78C0 78.5304 0.210718 79.0391 0.585797 79.4142C0.960876 79.7893 1.46959 80 2.00003 80H91.5465C91.9662 79.9993 92.375 79.8667 92.7151 79.6208C93.0552 79.3749 93.3094 79.0283 93.4416 78.63L107.687 35.895C107.991 34.9954 108.075 34.0358 107.932 33.097C107.788 32.1581 107.421 31.2675 106.862 30.5ZM6.0001 4H32.6656C33.0983 4 33.5194 4.14036 33.8656 4.4L48.8008 15.6C49.147 15.8596 49.5681 16 50.0008 16H86.0014C86.5319 16 87.0406 16.2107 87.4157 16.5858C87.7908 16.9609 88.0015 17.4696 88.0015 18V28H20.8804C19.6211 28.0006 18.394 28.3974 17.3727 29.1341C16.3515 29.8709 15.588 30.9102 15.1903 32.105L4.00007 65.675V6C4.00007 5.46957 4.21078 4.96086 4.58586 4.58579C4.96094 4.21071 5.46966 4 6.0001 4ZM103.892 34.63L90.1015 76H4.77508L19.0003 33.37C19.1317 32.9741 19.3836 32.6292 19.7207 32.3836C20.0578 32.1379 20.4633 32.0038 20.8804 32H102.002C102.318 32.0005 102.63 32.0761 102.911 32.2205C103.193 32.3649 103.436 32.5741 103.621 32.8308C103.806 33.0875 103.928 33.3845 103.976 33.6973C104.023 34.01 103.996 34.3297 103.897 34.63H103.892Z" fill="#0C8CE9" fill-opacity="0.64"/>
</svg>
