<svg width="20" height="20" viewBox="0 0 20 20" fill="none" xmlns="http://www.w3.org/2000/svg">
<path d="M14.5001 2.00003C14.5657 1.9993 14.6309 2.01206 14.6914 2.03752C14.752 2.06298 14.8066 2.10059 14.8521 2.14803C14.8995 2.19345 14.9371 2.24813 14.9626 2.30868C14.988 2.36923 15.0008 2.43435 15.0001 2.50003C15.0008 2.56571 14.988 2.63083 14.9626 2.69138C14.9371 2.75193 14.8995 2.8066 14.8521 2.85203C14.8066 2.89947 14.752 2.93708 14.6914 2.96254C14.6309 2.988 14.5657 3.00076 14.5001 3.00003H13.0001V17H14.5001C14.5657 16.9993 14.6309 17.0121 14.6914 17.0375C14.752 17.063 14.8066 17.1006 14.8521 17.148C14.8995 17.1935 14.9371 17.2481 14.9626 17.3087C14.988 17.3692 15.0008 17.4344 15.0001 17.5C15.0008 17.5657 14.988 17.6308 14.9626 17.6914C14.9371 17.7519 14.8995 17.8066 14.8521 17.852C14.8066 17.8995 14.752 17.9371 14.6914 17.9625C14.6309 17.988 14.5657 18.0008 14.5001 18H10.5001C10.4344 18.0008 10.3693 17.988 10.3087 17.9625C10.2482 17.9371 10.1935 17.8995 10.1481 17.852C10.1006 17.8066 10.063 17.7519 10.0376 17.6914C10.0121 17.6308 9.99934 17.5657 10.0001 17.5C9.99934 17.4344 10.0121 17.3692 10.0376 17.3087C10.063 17.2481 10.1006 17.1935 10.1481 17.148C10.1935 17.1006 10.2482 17.063 10.3087 17.0375C10.3693 17.0121 10.4344 16.9993 10.5001 17H12.0001V3.00003H10.5001C10.4344 3.00076 10.3693 2.988 10.3087 2.96254C10.2482 2.93708 10.1935 2.89947 10.1481 2.85203C10.1006 2.8066 10.063 2.75193 10.0376 2.69138C10.0121 2.63083 9.99934 2.56571 10.0001 2.50003C9.99934 2.43435 10.0121 2.36923 10.0376 2.30868C10.063 2.24813 10.1006 2.19345 10.1481 2.14803C10.1935 2.10059 10.2482 2.06298 10.3087 2.03752C10.3693 2.01206 10.4344 1.9993 10.5001 2.00003H14.5001ZM11.0001 5.00003H5.00007C4.72407 5.00003 4.4664 5.05203 4.22707 5.15603C3.98867 5.25853 3.77133 5.40432 3.58607 5.58603C3.40129 5.76568 3.25499 5.98105 3.15607 6.21903C3.0574 6.45903 3.0054 6.71936 3.00007 7.00003V13C3.00007 13.276 3.05207 13.5337 3.15607 13.773C3.26074 14.013 3.40407 14.2267 3.58607 14.414C3.76807 14.6014 3.97907 14.7447 4.21907 14.844C4.45907 14.9434 4.7194 14.9954 5.00007 15H11.0001V16H5.00007C4.5834 16 4.1954 15.922 3.83607 15.766C3.48125 15.6136 3.15804 15.3962 2.88307 15.125C2.60102 14.8481 2.37751 14.5172 2.22582 14.1522C2.07414 13.7871 1.99737 13.3953 2.00007 13V7.00003C2.00007 6.5887 2.07807 6.2007 2.23407 5.83603C2.38437 5.48005 2.60202 5.15645 2.87507 4.88303C3.14574 4.61236 3.4634 4.39603 3.82807 4.23403C4.19274 4.0727 4.5834 3.9947 5.00007 4.00003H11.0001V5.00003ZM15.0001 4.00003C15.4121 4.00003 15.8001 4.07803 16.1641 4.23403C16.8869 4.53812 17.462 5.11317 17.7661 5.83603C17.9274 6.20536 18.0054 6.59336 18.0001 7.00003V13C18.0001 13.4167 17.9221 13.8047 17.7661 14.164C17.6094 14.524 17.3957 14.8417 17.1251 15.117C16.8544 15.393 16.5344 15.6094 16.1651 15.766C15.7962 15.9209 15.4001 16.0005 15.0001 16H14.0001V15H15.0001C15.2761 15 15.5337 14.948 15.7731 14.844C16.0115 14.7415 16.2288 14.5957 16.4141 14.414C16.5988 14.2344 16.7451 14.019 16.8441 13.781C16.9427 13.541 16.9947 13.2807 17.0001 13V7.00003C17.0027 6.73429 16.9496 6.47095 16.8441 6.22703C16.7416 5.98863 16.5958 5.77129 16.4141 5.58603C16.2344 5.40125 16.019 5.25495 15.7811 5.15603C15.5411 5.05736 15.2807 5.00536 15.0001 5.00003H14.0001V4.00003H15.0001ZM7.50007 6.00003C7.59575 6.00016 7.68938 6.02774 7.76986 6.0795C7.85033 6.13126 7.91427 6.20502 7.95407 6.29203L10.7041 12.292C10.7353 12.3521 10.754 12.418 10.7591 12.4856C10.7641 12.5531 10.7553 12.621 10.7333 12.6851C10.7113 12.7492 10.6765 12.8081 10.631 12.8583C10.5855 12.9086 10.5303 12.949 10.4687 12.9772C10.4071 13.0055 10.3404 13.0209 10.2727 13.0225C10.2049 13.0242 10.1376 13.012 10.0747 12.9869C10.0117 12.9617 9.95462 12.924 9.90673 12.8761C9.85884 12.8281 9.82119 12.771 9.79607 12.708L9.01207 10.998L9.00007 11H6.00007L5.98707 10.998L5.20407 12.708C5.17895 12.771 5.1413 12.8281 5.09341 12.8761C5.04552 12.924 4.98839 12.9617 4.92548 12.9869C4.86258 13.012 4.79521 13.0242 4.72747 13.0225C4.65973 13.0209 4.59304 13.0055 4.53144 12.9772C4.46984 12.949 4.41462 12.9086 4.36913 12.8583C4.32364 12.8081 4.28883 12.7492 4.26682 12.6851C4.24481 12.621 4.23605 12.5531 4.24108 12.4856C4.2461 12.418 4.26481 12.3521 4.29607 12.292L7.04607 6.29203L7.08007 6.22903C7.12536 6.1588 7.18754 6.10105 7.26091 6.06104C7.33428 6.02104 7.4165 6.00006 7.50007 6.00003ZM6.44507 10H8.55507L7.50007 7.69803L6.44507 10Z" fill="#0C8CE9"/>
</svg>
