<svg width="15" height="17" viewBox="0 0 15 17" fill="none" xmlns="http://www.w3.org/2000/svg">
<path d="M3.83301 3.05319H1.49967C0.94739 3.05319 0.499675 3.50091 0.499675 4.05319V15.5C0.499675 16.0523 0.947391 16.5 1.49968 16.5H12.833C13.3853 16.5 13.833 16.0523 13.833 15.5V4.05319C13.833 3.50091 13.3853 3.05319 12.833 3.05319H10.4997M3.83301 3.05319V2.69149C3.83301 2.1392 4.28072 1.69149 4.83301 1.69149H5.16634V1.5C5.16634 0.947715 5.61406 0.5 6.16634 0.5H8.16634C8.71863 0.5 9.16634 0.947715 9.16634 1.5V1.69149H9.49967C10.052 1.69149 10.4997 2.1392 10.4997 2.69149V3.05319M3.83301 3.05319V4.07447H7.16634H10.4997V3.05319" stroke="#333333"/>
<path d="M3.42 8.44C3.38686 8.48418 3.39582 8.54686 3.44 8.58C3.48418 8.61314 3.54686 8.60418 3.58 8.56L3.5 8.5L3.42 8.44ZM10.0994 5.51104C10.1055 5.45615 10.0659 5.40671 10.011 5.40061L9.11655 5.30122C9.06166 5.29512 9.01222 5.33468 9.00612 5.38957C9.00002 5.44446 9.03957 5.4939 9.09446 5.5L9.88957 5.58835L9.80122 6.38345C9.79512 6.43834 9.83468 6.48778 9.88957 6.49388C9.94446 6.49998 9.9939 6.46043 10 6.40554L10.0994 5.51104ZM7.39179 7.45672L7.42893 7.36387V7.36387L7.39179 7.45672ZM7.59101 7.42719L7.52854 7.34911L7.59101 7.42719ZM4.90803 6.62262L4.98803 6.68262V6.68262L4.90803 6.62262ZM3.5 8.5L3.58 8.56L4.98803 6.68262L4.90803 6.62262L4.82803 6.56262L3.42 8.44L3.5 8.5ZM5.14231 6.55693L5.10517 6.64977L7.35465 7.54956L7.39179 7.45672L7.42893 7.36387L5.17945 6.46408L5.14231 6.55693ZM7.59101 7.42719L7.65348 7.50528L10.0625 5.57809L10 5.5L9.93753 5.42191L7.52854 7.34911L7.59101 7.42719ZM7.39179 7.45672L7.35465 7.54956C7.45497 7.58969 7.56911 7.57278 7.65348 7.50528L7.59101 7.42719L7.52854 7.34911C7.50042 7.37161 7.46237 7.37724 7.42893 7.36387L7.39179 7.45672ZM4.90803 6.62262L4.98803 6.68262C5.01516 6.64645 5.06319 6.63298 5.10517 6.64977L5.14231 6.55693L5.17945 6.46408C5.05351 6.4137 4.90942 6.4541 4.82803 6.56262L4.90803 6.62262Z" fill="#333333"/>
<path d="M10.5 8.5L3.50098 8.5L3.50098 5.5" stroke="#333333" stroke-width="0.2" stroke-linecap="round"/>
<line x1="2" y1="10" x2="11.6667" y2="10" stroke="#333333" stroke-linecap="round"/>
<line x1="2" y1="12" x2="11.6667" y2="12" stroke="#333333" stroke-linecap="round"/>
<line x1="1.99902" y1="14" x2="8.99902" y2="14" stroke="#333333" stroke-linecap="round"/>
</svg>
