<svg width="16" height="16" viewBox="0 0 16 16" fill="none" xmlns="http://www.w3.org/2000/svg">
<path fill-rule="evenodd" clip-rule="evenodd" d="M6.96061 0C10.8049 0 13.9219 3.22776 13.9219 7.2093C13.9218 11.1908 10.8049 14.4186 6.96061 14.4186C3.11639 14.4185 4.69322e-05 11.1907 0 7.2093C0 3.22782 3.11636 9.38518e-05 6.96061 0ZM7.01916 0.755861C3.38703 0.755862 0.835458 3.44754 0.835458 7.2093C0.83551 10.971 3.38576 13.689 7.01784 13.689C10.6499 13.689 13.2015 10.9973 13.2015 7.23561C13.2015 3.47386 10.6513 0.755861 7.01916 0.755861Z" fill="black"/>
<path d="M11.6899 12.1662C11.5583 12.0346 11.5583 11.8214 11.6899 11.6898C11.8214 11.5583 12.0346 11.5583 12.1662 11.6898L15.9013 15.425C16.0329 15.5566 16.0329 15.7698 15.9014 15.9013C15.7698 16.0329 15.5566 16.0329 15.425 15.9013L11.6899 12.1662Z" fill="black"/>
</svg>
