<svg width="24" height="24" viewBox="0 0 24 24" fill="none" xmlns="http://www.w3.org/2000/svg">
<path fill-rule="evenodd" clip-rule="evenodd" d="M10.4409 0C16.2074 0 20.8828 4.84164 20.8828 10.8139C20.8828 16.7862 16.2074 21.6279 10.4409 21.6279C4.67458 21.6278 7.03983e-05 16.7861 0 10.8139C0 4.84173 4.67454 0.000140778 10.4409 0ZM10.5287 1.13379C5.08055 1.13379 1.25319 5.17132 1.25319 10.8139C1.25327 16.4565 5.07863 20.5336 10.5268 20.5336C15.9748 20.5335 19.8022 16.4959 19.8023 10.8534C19.8023 5.21079 15.9769 1.13379 10.5287 1.13379Z" fill="black"/>
<path d="M17.5348 18.2493C17.3375 18.052 17.3375 17.7321 17.5348 17.5348C17.7321 17.3375 18.052 17.3375 18.2493 17.5348L23.852 23.1375C24.0493 23.3348 24.0493 23.6547 23.852 23.852C23.6547 24.0493 23.3348 24.0493 23.1375 23.852L17.5348 18.2493Z" fill="black"/>
</svg>
