<svg width="17" height="17" viewBox="0 0 17 17" fill="none" xmlns="http://www.w3.org/2000/svg">
<path d="M8.49966 10.8996C9.90553 10.8996 11.0452 9.82509 11.0452 8.49961C11.0452 7.17413 9.90553 6.09961 8.49966 6.09961C7.09379 6.09961 5.9541 7.17413 5.9541 8.49961C5.9541 9.82509 7.09379 10.8996 8.49966 10.8996Z" stroke="#5C5C5C"/>
<path d="M9.99764 0.6216C9.68623 0.5 9.29082 0.5 8.5 0.5C7.70918 0.5 7.31377 0.5 7.00236 0.6216C6.79633 0.70201 6.60912 0.819916 6.45144 0.968579C6.29376 1.11724 6.1687 1.29374 6.08342 1.488C6.00535 1.6664 5.97396 1.8752 5.96208 2.1784C5.95655 2.39754 5.89216 2.61178 5.77493 2.80108C5.6577 2.99038 5.49145 3.14855 5.29175 3.2608C5.08879 3.36782 4.86035 3.42454 4.62781 3.42566C4.39527 3.42678 4.16623 3.37226 3.96212 3.2672C3.67701 3.1248 3.47082 3.0464 3.26633 3.0208C2.82028 2.9655 2.36919 3.07945 2.01222 3.3376C1.74578 3.532 1.54723 3.8544 1.15182 4.5C0.75641 5.1456 0.557856 5.468 0.514582 5.784C0.485422 5.99236 0.500089 6.2041 0.557743 6.40712C0.615397 6.61013 0.714909 6.80045 0.850595 6.9672C0.976176 7.1208 1.15182 7.2496 1.42419 7.4112C1.82554 7.6488 2.08349 8.0536 2.08349 8.5C2.08349 8.9464 1.82554 9.3512 1.42419 9.588C1.15182 9.7504 0.975328 9.8792 0.850595 10.0328C0.714909 10.1995 0.615397 10.3899 0.557743 10.5929C0.500089 10.7959 0.485422 11.0076 0.514582 11.216C0.558705 11.5312 0.75641 11.8544 1.15097 12.5C1.54723 13.1456 1.74494 13.468 2.01222 13.6624C2.18908 13.7903 2.39094 13.8841 2.60627 13.9385C2.8216 13.9929 3.04618 14.0067 3.26718 13.9792C3.47082 13.9536 3.67701 13.8752 3.96212 13.7328C4.16623 13.6277 4.39527 13.5732 4.62781 13.5743C4.86035 13.5755 5.08879 13.6322 5.29175 13.7392C5.70158 13.9632 5.94511 14.3752 5.96208 14.8216C5.97396 15.1256 6.0045 15.3336 6.08342 15.512C6.1687 15.7063 6.29376 15.8828 6.45144 16.0314C6.60912 16.1801 6.79633 16.298 7.00236 16.3784C7.31377 16.5 7.70918 16.5 8.5 16.5C9.29082 16.5 9.68623 16.5 9.99764 16.3784C10.2037 16.298 10.3909 16.1801 10.5486 16.0314C10.7062 15.8828 10.8313 15.7063 10.9166 15.512C10.9946 15.3336 11.026 15.1256 11.0379 14.8216C11.0549 14.3752 11.2984 13.9624 11.7083 13.7392C11.9112 13.6322 12.1397 13.5755 12.3722 13.5743C12.6047 13.5732 12.8338 13.6277 13.0379 13.7328C13.323 13.8752 13.5292 13.9536 13.7328 13.9792C13.9538 14.0067 14.1784 13.9929 14.3937 13.9385C14.6091 13.8841 14.8109 13.7903 14.9878 13.6624C15.2551 13.4688 15.4528 13.1456 15.8482 12.5C16.2436 11.8544 16.4421 11.532 16.4854 11.216C16.5146 11.0076 16.4999 10.7959 16.4423 10.5929C16.3846 10.3899 16.2851 10.1995 16.1494 10.0328C16.0238 9.8792 15.8482 9.7504 15.5758 9.5888C15.3772 9.47472 15.2125 9.31499 15.0972 9.12457C14.9819 8.93414 14.9197 8.71925 14.9165 8.5C14.9165 8.0536 15.1745 7.6488 15.5758 7.412C15.8482 7.2496 16.0247 7.1208 16.1494 6.9672C16.2851 6.80045 16.3846 6.61013 16.4423 6.40712C16.4999 6.2041 16.5146 5.99236 16.4854 5.784C16.4413 5.4688 16.2436 5.1456 15.849 4.5C15.4528 3.8544 15.2551 3.532 14.9878 3.3376C14.8109 3.20967 14.6091 3.11585 14.3937 3.06149C14.1784 3.00714 13.9538 2.99331 13.7328 3.0208C13.5292 3.0464 13.323 3.1248 13.037 3.2672C12.833 3.37211 12.6041 3.42656 12.3718 3.42544C12.1394 3.42432 11.9111 3.36767 11.7083 3.2608C11.5085 3.14855 11.3423 2.99038 11.2251 2.80108C11.1078 2.61178 11.0434 2.39754 11.0379 2.1784C11.026 1.8744 10.9955 1.6664 10.9166 1.488C10.8313 1.29374 10.7062 1.11724 10.5486 0.968579C10.3909 0.819916 10.2037 0.70201 9.99764 0.6216Z" stroke="#5C5C5C"/>
</svg>
