<svg width="512" height="56" viewBox="0 0 512 56" fill="none" xmlns="http://www.w3.org/2000/svg">
<circle cx="1" cy="1" r="1" fill="#404040" fill-opacity="0.25"/>
<circle cx="35" cy="1" r="1" fill="#404040" fill-opacity="0.25"/>
<circle cx="69" cy="1" r="1" fill="#404040" fill-opacity="0.25"/>
<circle cx="103" cy="1" r="1" fill="#404040" fill-opacity="0.25"/>
<circle cx="137" cy="1" r="1" fill="#404040" fill-opacity="0.25"/>
<circle cx="171" cy="1" r="1" fill="#404040" fill-opacity="0.25"/>
<circle cx="205" cy="1" r="1" fill="#404040" fill-opacity="0.25"/>
<circle cx="239" cy="1" r="1" fill="#404040" fill-opacity="0.25"/>
<circle cx="273" cy="1" r="1" fill="#404040" fill-opacity="0.25"/>
<circle cx="307" cy="1" r="1" fill="#404040" fill-opacity="0.25"/>
<circle cx="341" cy="1" r="1" fill="#404040" fill-opacity="0.25"/>
<circle cx="375" cy="1" r="1" fill="#404040" fill-opacity="0.25"/>
<circle cx="409" cy="1" r="1" fill="#404040" fill-opacity="0.25"/>
<circle cx="443" cy="1" r="1" fill="#404040" fill-opacity="0.25"/>
<circle cx="477" cy="1" r="1" fill="#404040" fill-opacity="0.25"/>
<circle cx="511" cy="1" r="1" fill="#404040" fill-opacity="0.25"/>
<circle cx="1" cy="19" r="1" fill="#404040" fill-opacity="0.25"/>
<circle cx="35" cy="19" r="1" fill="#404040" fill-opacity="0.25"/>
<circle cx="69" cy="19" r="1" fill="#404040" fill-opacity="0.25"/>
<circle cx="103" cy="19" r="1" fill="#404040" fill-opacity="0.25"/>
<circle cx="137" cy="19" r="1" fill="#404040" fill-opacity="0.25"/>
<circle cx="171" cy="19" r="1" fill="#404040" fill-opacity="0.25"/>
<circle cx="205" cy="19" r="1" fill="#404040" fill-opacity="0.25"/>
<circle cx="239" cy="19" r="1" fill="#404040" fill-opacity="0.25"/>
<circle cx="273" cy="19" r="1" fill="#404040" fill-opacity="0.25"/>
<circle cx="307" cy="19" r="1" fill="#404040" fill-opacity="0.25"/>
<circle cx="341" cy="19" r="1" fill="#404040" fill-opacity="0.25"/>
<circle cx="375" cy="19" r="1" fill="#404040" fill-opacity="0.25"/>
<circle cx="409" cy="19" r="1" fill="#404040" fill-opacity="0.25"/>
<circle cx="443" cy="19" r="1" fill="#404040" fill-opacity="0.25"/>
<circle cx="477" cy="19" r="1" fill="#404040" fill-opacity="0.25"/>
<circle cx="511" cy="19" r="1" fill="#404040" fill-opacity="0.25"/>
<circle cx="1" cy="37" r="1" fill="#404040" fill-opacity="0.25"/>
<circle cx="35" cy="37" r="1" fill="#404040" fill-opacity="0.25"/>
<circle cx="69" cy="37" r="1" fill="#404040" fill-opacity="0.25"/>
<circle cx="103" cy="37" r="1" fill="#404040" fill-opacity="0.25"/>
<circle cx="137" cy="37" r="1" fill="#404040" fill-opacity="0.25"/>
<circle cx="171" cy="37" r="1" fill="#404040" fill-opacity="0.25"/>
<circle cx="205" cy="37" r="1" fill="#404040" fill-opacity="0.25"/>
<circle cx="239" cy="37" r="1" fill="#404040" fill-opacity="0.25"/>
<circle cx="273" cy="37" r="1" fill="#404040" fill-opacity="0.25"/>
<circle cx="307" cy="37" r="1" fill="#404040" fill-opacity="0.25"/>
<circle cx="341" cy="37" r="1" fill="#404040" fill-opacity="0.25"/>
<circle cx="375" cy="37" r="1" fill="#404040" fill-opacity="0.25"/>
<circle cx="409" cy="37" r="1" fill="#404040" fill-opacity="0.25"/>
<circle cx="443" cy="37" r="1" fill="#404040" fill-opacity="0.25"/>
<circle cx="477" cy="37" r="1" fill="#404040" fill-opacity="0.25"/>
<circle cx="511" cy="37" r="1" fill="#404040" fill-opacity="0.25"/>
<circle cx="1" cy="55" r="1" fill="#404040" fill-opacity="0.25"/>
<circle cx="35" cy="55" r="1" fill="#404040" fill-opacity="0.25"/>
<circle cx="69" cy="55" r="1" fill="#404040" fill-opacity="0.25"/>
<circle cx="103" cy="55" r="1" fill="#404040" fill-opacity="0.25"/>
<circle cx="137" cy="55" r="1" fill="#404040" fill-opacity="0.25"/>
<circle cx="171" cy="55" r="1" fill="#404040" fill-opacity="0.25"/>
<circle cx="205" cy="55" r="1" fill="#404040" fill-opacity="0.25"/>
<circle cx="239" cy="55" r="1" fill="#404040" fill-opacity="0.25"/>
<circle cx="273" cy="55" r="1" fill="#404040" fill-opacity="0.25"/>
<circle cx="307" cy="55" r="1" fill="#404040" fill-opacity="0.25"/>
<circle cx="341" cy="55" r="1" fill="#404040" fill-opacity="0.25"/>
<circle cx="375" cy="55" r="1" fill="#404040" fill-opacity="0.25"/>
<circle cx="409" cy="55" r="1" fill="#404040" fill-opacity="0.25"/>
<circle cx="443" cy="55" r="1" fill="#404040" fill-opacity="0.25"/>
<circle cx="477" cy="55" r="1" fill="#404040" fill-opacity="0.25"/>
<circle cx="511" cy="55" r="1" fill="#404040" fill-opacity="0.25"/>
</svg>
