<svg width="64" height="65" viewBox="0 0 64 65" fill="none" xmlns="http://www.w3.org/2000/svg">
<path d="M52.2164 18.5049L52.4764 18.7523C52.9595 19.2095 53.3426 19.7523 53.6041 20.3497C53.8655 20.9472 54 21.5875 54 22.2342V59.5769C54 60.2234 53.8655 60.8636 53.6042 61.4609C53.3428 62.0582 52.9598 62.6009 52.477 63.0581C51.9941 63.5152 51.4208 63.8778 50.79 64.1253C50.1591 64.3727 49.4829 64.5 48.8 64.5H7.2C5.82087 64.5 4.49823 63.9813 3.52305 63.0581C2.54786 62.1348 2 60.8826 2 59.5769V5.42308C2 4.1174 2.54786 2.86519 3.52305 1.94194C4.49823 1.01868 5.82087 0.5 7.2 0.5L31.0446 0.503693C32.4234 0.503645 33.7458 1.02205 34.721 1.94492L34.9589 2.17138" fill="white"/>
<path d="M52.1618 18.452L35.0382 2.2415C34.8877 2.0988 34.6959 2.00156 34.4871 1.96209C34.2782 1.92263 34.0617 1.94271 33.8649 2.01979C33.6681 2.09687 33.4999 2.2275 33.3815 2.39513C33.2632 2.56276 33.2 2.75987 33.2 2.9615V15.2692C33.2 16.5749 33.7479 17.8271 34.723 18.7503C35.6982 19.6736 37.0209 20.1923 38.4 20.1923H51.4C51.6131 20.1925 51.8215 20.1329 51.9987 20.0209C52.176 19.909 52.3141 19.7497 52.3957 19.5633C52.4773 19.377 52.4986 19.1719 52.457 18.974C52.4153 18.7762 52.3126 18.5945 52.1618 18.452Z" fill="white"/>
<path d="M52.2164 18.5049L52.4764 18.7523C52.9595 19.2095 53.3426 19.7523 53.6041 20.3497C53.8655 20.9472 54 21.5875 54 22.2342V59.5769C54 60.2234 53.8655 60.8636 53.6042 61.4609C53.3428 62.0582 52.9598 62.6009 52.477 63.0581C51.9941 63.5152 51.4208 63.8778 50.79 64.1253C50.1591 64.3727 49.4829 64.5 48.8 64.5H7.2C5.82087 64.5 4.49823 63.9813 3.52305 63.0581C2.54786 62.1348 2 60.8826 2 59.5769V5.42308C2 4.1174 2.54786 2.86519 3.52305 1.94194C4.49823 1.01868 5.82087 0.5 7.2 0.5L31.0446 0.503693C32.4234 0.503645 33.7458 1.02205 34.721 1.94492L34.9589 2.17138M52.1618 18.452L35.0382 2.2415C34.8877 2.0988 34.6959 2.00156 34.4871 1.96209C34.2782 1.92263 34.0617 1.94271 33.8649 2.01979C33.6681 2.09687 33.4999 2.2275 33.3815 2.39513C33.2632 2.56276 33.2 2.75987 33.2 2.9615V15.2692C33.2 16.5749 33.7479 17.8271 34.723 18.7503C35.6982 19.6736 37.0209 20.1923 38.4 20.1923H51.4C51.6131 20.1925 51.8215 20.1329 51.9987 20.0209C52.176 19.909 52.3141 19.7497 52.3957 19.5633C52.4773 19.377 52.4986 19.1719 52.457 18.974C52.4153 18.7762 52.3126 18.5945 52.1618 18.452Z" stroke="black" stroke-linecap="round" stroke-linejoin="round"/>
<rect x="6.5" y="30" width="57" height="23" rx="7.5" fill="black"/>
<rect x="6.5" y="30" width="57" height="23" rx="7.5" stroke="white"/>
<path d="M27.1534 45.5682C26.9432 45.5682 26.7628 45.4929 26.6122 45.3423C26.4616 45.1918 26.3864 45.0114 26.3864 44.8011C26.3864 44.5909 26.4616 44.4105 26.6122 44.2599C26.7628 44.1094 26.9432 44.0341 27.1534 44.0341C27.3636 44.0341 27.544 44.1094 27.6946 44.2599C27.8452 44.4105 27.9205 44.5909 27.9205 44.8011C27.9205 44.9403 27.8849 45.0682 27.8139 45.1847C27.7457 45.3011 27.6534 45.3949 27.5369 45.4659C27.4233 45.5341 27.2955 45.5682 27.1534 45.5682ZM32.5717 38.9545V39.8068H29.1797V38.9545H32.5717ZM30.1683 37.3864H31.174V43.625C31.174 43.9091 31.2152 44.1222 31.2976 44.2642C31.3828 44.4034 31.4908 44.4972 31.6214 44.5455C31.755 44.5909 31.8956 44.6136 32.0433 44.6136C32.1541 44.6136 32.245 44.608 32.3161 44.5966C32.3871 44.5824 32.4439 44.571 32.4865 44.5625L32.6911 45.4659C32.6229 45.4915 32.5277 45.517 32.4055 45.5426C32.2834 45.571 32.1286 45.5852 31.9411 45.5852C31.657 45.5852 31.3786 45.5241 31.1058 45.402C30.8359 45.2798 30.6115 45.0938 30.4325 44.8438C30.2564 44.5938 30.1683 44.2784 30.1683 43.8977V37.3864ZM34.8345 38.9545L36.4027 41.6307L37.9709 38.9545H39.13L37.0163 42.2273L39.13 45.5H37.9709L36.4027 42.9602L34.8345 45.5H33.6754L35.755 42.2273L33.6754 38.9545H34.8345ZM43.4116 38.9545V39.8068H40.0195V38.9545H43.4116ZM41.0082 37.3864H42.0138V43.625C42.0138 43.9091 42.055 44.1222 42.1374 44.2642C42.2227 44.4034 42.3306 44.4972 42.4613 44.5455C42.5948 44.5909 42.7354 44.6136 42.8832 44.6136C42.994 44.6136 43.0849 44.608 43.1559 44.5966C43.2269 44.5824 43.2837 44.571 43.3263 44.5625L43.5309 45.4659C43.4627 45.4915 43.3675 45.517 43.2454 45.5426C43.1232 45.571 42.9684 45.5852 42.7809 45.5852C42.4968 45.5852 42.2184 45.5241 41.9457 45.402C41.6758 45.2798 41.4513 45.0938 41.2724 44.8438C41.0962 44.5938 41.0082 44.2784 41.0082 43.8977V37.3864Z" fill="white"/>
</svg>
