<svg width="16" height="16" viewBox="0 0 16 16" fill="none" xmlns="http://www.w3.org/2000/svg">
<path d="M1.84686 16C1.32038 16 0.881143 15.8198 0.529143 15.4593C0.177143 15.0988 0.000761905 14.6486 0 14.1087V11.8581C0 11.6919 0.0544763 11.553 0.163429 11.4414C0.272381 11.3299 0.408381 11.2737 0.571429 11.2729C0.734476 11.2721 0.870476 11.3283 0.979428 11.4414C1.08838 11.5546 1.14286 11.6935 1.14286 11.8581V14.1087C1.14286 14.2889 1.216 14.4543 1.36229 14.6049C1.50857 14.7555 1.66971 14.8304 1.84571 14.8296H14.1543C14.3295 14.8296 14.4907 14.7547 14.6377 14.6049C14.7848 14.4551 14.8579 14.2897 14.8571 14.1087V11.8581C14.8571 11.6919 14.9116 11.553 15.0206 11.4414C15.1295 11.3299 15.2655 11.2737 15.4286 11.2729C15.5916 11.2721 15.7276 11.3283 15.8366 11.4414C15.9455 11.5546 16 11.6935 16 11.8581V14.1087C16 14.6478 15.824 15.0977 15.472 15.4581C15.12 15.8186 14.6804 15.9992 14.1531 16H1.84686ZM7.42857 1.87024L5.176 4.17702C5.06476 4.29093 4.93257 4.35062 4.77943 4.35608C4.62629 4.36154 4.48686 4.29952 4.36114 4.17C4.23924 4.04126 4.17714 3.90354 4.17486 3.75686C4.17257 3.60939 4.23467 3.47129 4.36114 3.34255L7.35314 0.276205C7.45371 0.174774 7.55581 0.103382 7.65943 0.0620291C7.76381 0.0206763 7.87733 0 8 0C8.12267 0 8.23619 0.0206763 8.34057 0.0620291C8.44495 0.103382 8.54705 0.175164 8.64686 0.277375L11.6389 3.34255C11.7509 3.45647 11.8095 3.59067 11.8149 3.74515C11.8194 3.89964 11.7611 4.04126 11.64 4.17C11.5135 4.29952 11.3775 4.36545 11.232 4.36779C11.0865 4.37013 10.9505 4.30654 10.824 4.17702L8.57143 1.87024V11.4087C8.57143 11.5756 8.51695 11.7149 8.408 11.8265C8.29905 11.9381 8.16305 11.9939 8 11.9939C7.83695 11.9939 7.70095 11.9381 7.592 11.8265C7.48305 11.7149 7.42857 11.5756 7.42857 11.4087V1.87024Z" fill="white"/>
</svg>
