<svg width="17" height="17" viewBox="0 0 17 17" fill="none" xmlns="http://www.w3.org/2000/svg">
<path d="M16.5 8.5C16.5 12.9183 12.9183 16.5 8.5 16.5C4.08172 16.5 0.5 12.9183 0.5 8.5C0.5 4.08172 4.08172 0.5 8.5 0.5C12.9183 0.5 16.5 4.08172 16.5 8.5Z" fill="#FFFB00"/>
<path d="M9.05256 5.22727L8.96023 10.4084H7.97656L7.88423 5.22727H9.05256ZM8.47017 12.5675C8.27367 12.5675 8.10559 12.4988 7.96591 12.3615C7.82623 12.2218 7.75758 12.0537 7.75994 11.8572C7.75758 11.6631 7.82623 11.4974 7.96591 11.3601C8.10559 11.2204 8.27367 11.1506 8.47017 11.1506C8.66193 11.1506 8.82765 11.2204 8.96733 11.3601C9.10701 11.4974 9.17803 11.6631 9.1804 11.8572C9.17803 11.9875 9.1437 12.107 9.07741 12.2159C9.01349 12.3224 8.92827 12.4077 8.82173 12.4716C8.7152 12.5355 8.59801 12.5675 8.47017 12.5675Z" fill="#404040"/>
<path d="M8.5 0.25C13.0563 0.25 16.75 3.94365 16.75 8.5C16.75 13.0563 13.0563 16.75 8.5 16.75C3.94365 16.75 0.25 13.0563 0.25 8.5C0.25 3.94365 3.94365 0.25 8.5 0.25Z" stroke="#404040" stroke-width="0.5"/>
</svg>
