<svg width="64" height="65" viewBox="0 0 64 65" fill="none" xmlns="http://www.w3.org/2000/svg">
<path d="M52.2164 18.5049L52.4764 18.7523C52.9595 19.2095 53.3426 19.7523 53.6041 20.3497C53.8655 20.9472 54 21.5875 54 22.2342V59.5769C54 60.2234 53.8655 60.8636 53.6042 61.4609C53.3428 62.0582 52.9598 62.6009 52.477 63.0581C51.9941 63.5152 51.4208 63.8778 50.79 64.1253C50.1591 64.3727 49.4829 64.5 48.8 64.5H7.2C5.82087 64.5 4.49823 63.9813 3.52305 63.0581C2.54786 62.1348 2 60.8826 2 59.5769V5.42308C2 4.1174 2.54786 2.86519 3.52305 1.94194C4.49823 1.01868 5.82087 0.5 7.2 0.5L31.0446 0.503693C32.4234 0.503645 33.7458 1.02205 34.721 1.94492L34.9589 2.17138" fill="white"/>
<path d="M52.1618 18.452L35.0382 2.2415C34.8877 2.0988 34.6959 2.00156 34.4871 1.96209C34.2782 1.92263 34.0617 1.94271 33.8649 2.01979C33.6681 2.09687 33.4999 2.2275 33.3815 2.39513C33.2632 2.56276 33.2 2.75987 33.2 2.9615V15.2692C33.2 16.5749 33.7479 17.8271 34.723 18.7503C35.6982 19.6736 37.0209 20.1923 38.4 20.1923H51.4C51.6131 20.1925 51.8215 20.1329 51.9987 20.0209C52.176 19.909 52.3141 19.7497 52.3957 19.5633C52.4773 19.377 52.4986 19.1719 52.457 18.974C52.4153 18.7762 52.3126 18.5945 52.1618 18.452Z" fill="white"/>
<path d="M52.2164 18.5049L52.4764 18.7523C52.9595 19.2095 53.3426 19.7523 53.6041 20.3497C53.8655 20.9472 54 21.5875 54 22.2342V59.5769C54 60.2234 53.8655 60.8636 53.6042 61.4609C53.3428 62.0582 52.9598 62.6009 52.477 63.0581C51.9941 63.5152 51.4208 63.8778 50.79 64.1253C50.1591 64.3727 49.4829 64.5 48.8 64.5H7.2C5.82087 64.5 4.49823 63.9813 3.52305 63.0581C2.54786 62.1348 2 60.8826 2 59.5769V5.42308C2 4.1174 2.54786 2.86519 3.52305 1.94194C4.49823 1.01868 5.82087 0.5 7.2 0.5L31.0446 0.503693C32.4234 0.503645 33.7458 1.02205 34.721 1.94492L34.9589 2.17138M52.1618 18.452L35.0382 2.2415C34.8877 2.0988 34.6959 2.00156 34.4871 1.96209C34.2782 1.92263 34.0617 1.94271 33.8649 2.01979C33.6681 2.09687 33.4999 2.2275 33.3815 2.39513C33.2632 2.56276 33.2 2.75987 33.2 2.9615V15.2692C33.2 16.5749 33.7479 17.8271 34.723 18.7503C35.6982 19.6736 37.0209 20.1923 38.4 20.1923H51.4C51.6131 20.1925 51.8215 20.1329 51.9987 20.0209C52.176 19.909 52.3141 19.7497 52.3957 19.5633C52.4773 19.377 52.4986 19.1719 52.457 18.974C52.4153 18.7762 52.3126 18.5945 52.1618 18.452Z" stroke="#F767CC" stroke-linecap="round" stroke-linejoin="round"/>
<rect x="6.5" y="30" width="57" height="23" rx="7.5" fill="#F767CC"/>
<rect x="6.5" y="30" width="57" height="23" rx="7.5" stroke="white"/>
<path d="M19.1534 45.5682C18.9432 45.5682 18.7628 45.4929 18.6122 45.3423C18.4616 45.1918 18.3864 45.0114 18.3864 44.8011C18.3864 44.5909 18.4616 44.4105 18.6122 44.2599C18.7628 44.1094 18.9432 44.0341 19.1534 44.0341C19.3636 44.0341 19.544 44.1094 19.6946 44.2599C19.8452 44.4105 19.9205 44.5909 19.9205 44.8011C19.9205 44.9403 19.8849 45.0682 19.8139 45.1847C19.7457 45.3011 19.6534 45.3949 19.5369 45.4659C19.4233 45.5341 19.2955 45.5682 19.1534 45.5682ZM23.2081 45.5L21.2138 38.9545H22.2706L23.6854 43.9659H23.7536L25.1513 38.9545H26.2251L27.6058 43.9489H27.674L29.0888 38.9545H30.1456L28.1513 45.5H27.1626L25.7308 40.4716H25.6286L24.1967 45.5H23.2081ZM33.9968 45.6364C33.3661 45.6364 32.8221 45.4972 32.3647 45.2188C31.9102 44.9375 31.5593 44.5455 31.3121 44.0426C31.0678 43.5369 30.9457 42.9489 30.9457 42.2784C30.9457 41.608 31.0678 41.017 31.3121 40.5057C31.5593 39.9915 31.9031 39.5909 32.3434 39.304C32.7866 39.0142 33.3036 38.8693 33.8945 38.8693C34.2354 38.8693 34.5721 38.9261 34.9045 39.0398C35.2369 39.1534 35.5394 39.3381 35.8121 39.5938C36.0849 39.8466 36.3022 40.1818 36.4641 40.5994C36.6261 41.017 36.707 41.5312 36.707 42.142V42.5682H31.6616V41.6989H35.6843C35.6843 41.3295 35.6104 41 35.4627 40.7102C35.3178 40.4205 35.1104 40.1918 34.8406 40.0241C34.5735 39.8565 34.2582 39.7727 33.8945 39.7727C33.494 39.7727 33.1474 39.8722 32.8548 40.071C32.565 40.267 32.342 40.5227 32.1857 40.8381C32.0295 41.1534 31.9513 41.4915 31.9513 41.8523V42.4318C31.9513 42.9261 32.0366 43.3452 32.207 43.6889C32.3803 44.0298 32.6204 44.2898 32.9272 44.4688C33.234 44.6449 33.5906 44.733 33.9968 44.733C34.261 44.733 34.4996 44.696 34.7127 44.6222C34.9286 44.5455 35.1147 44.4318 35.271 44.2812C35.4272 44.1278 35.5479 43.9375 35.6332 43.7102L36.6048 43.983C36.5025 44.3125 36.3306 44.6023 36.0891 44.8523C35.8477 45.0994 35.5494 45.2926 35.1942 45.4318C34.8391 45.5682 34.44 45.6364 33.9968 45.6364ZM38.3732 45.5V36.7727H39.3789V39.9943H39.4641C39.538 39.8807 39.6403 39.7358 39.771 39.5597C39.9045 39.3807 40.0948 39.2216 40.342 39.0824C40.592 38.9403 40.93 38.8693 41.3562 38.8693C41.9073 38.8693 42.3931 39.0071 42.8136 39.2827C43.234 39.5582 43.5621 39.9489 43.7979 40.4545C44.0337 40.9602 44.1516 41.5568 44.1516 42.2443C44.1516 42.9375 44.0337 43.5384 43.7979 44.0469C43.5621 44.5526 43.2354 44.9446 42.8178 45.223C42.4002 45.4986 41.9187 45.6364 41.3732 45.6364C40.9528 45.6364 40.6161 45.5668 40.3633 45.4276C40.1104 45.2855 39.9158 45.125 39.7795 44.946C39.6431 44.7642 39.538 44.6136 39.4641 44.4943H39.3448V45.5H38.3732ZM39.3619 42.2273C39.3619 42.7216 39.4343 43.1577 39.5792 43.5355C39.7241 43.9105 39.9357 44.2045 40.2141 44.4176C40.4925 44.6278 40.8335 44.733 41.2369 44.733C41.6573 44.733 42.0082 44.6222 42.2894 44.4006C42.5735 44.1761 42.7866 43.875 42.9286 43.4972C43.0735 43.1165 43.146 42.6932 43.146 42.2273C43.146 41.767 43.0749 41.3523 42.9329 40.983C42.7937 40.6108 42.582 40.3168 42.2979 40.1009C42.0167 39.8821 41.663 39.7727 41.2369 39.7727C40.8278 39.7727 40.484 39.8764 40.2056 40.0838C39.9272 40.2884 39.717 40.5753 39.5749 40.9446C39.4329 41.3111 39.3619 41.7386 39.3619 42.2273ZM45.69 47.9545V38.9545H46.6616V39.9943H46.7809C46.8548 39.8807 46.957 39.7358 47.0877 39.5597C47.2212 39.3807 47.4116 39.2216 47.6587 39.0824C47.9087 38.9403 48.2468 38.8693 48.6729 38.8693C49.2241 38.8693 49.7099 39.0071 50.1303 39.2827C50.5508 39.5582 50.8789 39.9489 51.1147 40.4545C51.3505 40.9602 51.4684 41.5568 51.4684 42.2443C51.4684 42.9375 51.3505 43.5384 51.1147 44.0469C50.8789 44.5526 50.5522 44.9446 50.1346 45.223C49.717 45.4986 49.2354 45.6364 48.69 45.6364C48.2695 45.6364 47.9329 45.5668 47.68 45.4276C47.4272 45.2855 47.2326 45.125 47.0962 44.946C46.9599 44.7642 46.8548 44.6136 46.7809 44.4943H46.6957V47.9545H45.69ZM46.6786 42.2273C46.6786 42.7216 46.7511 43.1577 46.896 43.5355C47.0408 43.9105 47.2525 44.2045 47.5309 44.4176C47.8093 44.6278 48.1502 44.733 48.5536 44.733C48.9741 44.733 49.3249 44.6222 49.6062 44.4006C49.8903 44.1761 50.1033 43.875 50.2454 43.4972C50.3903 43.1165 50.4627 42.6932 50.4627 42.2273C50.4627 41.767 50.3917 41.3523 50.2496 40.983C50.1104 40.6108 49.8988 40.3168 49.6147 40.1009C49.3335 39.8821 48.9798 39.7727 48.5536 39.7727C48.1445 39.7727 47.8008 39.8764 47.5224 40.0838C47.244 40.2884 47.0337 40.5753 46.8917 40.9446C46.7496 41.3111 46.6786 41.7386 46.6786 42.2273Z" fill="white"/>
</svg>
