<svg width="64" height="65" viewBox="0 0 64 65" fill="none" xmlns="http://www.w3.org/2000/svg">
<path d="M52.2164 18.5049L52.4764 18.7523C52.9595 19.2095 53.3426 19.7523 53.6041 20.3497C53.8655 20.9472 54 21.5875 54 22.2342V59.5769C54 60.2234 53.8655 60.8636 53.6042 61.4609C53.3428 62.0582 52.9598 62.6009 52.477 63.0581C51.9941 63.5152 51.4208 63.8778 50.79 64.1253C50.1591 64.3727 49.4829 64.5 48.8 64.5H7.2C5.82087 64.5 4.49823 63.9813 3.52305 63.0581C2.54786 62.1348 2 60.8826 2 59.5769V5.42308C2 4.1174 2.54786 2.86519 3.52305 1.94194C4.49823 1.01868 5.82087 0.5 7.2 0.5L31.0446 0.503693C32.4234 0.503645 33.7458 1.02205 34.721 1.94492L34.9589 2.17138" fill="white"/>
<path d="M52.1618 18.452L35.0382 2.2415C34.8877 2.0988 34.6959 2.00156 34.4871 1.96209C34.2782 1.92263 34.0617 1.94271 33.8649 2.01979C33.6681 2.09687 33.4999 2.2275 33.3815 2.39513C33.2632 2.56276 33.2 2.75987 33.2 2.9615V15.2692C33.2 16.5749 33.7479 17.8271 34.723 18.7503C35.6982 19.6736 37.0209 20.1923 38.4 20.1923H51.4C51.6131 20.1925 51.8215 20.1329 51.9987 20.0209C52.176 19.909 52.3141 19.7497 52.3957 19.5633C52.4773 19.377 52.4986 19.1719 52.457 18.974C52.4153 18.7762 52.3126 18.5945 52.1618 18.452Z" fill="white"/>
<path d="M52.2164 18.5049L52.4764 18.7523C52.9595 19.2095 53.3426 19.7523 53.6041 20.3497C53.8655 20.9472 54 21.5875 54 22.2342V59.5769C54 60.2234 53.8655 60.8636 53.6042 61.4609C53.3428 62.0582 52.9598 62.6009 52.477 63.0581C51.9941 63.5152 51.4208 63.8778 50.79 64.1253C50.1591 64.3727 49.4829 64.5 48.8 64.5H7.2C5.82087 64.5 4.49823 63.9813 3.52305 63.0581C2.54786 62.1348 2 60.8826 2 59.5769V5.42308C2 4.1174 2.54786 2.86519 3.52305 1.94194C4.49823 1.01868 5.82087 0.5 7.2 0.5L31.0446 0.503693C32.4234 0.503645 33.7458 1.02205 34.721 1.94492L34.9589 2.17138M52.1618 18.452L35.0382 2.2415C34.8877 2.0988 34.6959 2.00156 34.4871 1.96209C34.2782 1.92263 34.0617 1.94271 33.8649 2.01979C33.6681 2.09687 33.4999 2.2275 33.3815 2.39513C33.2632 2.56276 33.2 2.75987 33.2 2.9615V15.2692C33.2 16.5749 33.7479 17.8271 34.723 18.7503C35.6982 19.6736 37.0209 20.1923 38.4 20.1923H51.4C51.6131 20.1925 51.8215 20.1329 51.9987 20.0209C52.176 19.909 52.3141 19.7497 52.3957 19.5633C52.4773 19.377 52.4986 19.1719 52.457 18.974C52.4153 18.7762 52.3126 18.5945 52.1618 18.452Z" stroke="#3C8A39" stroke-linecap="round" stroke-linejoin="round"/>
<path d="M10.616 33.5C10.1553 33.5 9.771 33.346 9.463 33.038C9.155 32.73 9.00067 32.3453 9 31.884V19.116C9 18.6553 9.15433 18.271 9.463 17.963C9.77167 17.655 10.156 17.5007 10.616 17.5H23.385C23.845 17.5 24.2293 17.6543 24.538 17.963C24.8467 18.2717 25.0007 18.656 25 19.116V31.885C25 32.345 24.846 32.7293 24.538 33.038C24.23 33.3467 23.8453 33.5007 23.384 33.5H10.616ZM16.5 27.904H10V31.884C10 32.064 10.0577 32.2117 10.173 32.327C10.2883 32.4423 10.436 32.5 10.616 32.5H16.5V27.904ZM17.5 27.904V32.5H23.385C23.5643 32.5 23.7117 32.4423 23.827 32.327C23.9423 32.2117 24 32.0643 24 31.885V27.904H17.5ZM16.5 26.904V22.269H10V26.904H16.5ZM17.5 26.904H24V22.269H17.5V26.904ZM10 21.269H24V19.115C24 18.9357 23.9423 18.7883 23.827 18.673C23.7117 18.5577 23.5643 18.5 23.385 18.5H10.615C10.4357 18.5 10.2883 18.5577 10.173 18.673C10.0577 18.7883 10 18.936 10 19.116V21.269Z" fill="#3C8A39" fill-opacity="0.5"/>
<rect x="6.5" y="30" width="57" height="23" rx="7.5" fill="#3C8A39"/>
<rect x="6.5" y="30" width="57" height="23" rx="7.5" stroke="white"/>
<path d="M27.1534 45.5682C26.9432 45.5682 26.7628 45.4929 26.6122 45.3423C26.4616 45.1918 26.3864 45.0114 26.3864 44.8011C26.3864 44.5909 26.4616 44.4105 26.6122 44.2599C26.7628 44.1094 26.9432 44.0341 27.1534 44.0341C27.3636 44.0341 27.544 44.1094 27.6946 44.2599C27.8452 44.4105 27.9205 44.5909 27.9205 44.8011C27.9205 44.9403 27.8849 45.0682 27.8139 45.1847C27.7457 45.3011 27.6534 45.3949 27.5369 45.4659C27.4233 45.5341 27.2955 45.5682 27.1534 45.5682ZM30.4751 38.9545L32.0433 41.6307L33.6115 38.9545H34.7706L32.657 42.2273L34.7706 45.5H33.6115L32.0433 42.9602L30.4751 45.5H29.3161L31.3956 42.2273L29.3161 38.9545H30.4751ZM37.2113 36.7727V45.5H36.2056V36.7727H37.2113ZM43.6896 40.4205L42.7862 40.6761C42.7294 40.5256 42.6456 40.3793 42.5348 40.2372C42.4268 40.0923 42.2791 39.973 42.0916 39.8793C41.9041 39.7855 41.6641 39.7386 41.3714 39.7386C40.9709 39.7386 40.6371 39.831 40.37 40.0156C40.1058 40.1974 39.9737 40.429 39.9737 40.7102C39.9737 40.9602 40.0646 41.1577 40.2464 41.3026C40.4283 41.4474 40.7124 41.5682 41.0987 41.6648L42.0703 41.9034C42.6555 42.0455 43.0916 42.2628 43.3786 42.5554C43.6655 42.8452 43.8089 43.2187 43.8089 43.6761C43.8089 44.0511 43.701 44.3864 43.4851 44.6818C43.272 44.9773 42.9737 45.2102 42.5902 45.3807C42.2067 45.5511 41.7607 45.6364 41.2521 45.6364C40.5845 45.6364 40.032 45.4915 39.5945 45.2017C39.157 44.9119 38.88 44.4886 38.7635 43.9318L39.718 43.6932C39.8089 44.0455 39.9808 44.3097 40.2337 44.4858C40.4893 44.6619 40.8232 44.75 41.2351 44.75C41.7038 44.75 42.076 44.6506 42.3516 44.4517C42.63 44.25 42.7692 44.0085 42.7692 43.7273C42.7692 43.5 42.6896 43.3097 42.5305 43.1562C42.3714 43 42.1271 42.8835 41.7976 42.8068L40.7067 42.5511C40.1072 42.4091 39.6669 42.1889 39.3857 41.8906C39.1072 41.5895 38.968 41.2131 38.968 40.7614C38.968 40.392 39.0717 40.0653 39.2791 39.7812C39.4893 39.4972 39.7749 39.2741 40.1357 39.1122C40.4993 38.9503 40.9112 38.8693 41.3714 38.8693C42.0192 38.8693 42.5277 39.0114 42.897 39.2955C43.2692 39.5795 43.5334 39.9545 43.6896 40.4205Z" fill="white"/>
</svg>
