<svg width="72" height="84" viewBox="0 0 72 84" fill="none" xmlns="http://www.w3.org/2000/svg">
<path d="M62 28.0513H46.9032C46.0135 28.0513 45.1602 27.7055 44.531 27.09C43.9018 26.4745 43.5484 25.6397 43.5484 24.7692V10M62 28.0513V70.7179C62 71.5884 61.6465 72.4232 61.0174 73.0387C60.3882 73.6542 59.5349 74 58.6452 74H13.3548C12.4651 74 11.6118 73.6542 10.9826 73.0387C10.3535 72.4232 10 71.5884 10 70.7179V13.2821C10 12.4116 10.3535 11.5768 10.9826 10.9613C11.6118 10.3458 12.4651 10 13.3548 10H43.5484M62 28.0513L43.5484 10M26.4642 14.631H32.5985V10H26.4642V14.631ZM26.4642 14.631H20.3299V19.2619H26.4642M26.4642 14.631V19.2619M26.4642 19.2619L32.5985 19.2603V23.8913H26.4642M26.4642 19.2619V23.8913M26.4642 23.8913H20.3299V28.5223H26.4642M26.4642 23.8913V28.5223M26.4642 28.5223L32.5985 28.5206V33.1516H26.4642M26.4642 28.5223V33.1516M26.4642 33.1516H20.3299V37.7826H26.4642M26.4642 33.1516V37.7826M26.4642 37.7826L32.5985 37.7809V42.4119H26.4642M26.4642 37.7826V42.4119M26.4642 42.4119H20.3299V47.0429H26.4642M26.4642 42.4119V47.0429M26.4642 47.0429L32.5985 47.0412V51.6722H26.4642V47.0429Z" stroke="#5C5C5C" stroke-linecap="round" stroke-linejoin="round"/>
<rect x="6.5" y="42.5" width="57" height="23" rx="7.5" fill="#5C5C5C"/>
<rect x="6.5" y="42.5" width="57" height="23" rx="7.5" stroke="white"/>
<path d="M26.6534 58.0682C26.4432 58.0682 26.2628 57.9929 26.1122 57.8423C25.9616 57.6918 25.8864 57.5114 25.8864 57.3011C25.8864 57.0909 25.9616 56.9105 26.1122 56.7599C26.2628 56.6094 26.4432 56.5341 26.6534 56.5341C26.8636 56.5341 27.044 56.6094 27.1946 56.7599C27.3452 56.9105 27.4205 57.0909 27.4205 57.3011C27.4205 57.4403 27.3849 57.5682 27.3139 57.6847C27.2457 57.8011 27.1534 57.8949 27.0369 57.9659C26.9233 58.0341 26.7955 58.0682 26.6534 58.0682ZM29.0376 58V57.233L32.7536 52.4602V52.392H29.157V51.4545H34.049V52.2557L30.4354 56.9943V57.0625H34.1683V58H29.0376ZM35.7173 58V51.4545H36.723V58H35.7173ZM36.2287 50.3636C36.0327 50.3636 35.8636 50.2969 35.7216 50.1634C35.5824 50.0298 35.5128 49.8693 35.5128 49.6818C35.5128 49.4943 35.5824 49.3338 35.7216 49.2003C35.8636 49.0668 36.0327 49 36.2287 49C36.4247 49 36.5923 49.0668 36.7315 49.2003C36.8736 49.3338 36.9446 49.4943 36.9446 49.6818C36.9446 49.8693 36.8736 50.0298 36.7315 50.1634C36.5923 50.2969 36.4247 50.3636 36.2287 50.3636ZM38.565 60.4545V51.4545H39.5366V52.4943H39.6559C39.7298 52.3807 39.832 52.2358 39.9627 52.0597C40.0962 51.8807 40.2866 51.7216 40.5337 51.5824C40.7837 51.4403 41.1218 51.3693 41.5479 51.3693C42.0991 51.3693 42.5849 51.5071 43.0053 51.7827C43.4258 52.0582 43.7539 52.4489 43.9897 52.9545C44.2255 53.4602 44.3434 54.0568 44.3434 54.7443C44.3434 55.4375 44.2255 56.0384 43.9897 56.5469C43.7539 57.0526 43.4272 57.4446 43.0096 57.723C42.592 57.9986 42.1104 58.1364 41.565 58.1364C41.1445 58.1364 40.8079 58.0668 40.555 57.9276C40.3022 57.7855 40.1076 57.625 39.9712 57.446C39.8349 57.2642 39.7298 57.1136 39.6559 56.9943H39.5707V60.4545H38.565ZM39.5536 54.7273C39.5536 55.2216 39.6261 55.6577 39.771 56.0355C39.9158 56.4105 40.1275 56.7045 40.4059 56.9176C40.6843 57.1278 41.0252 57.233 41.4286 57.233C41.8491 57.233 42.1999 57.1222 42.4812 56.9006C42.7653 56.6761 42.9783 56.375 43.1204 55.9972C43.2653 55.6165 43.3377 55.1932 43.3377 54.7273C43.3377 54.267 43.2667 53.8523 43.1246 53.483C42.9854 53.1108 42.7738 52.8168 42.4897 52.6009C42.2085 52.3821 41.8548 52.2727 41.4286 52.2727C41.0195 52.2727 40.6758 52.3764 40.3974 52.5838C40.119 52.7884 39.9087 53.0753 39.7667 53.4446C39.6246 53.8111 39.5536 54.2386 39.5536 54.7273Z" fill="white"/>
</svg>
