<svg width="40" height="40" viewBox="0 0 40 40" fill="none" xmlns="http://www.w3.org/2000/svg">
<g filter="url(#filter0_d_1158_5496)">
<rect x="2" y="2" width="36" height="36" rx="8" fill="white" shape-rendering="crispEdges"/>
<path d="M28 28L24.1396 24.1396M24.1396 24.1396C24.7999 23.4793 25.3237 22.6953 25.6811 21.8326C26.0385 20.9698 26.2224 20.0451 26.2224 19.1112C26.2224 18.1774 26.0385 17.2526 25.6811 16.3899C25.3237 15.5271 24.7999 14.7432 24.1396 14.0828C23.4793 13.4225 22.6953 12.8987 21.8326 12.5413C20.9698 12.1839 20.0451 12 19.1112 12C18.1774 12 17.2526 12.1839 16.3899 12.5413C15.5271 12.8987 14.7432 13.4225 14.0828 14.0828C12.7492 15.4164 12 17.2252 12 19.1112C12 20.9972 12.7492 22.806 14.0828 24.1396C15.4164 25.4732 17.2252 26.2224 19.1112 26.2224C20.9972 26.2224 22.806 25.4732 24.1396 24.1396ZM19.1112 16.4446V21.7778M16.4446 19.1112H21.7778" stroke="black" stroke-linecap="round" stroke-linejoin="round"/>
</g>
<defs>
<filter id="filter0_d_1158_5496" x="0" y="0" width="40" height="40" filterUnits="userSpaceOnUse" color-interpolation-filters="sRGB">
<feFlood flood-opacity="0" result="BackgroundImageFix"/>
<feColorMatrix in="SourceAlpha" type="matrix" values="0 0 0 0 0 0 0 0 0 0 0 0 0 0 0 0 0 0 127 0" result="hardAlpha"/>
<feOffset/>
<feGaussianBlur stdDeviation="1"/>
<feComposite in2="hardAlpha" operator="out"/>
<feColorMatrix type="matrix" values="0 0 0 0 0 0 0 0 0 0 0 0 0 0 0 0 0 0 0.25 0"/>
<feBlend mode="normal" in2="BackgroundImageFix" result="effect1_dropShadow_1158_5496"/>
<feBlend mode="normal" in="SourceGraphic" in2="effect1_dropShadow_1158_5496" result="shape"/>
</filter>
</defs>
</svg>